  0
SECTION
  2
HEADER
  9
$ACADVER
  1
AC1012
  9
$DWGCODEPAGE
  3
ansi_1252
  9
$INSBASE
 10
0.0
 20
0.0
 30
0.0
  9
$EXTMIN
 10
1.000000000000000E+20
 20
1.000000000000000E+20
 30
1.000000000000000E+20
  9
$EXTMAX
 10
-1.000000000000000E+20
 20
-1.000000000000000E+20
 30
-1.000000000000000E+20
  9
$LIMMIN
 10
0.0
 20
0.0
  9
$LIMMAX
 10
420.0
 20
297.0
  9
$ORTHOMODE
 70
     0
  9
$REGENMODE
 70
     1
  9
$FILLMODE
 70
     1
  9
$QTEXTMODE
 70
     0
  9
$MIRRTEXT
 70
     1
  9
$DRAGMODE
 70
     2
  9
$LTSCALE
 40
12.7
  9
$OSMODE
 70
    23
  9
$ATTMODE
 70
     1
  9
$TEXTSIZE
 40
3.5
  9
$TRACEWID
 40
1.0
  9
$TEXTSTYLE
  7
ONSHAPE-STANDARD
  9
$CLAYER
  8
0
  9
$CELTYPE
  6
BYLAYER
  9
$CECOLOR
 62
   256
  9
$CELTSCALE
 40
1.0
  9
$DELOBJ
 70
     1
  9
$DISPSILH
 70
     0
  9
$DIMSCALE
 40
1.0
  9
$DIMASZ
 40
2.5
  9
$DIMEXO
 40
0.625
  9
$DIMDLI
 40
3.75
  9
$DIMRND
 40
0.0
  9
$DIMDLE
 40
0.0
  9
$DIMEXE
 40
1.25
  9
$DIMTP
 40
0.0
  9
$DIMTM
 40
0.0
  9
$DIMTXT
 40
3.5
  9
$DIMCEN
 40
2.5
  9
$DIMTSZ
 40
0.0
  9
$DIMTOL
 70
     0
  9
$DIMLIM
 70
     0
  9
$DIMTIH
 70
     0
  9
$DIMTOH
 70
     0
  9
$DIMSE1
 70
     0
  9
$DIMSE2
 70
     0
  9
$DIMTAD
 70
     1
  9
$DIMZIN
 70
     8
  9
$DIMBLK
  1

  9
$DIMASO
 70
     1
  9
$DIMSHO
 70
     1
  9
$DIMPOST
  1

  9
$DIMAPOST
  1

  9
$DIMALT
 70
     0
  9
$DIMALTD
 70
     3
  9
$DIMALTF
 40
0.03937
  9
$DIMLFAC
 40
1.0
  9
$DIMTOFL
 70
     1
  9
$DIMTVP
 40
0.0
  9
$DIMTIX
 70
     0
  9
$DIMSOXD
 70
     0
  9
$DIMSAH
 70
     0
  9
$DIMBLK1
  1

  9
$DIMBLK2
  1

  9
$DIMSTYLE
  2
ONSHAPE-ISO-25
  9
$DIMCLRD
 70
     0
  9
$DIMCLRE
 70
     0
  9
$DIMCLRT
 70
     0
  9
$DIMTFAC
 40
1.0
  9
$DIMGAP
 40
0.625
  9
$DIMJUST
 70
     0
  9
$DIMSD1
 70
     0
  9
$DIMSD2
 70
     0
  9
$DIMTOLJ
 70
     0
  9
$DIMTZIN
 70
     8
  9
$DIMALTZ
 70
     8
  9
$DIMALTTZ
 70
     0
  9
$DIMFIT
 70
     3
  9
$DIMUPT
 70
     1
  9
$DIMUNIT
 70
     2
  9
$DIMDEC
 70
     2
  9
$DIMTDEC
 70
     2
  9
$DIMALTU
 70
     2
  9
$DIMALTTD
 70
     3
  9
$DIMTXSTY
  7
ONSHAPE-STANDARD-DIMENSION
  9
$DIMAUNIT
 70
     0
  9
$LUNITS
 70
     2
  9
$LUPREC
 70
     4
  9
$SKETCHINC
 40
1.0
  9
$FILLETRAD
 40
10.0
  9
$AUNITS
 70
     0
  9
$AUPREC
 70
     0
  9
$MENU
  1
.
  9
$ELEVATION
 40
0.0
  9
$PELEVATION
 40
0.0
  9
$THICKNESS
 40
0.0
  9
$LIMCHECK
 70
     0
  9
$CHAMFERA
 40
0.0
  9
$CHAMFERB
 40
0.0
  9
$CHAMFERC
 40
0.0
  9
$CHAMFERD
 40
0.0
  9
$SKPOLY
 70
     0
  9
$TDCREATE
 40
2458201.969814803
  9
$TDUPDATE
 40
2458201.969814803
  9
$TDINDWG
 40
0.0
  9
$TDUSRTIMER
 40
0.0
  9
$USRTIMER
 70
     1
  9
$ANGBASE
 50
0.0
  9
$ANGDIR
 70
     0
  9
$PDMODE
 70
     0
  9
$PDSIZE
 40
0.0
  9
$PLINEWID
 40
0.0
  9
$COORDS
 70
     1
  9
$SPLFRAME
 70
     0
  9
$SPLINETYPE
 70
     6
  9
$SPLINESEGS
 70
     8
  9
$ATTDIA
 70
     0
  9
$ATTREQ
 70
     1
  9
$HANDLING
 70
     1
  9
$HANDSEED
  5
257
  9
$SURFTAB1
 70
     6
  9
$SURFTAB2
 70
     6
  9
$SURFTYPE
 70
     6
  9
$SURFU
 70
     6
  9
$SURFV
 70
     6
  9
$UCSNAME
  2

  9
$UCSORG
 10
0.0
 20
0.0
 30
0.0
  9
$UCSXDIR
 10
1.0
 20
0.0
 30
0.0
  9
$UCSYDIR
 10
0.0
 20
1.0
 30
0.0
  9
$PUCSNAME
  2

  9
$PUCSORG
 10
0.0
 20
0.0
 30
0.0
  9
$PUCSXDIR
 10
1.0
 20
0.0
 30
0.0
  9
$PUCSYDIR
 10
0.0
 20
1.0
 30
0.0
  9
$USERI1
 70
     0
  9
$USERI2
 70
     0
  9
$USERI3
 70
     0
  9
$USERI4
 70
     0
  9
$USERI5
 70
     0
  9
$USERR1
 40
0.0
  9
$USERR2
 40
0.0
  9
$USERR3
 40
0.0
  9
$USERR4
 40
0.0
  9
$USERR5
 40
0.0
  9
$WORLDVIEW
 70
     1
  9
$SHADEDGE
 70
     3
  9
$SHADEDIF
 70
    70
  9
$TILEMODE
 70
     1
  9
$MAXACTVP
 70
    64
  9
$PINSBASE
 10
0.0
 20
0.0
 30
0.0
  9
$PLIMCHECK
 70
     0
  9
$PEXTMIN
 10
1.000000000000000E+20
 20
1.000000000000000E+20
 30
1.000000000000000E+20
  9
$PEXTMAX
 10
-1.000000000000000E+20
 20
-1.000000000000000E+20
 30
-1.000000000000000E+20
  9
$PLIMMIN
 10
0.0
 20
0.0
  9
$PLIMMAX
 10
420.0
 20
297.0
  9
$UNITMODE
 70
     0
  9
$VISRETAIN
 70
     1
  9
$PLINEGEN
 70
     0
  9
$PSLTSCALE
 70
     1
  9
$TREEDEPTH
 70
  3020
  9
$PICKSTYLE
 70
     1
  9
$CMLSTYLE
  2
STANDARD
  9
$CMLJUST
 70
     0
  9
$CMLSCALE
 40
20.0
  9
$SAVEIMAGES
 70
     1
  0
ENDSEC
  0
SECTION
  2
CLASSES
  0
CLASS
  1
ACDBDICTIONARYWDFLT
  2
AcDbDictionaryWithDefault
  3
ObjectDBX Classes
 90
    32768
280
     0
281
     0
  0
CLASS
  1
VISUALSTYLE
  2
AcDbVisualStyle
  3
ObjectDBX Classes
 90
     4095
280
     0
281
     0
  0
CLASS
  1
MATERIAL
  2
AcDbMaterial
  3
ObjectDBX Classes
 90
     1153
280
     0
281
     0
  0
CLASS
  1
SCALE
  2
AcDbScale
  3
ObjectDBX Classes
 90
     1153
280
     0
281
     0
  0
CLASS
  1
SUN
  2
AcDbSun
  3
SCENEOE
 90
     1153
280
     0
281
     0
  0
CLASS
  1
TABLESTYLE
  2
AcDbTableStyle
  3
ObjectDBX Classes
 90
     4095
280
     0
281
     0
  0
CLASS
  1
DICTIONARYVAR
  2
AcDbDictionaryVar
  3
ObjectDBX Classes
 90
        0
280
     0
281
     0
  0
CLASS
  1
XRECORD
  2
AcDbXrecord
  3
ObjectDBX Classes
 90
    32768
280
     0
281
     0
  0
CLASS
  1
LWPOLYLINE
  2
AcDbPolyline
  3
ObjectDBX Classes
 90
    32768
280
     0
281
     1
  0
CLASS
  1
HATCH
  2
AcDbHatch
  3
ObjectDBX Classes
 90
    32768
280
     0
281
     1
  0
CLASS
  1
ACDBPLACEHOLDER
  2
AcDbPlaceHolder
  3
ObjectDBX Classes
 90
        0
280
     0
281
     0
  0
CLASS
  1
LAYOUT
  2
AcDbLayout
  3
ObjectDBX Classes
 90
        0
280
     0
281
     0
  0
ENDSEC
  0
SECTION
  2
TABLES
  0
TABLE
  2
VPORT
  5
8
330
0
100
AcDbSymbolTable
 70
     1
  0
VPORT
  5
29
330
8
100
AcDbSymbolTableRecord
100
AcDbViewportTableRecord
  2
*ACTIVE
 70
     0
 10
0.0
 20
0.0
 11
1.0
 21
1.0
 12
556.5419006035104
 22
489.4439151480168
 13
0.0
 23
0.0
 14
10.0
 24
10.0
 15
10.0
 25
10.0
 16
0.0
 26
0.0
 36
1.0
 17
0.0
 27
0.0
 37
0.0
 40
910.4549089981587
 41
0.9479071657824618
 42
50.0
 43
0.0
 44
0.0
 50
0.0
 51
0.0
 71
     0
 72
   100
 73
     1
 74
     3
 75
     0
 76
     0
 77
     0
 78
     0
  0
ENDTAB
  0
TABLE
  2
LTYPE
  5
5
330
0
100
AcDbSymbolTable
 70
     1
  0
LTYPE
  5
14
330
5
100
AcDbSymbolTableRecord
100
AcDbLinetypeTableRecord
  2
BYBLOCK
 70
     0
  3

 72
    65
 73
     0
 40
0.0
  0
LTYPE
  5
15
330
5
100
AcDbSymbolTableRecord
100
AcDbLinetypeTableRecord
  2
BYLAYER
 70
     0
  3

 72
    65
 73
     0
 40
0.0
  0
LTYPE
  5
16
330
5
100
AcDbSymbolTableRecord
100
AcDbLinetypeTableRecord
  2
CONTINUOUS
 70
     0
  3
Solid line
 72
    65
 73
     0
 40
0.0
  0
ENDTAB
  0
TABLE
  2
LAYER
  5
2
330
0
100
AcDbSymbolTable
 70
     4
  0
LAYER
  5
10
330
2
100
AcDbSymbolTableRecord
100
AcDbLayerTableRecord
  2
0
 70
     0
 62
     7
  6
CONTINUOUS
  0
LAYER
  5
72
330
2
100
AcDbSymbolTableRecord
100
AcDbLayerTableRecord
  2
ANNOTATION_TEXT
 70
     0
 62
     7
  6
CONTINUOUS
  0
LAYER
  5
79
330
2
100
AcDbSymbolTableRecord
100
AcDbLayerTableRecord
  2
VISIBLE
 70
     0
 62
     7
  6
CONTINUOUS
  0
LAYER
  5
7A
330
2
100
AcDbSymbolTableRecord
100
AcDbLayerTableRecord
  2
TANGENT_LINES
 70
     0
 62
     7
  6
CONTINUOUS
  0
ENDTAB
  0
TABLE
  2
STYLE
  5
3
330
0
100
AcDbSymbolTable
 70
     3
  0
STYLE
  5
11
330
3
100
AcDbSymbolTableRecord
100
AcDbTextStyleTableRecord
  2
STANDARD
 70
     0
 40
0.0
 41
1.0
 50
0.0
 71
     0
 42
3.5
  3
txt
  4

  0
STYLE
  5
6E
330
3
100
AcDbSymbolTableRecord
100
AcDbTextStyleTableRecord
  2
ONSHAPE-STANDARD
 70
     0
 40
0.0
 41
1.0
 50
0.0
 71
     0
 42
3.5
  3
NotoSans-Regular.ttf
  4

1001
ACAD
1000
Noto Sans
1071
        0
  0
STYLE
  5
70
330
3
100
AcDbSymbolTableRecord
100
AcDbTextStyleTableRecord
  2
ONSHAPE-STANDARD-DIMENSION
 70
     0
 40
0.0
 41
1.0
 50
0.0
 71
     0
 42
3.5
  3

  4

1001
ACAD
1000
Noto Sans
1071
        0
  0
ENDTAB
  0
TABLE
  2
VIEW
  5
6
330
0
100
AcDbSymbolTable
 70
     0
  0
ENDTAB
  0
TABLE
  2
UCS
  5
7
330
0
100
AcDbSymbolTable
 70
     0
  0
ENDTAB
  0
TABLE
  2
APPID
  5
9
330
0
100
AcDbSymbolTable
 70
     1
  0
APPID
  5
12
330
9
100
AcDbSymbolTableRecord
100
AcDbRegAppTableRecord
  2
ACAD
 70
     0
  0
ENDTAB
  0
TABLE
  2
DIMSTYLE
  5
A
330
0
100
AcDbSymbolTable
 70
     2
  0
DIMSTYLE
105
27
330
A
100
AcDbSymbolTableRecord
100
AcDbDimStyleTableRecord
  2
ISO-25
 70
     0
  3

  4

  5

  6

  7

 40
1.0
 41
2.5
 42
0.625
 43
3.75
 44
1.25
 45
0.0
 46
0.0
 47
0.0
 48
0.0
140
2.5
141
2.5
142
0.0
143
0.03937007874016
144
1.0
145
0.0
146
1.0
147
0.625
 71
     0
 72
     0
 73
     0
 74
     0
 75
     0
 76
     0
 77
     1
 78
     8
170
     0
171
     3
172
     1
173
     0
174
     0
175
     0
176
     0
177
     0
178
     0
270
     2
271
     2
272
     2
273
     2
274
     3
340
11
275
     0
280
     0
281
     0
282
     0
283
     0
284
     8
285
     0
286
     0
287
     3
288
     0
  0
DIMSTYLE
105
6F
330
A
100
AcDbSymbolTableRecord
100
AcDbDimStyleTableRecord
  2
ONSHAPE-ISO-25
 70
     0
  3

  4

  5

  6

  7

 40
1.0
 41
2.5
 42
0.625
 43
3.75
 44
1.25
 45
0.0
 46
0.0
 47
0.0
 48
0.0
140
3.5
141
2.5
142
0.0
143
0.03937
144
1.0
145
0.0
146
1.0
147
0.625
 71
     0
 72
     0
 73
     0
 74
     0
 75
     0
 76
     0
 77
     1
 78
     8
170
     0
171
     3
172
     1
173
     0
174
     0
175
     0
176
     0
177
     0
178
     0
179
     1
270
     2
271
     2
272
     2
273
     2
274
     3
340
70
275
     0
280
     0
281
     0
282
     0
283
     0
284
     8
285
     8
286
     0
287
     3
288
     1
  0
ENDTAB
  0
TABLE
  2
BLOCK_RECORD
  5
1
330
0
100
AcDbSymbolTable
 70
     1
  0
BLOCK_RECORD
  5
1F
330
1
100
AcDbSymbolTableRecord
100
AcDbBlockTableRecord
  2
*MODEL_SPACE
  0
BLOCK_RECORD
  5
1B
330
1
100
AcDbSymbolTableRecord
100
AcDbBlockTableRecord
  2
*PAPER_SPACE
  0
ENDTAB
  0
ENDSEC
  0
SECTION
  2
BLOCKS
  0
BLOCK
  5
20
330
1F
100
AcDbEntity
  8
0
100
AcDbBlockBegin
  2
*MODEL_SPACE
 70
     0
 10
0.0
 20
0.0
 30
0.0
  3
*MODEL_SPACE
  1

  0
ENDBLK
  5
21
330
1F
100
AcDbEntity
  8
0
100
AcDbBlockEnd
  0
BLOCK
  5
1C
330
1B
100
AcDbEntity
 67
     1
  8
0
100
AcDbBlockBegin
  2
*PAPER_SPACE
 70
     0
 10
0.0
 20
0.0
 30
0.0
  3
*PAPER_SPACE
  1

  0
ENDBLK
  5
1D
330
1B
100
AcDbEntity
 67
     1
  8
0
100
AcDbBlockEnd
  0
ENDSEC
  0
SECTION
  2
ENTITIES
  0
MTEXT
  5
71
330
1F
100
AcDbEntity
  8
ANNOTATION_TEXT
 60
     1
100
AcDbMText
 10
543.4895808186212
 20
662.9953411275063
 30
0.0
 40
3.5
 41
0.0
 71
     2
 72
     1
  1

  7
ONSHAPE-STANDARD
1001
ACAD
1000
ACAD_MTEXT_DEFINED_HEIGHT_BEGIN
1070
    46
1040
3.5
1000
ACAD_MTEXT_DEFINED_HEIGHT_END
  0
MTEXT
  5
75
330
1F
100
AcDbEntity
  8
ANNOTATION_TEXT
 60
     1
100
AcDbMText
 10
368.3689307480614
 20
58.71134072634946
 30
0.0
 40
3.5
 41
0.0
 71
     2
 72
     1
  1

  7
ONSHAPE-STANDARD
1001
ACAD
1000
ACAD_MTEXT_DEFINED_HEIGHT_BEGIN
1070
    46
1040
3.5
1000
ACAD_MTEXT_DEFINED_HEIGHT_END
  0
MTEXT
  5
76
330
1F
100
AcDbEntity
  8
ANNOTATION_TEXT
 60
     1
100
AcDbMText
 10
632.4654958292282
 20
53.30665732704476
 30
0.0
 40
3.5
 41
0.0
 71
     2
 72
     1
  1

  7
ONSHAPE-STANDARD
1001
ACAD
1000
ACAD_MTEXT_DEFINED_HEIGHT_BEGIN
1070
    46
1040
3.5
1000
ACAD_MTEXT_DEFINED_HEIGHT_END
  0
MTEXT
  5
77
330
1F
100
AcDbEntity
  8
ANNOTATION_TEXT
 60
     1
100
AcDbMText
 10
889.5942203883994
 20
31.69248916852727
 30
0.0
 40
3.5
 41
0.0
 71
     2
 72
     1
  1

  7
ONSHAPE-STANDARD
1001
ACAD
1000
ACAD_MTEXT_DEFINED_HEIGHT_BEGIN
1070
    46
1040
3.5
1000
ACAD_MTEXT_DEFINED_HEIGHT_END
  0
MTEXT
  5
78
330
1F
100
AcDbEntity
  8
ANNOTATION_TEXT
 60
     1
100
AcDbMText
 10
544.6242090646779
 20
397.759581507614
 30
0.0
 40
3.5
 41
0.0
 71
     2
 72
     1
  1

  7
ONSHAPE-STANDARD
1001
ACAD
1000
ACAD_MTEXT_DEFINED_HEIGHT_BEGIN
1070
    46
1040
3.5
1000
ACAD_MTEXT_DEFINED_HEIGHT_END
  0
ARC
  5
7B
330
1F
100
AcDbEntity
  8
VISIBLE
100
AcDbCircle
 10
151.4895808186212
 20
917.7453411275063
 30
0.0
 40
13.0
100
AcDbArc
 50
90.0
 51
180.0
  0
LINE
  5
7C
330
1F
100
AcDbEntity
  8
VISIBLE
100
AcDbLine
 10
935.4895808186212
 20
930.7453411275063
 30
0.0
 11
151.4895808186212
 21
930.7453411275063
 31
0.0
  0
ARC
  5
7D
330
1F
100
AcDbEntity
  8
VISIBLE
100
AcDbCircle
 10
935.4895808186212
 20
917.7453411275063
 30
0.0
 40
13.0
100
AcDbArc
 50
0.0
 51
90.0
  0
LINE
  5
7E
330
1F
100
AcDbEntity
  8
VISIBLE
100
AcDbLine
 10
948.4895808186212
 20
723.7453411275063
 30
0.0
 11
948.4895808186212
 21
917.7453411275063
 31
0.0
  0
ARC
  5
7F
330
1F
100
AcDbEntity
  8
VISIBLE
100
AcDbCircle
 10
935.4895808186212
 20
723.7453411275063
 30
0.0
 40
13.0
100
AcDbArc
 50
270.0
 51
0.0
  0
LINE
  5
80
330
1F
100
AcDbEntity
  8
VISIBLE
100
AcDbLine
 10
151.4895808186212
 20
710.7453411275063
 30
0.0
 11
935.4895808186212
 21
710.7453411275063
 31
0.0
  0
ARC
  5
81
330
1F
100
AcDbEntity
  8
VISIBLE
100
AcDbCircle
 10
151.4895808186212
 20
723.7453411275063
 30
0.0
 40
13.0
100
AcDbArc
 50
180.0
 51
270.0
  0
LINE
  5
82
330
1F
100
AcDbEntity
  8
VISIBLE
100
AcDbLine
 10
138.4895808186212
 20
917.7453411275063
 30
0.0
 11
138.4895808186212
 21
723.7453411275063
 31
0.0
  0
LINE
  5
83
330
1F
100
AcDbEntity
  8
VISIBLE
100
AcDbLine
 10
860.1301473985677
 20
751.3953411275063
 30
0.0
 11
902.1301473985677
 21
751.3953411275063
 31
0.0
  0
ARC
  5
84
330
1F
100
AcDbEntity
  8
VISIBLE
100
AcDbCircle
 10
-860.1301473985677
 20
743.1453411275063
 30
0.0
 40
8.25
210
0.0
220
0.0
230
-1.0
100
AcDbArc
 50
270.0
 51
90.0
  0
LINE
  5
85
330
1F
100
AcDbEntity
  8
VISIBLE
100
AcDbLine
 10
902.1301473985677
 20
734.8953411275063
 30
0.0
 11
860.1301473985677
 21
734.8953411275063
 31
0.0
  0
ARC
  5
86
330
1F
100
AcDbEntity
  8
VISIBLE
100
AcDbCircle
 10
-902.1301473985677
 20
743.1453411275063
 30
0.0
 40
8.25
210
0.0
220
0.0
230
-1.0
100
AcDbArc
 50
90.0
 51
270.0
  0
LINE
  5
87
330
1F
100
AcDbEntity
  8
VISIBLE
100
AcDbLine
 10
166.1301473985677
 20
751.3953411275063
 30
0.0
 11
208.1301473985678
 21
751.3953411275063
 31
0.0
  0
ARC
  5
88
330
1F
100
AcDbEntity
  8
VISIBLE
100
AcDbCircle
 10
-166.1301473985677
 20
743.1453411275063
 30
0.0
 40
8.2499999999998
210
0.0
220
0.0
230
-1.0
100
AcDbArc
 50
270.0
 51
90.0
  0
LINE
  5
89
330
1F
100
AcDbEntity
  8
VISIBLE
100
AcDbLine
 10
208.1301473985678
 20
734.8953411275063
 30
0.0
 11
166.1301473985677
 21
734.8953411275063
 31
0.0
  0
ARC
  5
8A
330
1F
100
AcDbEntity
  8
VISIBLE
100
AcDbCircle
 10
-208.1301473985678
 20
743.1453411275063
 30
0.0
 40
8.249999999999789
210
0.0
220
0.0
230
-1.0
100
AcDbArc
 50
90.0
 51
270.0
  0
ARC
  5
8B
330
1F
100
AcDbEntity
  8
VISIBLE
100
AcDbCircle
 10
-240.4895808186212
 20
913.7453411275063
 30
0.0
 40
12.0
210
0.0
220
0.0
230
-1.0
100
AcDbArc
 50
0.0
 51
180.0
  0
LINE
  5
8C
330
1F
100
AcDbEntity
  8
VISIBLE
100
AcDbLine
 10
228.4895808186212
 20
727.7453411275063
 30
0.0
 11
228.4895808186212
 21
913.7453411275063
 31
0.0
  0
ARC
  5
8D
330
1F
100
AcDbEntity
  8
VISIBLE
100
AcDbCircle
 10
-240.4895808186212
 20
727.7453411275063
 30
0.0
 40
12.0
210
0.0
220
0.0
230
-1.0
100
AcDbArc
 50
180.0
 51
0.0
  0
LINE
  5
8E
330
1F
100
AcDbEntity
  8
VISIBLE
100
AcDbLine
 10
252.4895808186212
 20
913.7453411275063
 30
0.0
 11
252.4895808186212
 21
727.7453411275063
 31
0.0
  0
ARC
  5
8F
330
1F
100
AcDbEntity
  8
VISIBLE
100
AcDbCircle
 10
-269.4895808186212
 20
913.7453411275063
 30
0.0
 40
12.0
210
0.0
220
0.0
230
-1.0
100
AcDbArc
 50
0.0
 51
180.0
  0
LINE
  5
90
330
1F
100
AcDbEntity
  8
VISIBLE
100
AcDbLine
 10
257.4895808186212
 20
727.7453411275063
 30
0.0
 11
257.4895808186212
 21
913.7453411275063
 31
0.0
  0
ARC
  5
91
330
1F
100
AcDbEntity
  8
VISIBLE
100
AcDbCircle
 10
-269.4895808186212
 20
727.7453411275063
 30
0.0
 40
12.0
210
0.0
220
0.0
230
-1.0
100
AcDbArc
 50
180.0
 51
0.0
  0
LINE
  5
92
330
1F
100
AcDbEntity
  8
VISIBLE
100
AcDbLine
 10
281.4895808186212
 20
913.7453411275063
 30
0.0
 11
281.4895808186212
 21
727.7453411275063
 31
0.0
  0
ARC
  5
93
330
1F
100
AcDbEntity
  8
VISIBLE
100
AcDbCircle
 10
-298.4895808186212
 20
913.7453411275063
 30
0.0
 40
12.0
210
0.0
220
0.0
230
-1.0
100
AcDbArc
 50
0.0
 51
180.0
  0
LINE
  5
94
330
1F
100
AcDbEntity
  8
VISIBLE
100
AcDbLine
 10
286.4895808186212
 20
727.7453411275063
 30
0.0
 11
286.4895808186212
 21
913.7453411275063
 31
0.0
  0
ARC
  5
95
330
1F
100
AcDbEntity
  8
VISIBLE
100
AcDbCircle
 10
-298.4895808186212
 20
727.7453411275063
 30
0.0
 40
12.0
210
0.0
220
0.0
230
-1.0
100
AcDbArc
 50
180.0
 51
0.0
  0
LINE
  5
96
330
1F
100
AcDbEntity
  8
VISIBLE
100
AcDbLine
 10
310.4895808186212
 20
913.7453411275063
 30
0.0
 11
310.4895808186212
 21
727.7453411275063
 31
0.0
  0
ARC
  5
97
330
1F
100
AcDbEntity
  8
VISIBLE
100
AcDbCircle
 10
-327.4895808186212
 20
913.7453411275063
 30
0.0
 40
12.0
210
0.0
220
0.0
230
-1.0
100
AcDbArc
 50
0.0
 51
180.0
  0
LINE
  5
98
330
1F
100
AcDbEntity
  8
VISIBLE
100
AcDbLine
 10
315.4895808186212
 20
727.7453411275063
 30
0.0
 11
315.4895808186212
 21
913.7453411275063
 31
0.0
  0
ARC
  5
99
330
1F
100
AcDbEntity
  8
VISIBLE
100
AcDbCircle
 10
-327.4895808186212
 20
727.7453411275063
 30
0.0
 40
12.0
210
0.0
220
0.0
230
-1.0
100
AcDbArc
 50
180.0
 51
0.0
  0
LINE
  5
9A
330
1F
100
AcDbEntity
  8
VISIBLE
100
AcDbLine
 10
339.4895808186212
 20
913.7453411275063
 30
0.0
 11
339.4895808186212
 21
727.7453411275063
 31
0.0
  0
ARC
  5
9B
330
1F
100
AcDbEntity
  8
VISIBLE
100
AcDbCircle
 10
-356.4895808186212
 20
913.7453411275063
 30
0.0
 40
12.0
210
0.0
220
0.0
230
-1.0
100
AcDbArc
 50
0.0
 51
180.0
  0
LINE
  5
9C
330
1F
100
AcDbEntity
  8
VISIBLE
100
AcDbLine
 10
344.4895808186212
 20
727.7453411275063
 30
0.0
 11
344.4895808186212
 21
913.7453411275063
 31
0.0
  0
ARC
  5
9D
330
1F
100
AcDbEntity
  8
VISIBLE
100
AcDbCircle
 10
-356.4895808186212
 20
727.7453411275063
 30
0.0
 40
12.0
210
0.0
220
0.0
230
-1.0
100
AcDbArc
 50
180.0
 51
0.0
  0
LINE
  5
9E
330
1F
100
AcDbEntity
  8
VISIBLE
100
AcDbLine
 10
368.4895808186212
 20
913.7453411275063
 30
0.0
 11
368.4895808186212
 21
727.7453411275063
 31
0.0
  0
ARC
  5
9F
330
1F
100
AcDbEntity
  8
VISIBLE
100
AcDbCircle
 10
-385.4895808186212
 20
913.7453411275063
 30
0.0
 40
12.0
210
0.0
220
0.0
230
-1.0
100
AcDbArc
 50
0.0
 51
180.0
  0
LINE
  5
A0
330
1F
100
AcDbEntity
  8
VISIBLE
100
AcDbLine
 10
373.4895808186212
 20
727.7453411275063
 30
0.0
 11
373.4895808186212
 21
913.7453411275063
 31
0.0
  0
ARC
  5
A1
330
1F
100
AcDbEntity
  8
VISIBLE
100
AcDbCircle
 10
-385.4895808186212
 20
727.7453411275063
 30
0.0
 40
12.0
210
0.0
220
0.0
230
-1.0
100
AcDbArc
 50
180.0
 51
0.0
  0
LINE
  5
A2
330
1F
100
AcDbEntity
  8
VISIBLE
100
AcDbLine
 10
397.4895808186212
 20
913.7453411275063
 30
0.0
 11
397.4895808186212
 21
727.7453411275063
 31
0.0
  0
ARC
  5
A3
330
1F
100
AcDbEntity
  8
VISIBLE
100
AcDbCircle
 10
-414.4895808186212
 20
913.7453411275063
 30
0.0
 40
12.0
210
0.0
220
0.0
230
-1.0
100
AcDbArc
 50
0.0
 51
180.0
  0
LINE
  5
A4
330
1F
100
AcDbEntity
  8
VISIBLE
100
AcDbLine
 10
402.4895808186212
 20
727.7453411275063
 30
0.0
 11
402.4895808186212
 21
913.7453411275063
 31
0.0
  0
ARC
  5
A5
330
1F
100
AcDbEntity
  8
VISIBLE
100
AcDbCircle
 10
-414.4895808186212
 20
727.7453411275063
 30
0.0
 40
12.0
210
0.0
220
0.0
230
-1.0
100
AcDbArc
 50
180.0
 51
0.0
  0
LINE
  5
A6
330
1F
100
AcDbEntity
  8
VISIBLE
100
AcDbLine
 10
426.4895808186212
 20
913.7453411275063
 30
0.0
 11
426.4895808186212
 21
727.7453411275063
 31
0.0
  0
ARC
  5
A7
330
1F
100
AcDbEntity
  8
VISIBLE
100
AcDbCircle
 10
-443.4895808186212
 20
913.7453411275063
 30
0.0
 40
12.0
210
0.0
220
0.0
230
-1.0
100
AcDbArc
 50
0.0
 51
180.0
  0
LINE
  5
A8
330
1F
100
AcDbEntity
  8
VISIBLE
100
AcDbLine
 10
431.4895808186212
 20
727.7453411275063
 30
0.0
 11
431.4895808186212
 21
913.7453411275063
 31
0.0
  0
ARC
  5
A9
330
1F
100
AcDbEntity
  8
VISIBLE
100
AcDbCircle
 10
-443.4895808186212
 20
727.7453411275063
 30
0.0
 40
12.0
210
0.0
220
0.0
230
-1.0
100
AcDbArc
 50
180.0
 51
0.0
  0
LINE
  5
AA
330
1F
100
AcDbEntity
  8
VISIBLE
100
AcDbLine
 10
455.4895808186212
 20
913.7453411275063
 30
0.0
 11
455.4895808186212
 21
727.7453411275063
 31
0.0
  0
ARC
  5
AB
330
1F
100
AcDbEntity
  8
VISIBLE
100
AcDbCircle
 10
-472.4895808186212
 20
913.7453411275063
 30
0.0
 40
12.0
210
0.0
220
0.0
230
-1.0
100
AcDbArc
 50
0.0
 51
180.0
  0
LINE
  5
AC
330
1F
100
AcDbEntity
  8
VISIBLE
100
AcDbLine
 10
460.4895808186212
 20
727.7453411275063
 30
0.0
 11
460.4895808186212
 21
913.7453411275063
 31
0.0
  0
ARC
  5
AD
330
1F
100
AcDbEntity
  8
VISIBLE
100
AcDbCircle
 10
-472.4895808186212
 20
727.7453411275063
 30
0.0
 40
12.0
210
0.0
220
0.0
230
-1.0
100
AcDbArc
 50
180.0
 51
0.0
  0
LINE
  5
AE
330
1F
100
AcDbEntity
  8
VISIBLE
100
AcDbLine
 10
484.4895808186212
 20
913.7453411275063
 30
0.0
 11
484.4895808186212
 21
727.7453411275063
 31
0.0
  0
ARC
  5
AF
330
1F
100
AcDbEntity
  8
VISIBLE
100
AcDbCircle
 10
-501.4895808186212
 20
913.7453411275063
 30
0.0
 40
12.0
210
0.0
220
0.0
230
-1.0
100
AcDbArc
 50
0.0
 51
180.0
  0
LINE
  5
B0
330
1F
100
AcDbEntity
  8
VISIBLE
100
AcDbLine
 10
489.4895808186212
 20
727.7453411275063
 30
0.0
 11
489.4895808186212
 21
913.7453411275063
 31
0.0
  0
ARC
  5
B1
330
1F
100
AcDbEntity
  8
VISIBLE
100
AcDbCircle
 10
-501.4895808186212
 20
727.7453411275063
 30
0.0
 40
12.0
210
0.0
220
0.0
230
-1.0
100
AcDbArc
 50
180.0
 51
0.0
  0
LINE
  5
B2
330
1F
100
AcDbEntity
  8
VISIBLE
100
AcDbLine
 10
513.4895808186212
 20
913.7453411275063
 30
0.0
 11
513.4895808186212
 21
727.7453411275063
 31
0.0
  0
ARC
  5
B3
330
1F
100
AcDbEntity
  8
VISIBLE
100
AcDbCircle
 10
-530.4895808186214
 20
913.7453411275063
 30
0.0
 40
12.0
210
0.0
220
0.0
230
-1.0
100
AcDbArc
 50
0.0
 51
180.0
  0
LINE
  5
B4
330
1F
100
AcDbEntity
  8
VISIBLE
100
AcDbLine
 10
518.4895808186212
 20
727.7453411275063
 30
0.0
 11
518.4895808186214
 21
913.7453411275063
 31
0.0
  0
ARC
  5
B5
330
1F
100
AcDbEntity
  8
VISIBLE
100
AcDbCircle
 10
-530.4895808186214
 20
727.7453411275063
 30
0.0
 40
12.0
210
0.0
220
0.0
230
-1.0
100
AcDbArc
 50
180.0
 51
0.0
  0
LINE
  5
B6
330
1F
100
AcDbEntity
  8
VISIBLE
100
AcDbLine
 10
542.4895808186214
 20
913.7453411275063
 30
0.0
 11
542.4895808186214
 21
727.7453411275063
 31
0.0
  0
ARC
  5
B7
330
1F
100
AcDbEntity
  8
VISIBLE
100
AcDbCircle
 10
-559.4895808186214
 20
913.7453411275063
 30
0.0
 40
12.0
210
0.0
220
0.0
230
-1.0
100
AcDbArc
 50
0.0
 51
180.0
  0
LINE
  5
B8
330
1F
100
AcDbEntity
  8
VISIBLE
100
AcDbLine
 10
547.4895808186214
 20
727.7453411275063
 30
0.0
 11
547.4895808186216
 21
913.7453411275063
 31
0.0
  0
ARC
  5
B9
330
1F
100
AcDbEntity
  8
VISIBLE
100
AcDbCircle
 10
-559.4895808186214
 20
727.7453411275063
 30
0.0
 40
12.0
210
0.0
220
0.0
230
-1.0
100
AcDbArc
 50
180.0
 51
0.0
  0
LINE
  5
BA
330
1F
100
AcDbEntity
  8
VISIBLE
100
AcDbLine
 10
571.4895808186212
 20
913.7453411275063
 30
0.0
 11
571.4895808186212
 21
727.7453411275063
 31
0.0
  0
ARC
  5
BB
330
1F
100
AcDbEntity
  8
VISIBLE
100
AcDbCircle
 10
-588.4895808186212
 20
913.7453411275063
 30
0.0
 40
12.0
210
0.0
220
0.0
230
-1.0
100
AcDbArc
 50
0.0
 51
180.0
  0
LINE
  5
BC
330
1F
100
AcDbEntity
  8
VISIBLE
100
AcDbLine
 10
576.4895808186212
 20
727.7453411275063
 30
0.0
 11
576.4895808186212
 21
913.7453411275063
 31
0.0
  0
ARC
  5
BD
330
1F
100
AcDbEntity
  8
VISIBLE
100
AcDbCircle
 10
-588.4895808186212
 20
727.7453411275063
 30
0.0
 40
12.0
210
0.0
220
0.0
230
-1.0
100
AcDbArc
 50
180.0
 51
0.0
  0
LINE
  5
BE
330
1F
100
AcDbEntity
  8
VISIBLE
100
AcDbLine
 10
600.4895808186212
 20
913.7453411275063
 30
0.0
 11
600.4895808186212
 21
727.7453411275063
 31
0.0
  0
ARC
  5
BF
330
1F
100
AcDbEntity
  8
VISIBLE
100
AcDbCircle
 10
-617.4895808186212
 20
913.7453411275063
 30
0.0
 40
12.0
210
0.0
220
0.0
230
-1.0
100
AcDbArc
 50
0.0
 51
180.0
  0
LINE
  5
C0
330
1F
100
AcDbEntity
  8
VISIBLE
100
AcDbLine
 10
605.4895808186212
 20
727.7453411275063
 30
0.0
 11
605.4895808186212
 21
913.7453411275063
 31
0.0
  0
ARC
  5
C1
330
1F
100
AcDbEntity
  8
VISIBLE
100
AcDbCircle
 10
-617.4895808186212
 20
727.7453411275063
 30
0.0
 40
12.0
210
0.0
220
0.0
230
-1.0
100
AcDbArc
 50
180.0
 51
0.0
  0
LINE
  5
C2
330
1F
100
AcDbEntity
  8
VISIBLE
100
AcDbLine
 10
629.4895808186212
 20
913.7453411275063
 30
0.0
 11
629.4895808186212
 21
727.7453411275063
 31
0.0
  0
ARC
  5
C3
330
1F
100
AcDbEntity
  8
VISIBLE
100
AcDbCircle
 10
-646.4895808186212
 20
913.7453411275063
 30
0.0
 40
12.0
210
0.0
220
0.0
230
-1.0
100
AcDbArc
 50
0.0
 51
180.0
  0
LINE
  5
C4
330
1F
100
AcDbEntity
  8
VISIBLE
100
AcDbLine
 10
634.4895808186212
 20
727.7453411275063
 30
0.0
 11
634.4895808186212
 21
913.7453411275063
 31
0.0
  0
ARC
  5
C5
330
1F
100
AcDbEntity
  8
VISIBLE
100
AcDbCircle
 10
-646.4895808186212
 20
727.7453411275063
 30
0.0
 40
12.0
210
0.0
220
0.0
230
-1.0
100
AcDbArc
 50
180.0
 51
0.0
  0
LINE
  5
C6
330
1F
100
AcDbEntity
  8
VISIBLE
100
AcDbLine
 10
658.4895808186212
 20
913.7453411275063
 30
0.0
 11
658.4895808186212
 21
727.7453411275063
 31
0.0
  0
ARC
  5
C7
330
1F
100
AcDbEntity
  8
VISIBLE
100
AcDbCircle
 10
-707.4895808186212
 20
755.7453411275063
 30
0.0
 40
25.0
210
0.0
220
0.0
230
-1.0
100
AcDbArc
 50
270.0
 51
0.0
  0
LINE
  5
C8
330
1F
100
AcDbEntity
  8
VISIBLE
100
AcDbLine
 10
732.4895808186212
 20
730.7453411275063
 30
0.0
 11
707.4895808186212
 21
730.7453411275063
 31
0.0
  0
ARC
  5
C9
330
1F
100
AcDbEntity
  8
VISIBLE
100
AcDbCircle
 10
-732.4895808186212
 20
755.7453411275063
 30
0.0
 40
25.0
210
0.0
220
0.0
230
-1.0
100
AcDbArc
 50
180.0
 51
270.0
  0
LINE
  5
CA
330
1F
100
AcDbEntity
  8
VISIBLE
100
AcDbLine
 10
757.4895808186212
 20
885.7453411275063
 30
0.0
 11
757.4895808186212
 21
755.7453411275063
 31
0.0
  0
ARC
  5
CB
330
1F
100
AcDbEntity
  8
VISIBLE
100
AcDbCircle
 10
-732.4895808186212
 20
885.7453411275063
 30
0.0
 40
25.0
210
0.0
220
0.0
230
-1.0
100
AcDbArc
 50
90.0
 51
180.0
  0
LINE
  5
CC
330
1F
100
AcDbEntity
  8
VISIBLE
100
AcDbLine
 10
707.4895808186212
 20
910.7453411275063
 30
0.0
 11
732.4895808186212
 21
910.7453411275063
 31
0.0
  0
ARC
  5
CD
330
1F
100
AcDbEntity
  8
VISIBLE
100
AcDbCircle
 10
-707.4895808186212
 20
885.7453411275063
 30
0.0
 40
25.0
210
0.0
220
0.0
230
-1.0
100
AcDbArc
 50
0.0
 51
90.0
  0
LINE
  5
CE
330
1F
100
AcDbEntity
  8
VISIBLE
100
AcDbLine
 10
682.4895808186212
 20
755.7453411275063
 30
0.0
 11
682.4895808186212
 21
885.7453411275063
 31
0.0
  0
ARC
  5
CF
330
1F
100
AcDbEntity
  8
VISIBLE
100
AcDbCircle
 10
-798.4895808186212
 20
755.7453411275063
 30
0.0
 40
25.0
210
0.0
220
0.0
230
-1.0
100
AcDbArc
 50
270.0
 51
0.0
  0
LINE
  5
D0
330
1F
100
AcDbEntity
  8
VISIBLE
100
AcDbLine
 10
823.4895808186212
 20
730.7453411275063
 30
0.0
 11
798.4895808186212
 21
730.7453411275063
 31
0.0
  0
ARC
  5
D1
330
1F
100
AcDbEntity
  8
VISIBLE
100
AcDbCircle
 10
-823.4895808186212
 20
755.7453411275063
 30
0.0
 40
25.0
210
0.0
220
0.0
230
-1.0
100
AcDbArc
 50
180.0
 51
270.0
  0
LINE
  5
D2
330
1F
100
AcDbEntity
  8
VISIBLE
100
AcDbLine
 10
848.4895808186212
 20
885.7453411275063
 30
0.0
 11
848.4895808186212
 21
755.7453411275063
 31
0.0
  0
ARC
  5
D3
330
1F
100
AcDbEntity
  8
VISIBLE
100
AcDbCircle
 10
-823.4895808186212
 20
885.7453411275063
 30
0.0
 40
25.0
210
0.0
220
0.0
230
-1.0
100
AcDbArc
 50
90.0
 51
180.0
  0
LINE
  5
D4
330
1F
100
AcDbEntity
  8
VISIBLE
100
AcDbLine
 10
798.4895808186212
 20
910.7453411275063
 30
0.0
 11
823.4895808186212
 21
910.7453411275063
 31
0.0
  0
ARC
  5
D5
330
1F
100
AcDbEntity
  8
VISIBLE
100
AcDbCircle
 10
-798.4895808186212
 20
885.7453411275063
 30
0.0
 40
25.0
210
0.0
220
0.0
230
-1.0
100
AcDbArc
 50
0.0
 51
90.0
  0
LINE
  5
D6
330
1F
100
AcDbEntity
  8
VISIBLE
100
AcDbLine
 10
773.4895808186212
 20
755.7453411275063
 30
0.0
 11
773.4895808186212
 21
885.7453411275063
 31
0.0
  0
LINE
  5
D7
330
1F
100
AcDbEntity
  8
TANGENT_LINES
100
AcDbLine
 10
848.4895808186212
 20
755.7453411275063
 30
0.0
 11
843.4895808186212
 21
755.7453411275063
 31
0.0
  0
LINE
  5
D8
330
1F
100
AcDbEntity
  8
VISIBLE
100
AcDbLine
 10
843.4895808186212
 20
755.7453411275063
 30
0.0
 11
843.4895808186212
 21
885.7453411275063
 31
0.0
  0
LINE
  5
D9
330
1F
100
AcDbEntity
  8
TANGENT_LINES
100
AcDbLine
 10
843.4895808186212
 20
885.7453411275063
 30
0.0
 11
848.4895808186212
 21
885.7453411275063
 31
0.0
  0
LINE
  5
DA
330
1F
100
AcDbEntity
  8
TANGENT_LINES
100
AcDbLine
 10
823.4895808186212
 20
730.7453411275063
 30
0.0
 11
823.4895808186212
 21
735.7453411275063
 31
0.0
  0
ARC
  5
DB
330
1F
100
AcDbEntity
  8
VISIBLE
100
AcDbCircle
 10
823.4895808186212
 20
755.7453411275063
 30
0.0
 40
20.0
100
AcDbArc
 50
270.0
 51
0.0
  0
ARC
  5
DC
330
1F
100
AcDbEntity
  8
VISIBLE
100
AcDbCircle
 10
823.4895808186212
 20
885.7453411275063
 30
0.0
 40
20.0
100
AcDbArc
 50
0.0
 51
90.0
  0
LINE
  5
DD
330
1F
100
AcDbEntity
  8
TANGENT_LINES
100
AcDbLine
 10
823.4895808186212
 20
905.7453411275063
 30
0.0
 11
823.4895808186212
 21
910.7453411275063
 31
0.0
  0
LINE
  5
DE
330
1F
100
AcDbEntity
  8
TANGENT_LINES
100
AcDbLine
 10
798.4895808186212
 20
730.7453411275063
 30
0.0
 11
798.4895808186212
 21
735.7453411275063
 31
0.0
  0
LINE
  5
DF
330
1F
100
AcDbEntity
  8
VISIBLE
100
AcDbLine
 10
798.4895808186212
 20
735.7453411275063
 30
0.0
 11
823.4895808186212
 21
735.7453411275063
 31
0.0
  0
LINE
  5
E0
330
1F
100
AcDbEntity
  8
VISIBLE
100
AcDbLine
 10
823.4895808186212
 20
905.7453411275063
 30
0.0
 11
798.4895808186212
 21
905.7453411275063
 31
0.0
  0
LINE
  5
E1
330
1F
100
AcDbEntity
  8
TANGENT_LINES
100
AcDbLine
 10
798.4895808186212
 20
905.7453411275063
 30
0.0
 11
798.4895808186212
 21
910.7453411275063
 31
0.0
  0
LINE
  5
E2
330
1F
100
AcDbEntity
  8
TANGENT_LINES
100
AcDbLine
 10
773.4895808186212
 20
755.7453411275063
 30
0.0
 11
778.4895808186212
 21
755.7453411275063
 31
0.0
  0
ARC
  5
E3
330
1F
100
AcDbEntity
  8
VISIBLE
100
AcDbCircle
 10
798.4895808186212
 20
755.7453411275063
 30
0.0
 40
20.0
100
AcDbArc
 50
180.0
 51
270.0
  0
ARC
  5
E4
330
1F
100
AcDbEntity
  8
VISIBLE
100
AcDbCircle
 10
798.4895808186212
 20
885.7453411275063
 30
0.0
 40
20.0
100
AcDbArc
 50
90.0
 51
180.0
  0
LINE
  5
E5
330
1F
100
AcDbEntity
  8
TANGENT_LINES
100
AcDbLine
 10
778.4895808186212
 20
885.7453411275063
 30
0.0
 11
773.4895808186212
 21
885.7453411275063
 31
0.0
  0
LINE
  5
E6
330
1F
100
AcDbEntity
  8
VISIBLE
100
AcDbLine
 10
778.4895808186212
 20
885.7453411275063
 30
0.0
 11
778.4895808186212
 21
755.7453411275063
 31
0.0
  0
LINE
  5
E7
330
1F
100
AcDbEntity
  8
TANGENT_LINES
100
AcDbLine
 10
757.4895808186212
 20
755.7453411275063
 30
0.0
 11
752.4895808186212
 21
755.7453411275063
 31
0.0
  0
LINE
  5
E8
330
1F
100
AcDbEntity
  8
VISIBLE
100
AcDbLine
 10
752.4895808186212
 20
755.7453411275063
 30
0.0
 11
752.4895808186212
 21
885.7453411275063
 31
0.0
  0
LINE
  5
E9
330
1F
100
AcDbEntity
  8
TANGENT_LINES
100
AcDbLine
 10
752.4895808186212
 20
885.7453411275063
 30
0.0
 11
757.4895808186212
 21
885.7453411275063
 31
0.0
  0
LINE
  5
EA
330
1F
100
AcDbEntity
  8
TANGENT_LINES
100
AcDbLine
 10
732.4895808186212
 20
730.7453411275063
 30
0.0
 11
732.4895808186212
 21
735.7453411275063
 31
0.0
  0
ARC
  5
EB
330
1F
100
AcDbEntity
  8
VISIBLE
100
AcDbCircle
 10
732.4895808186212
 20
755.7453411275063
 30
0.0
 40
20.0
100
AcDbArc
 50
270.0
 51
0.0
  0
ARC
  5
EC
330
1F
100
AcDbEntity
  8
VISIBLE
100
AcDbCircle
 10
732.4895808186212
 20
885.7453411275063
 30
0.0
 40
20.0
100
AcDbArc
 50
0.0
 51
90.0
  0
LINE
  5
ED
330
1F
100
AcDbEntity
  8
TANGENT_LINES
100
AcDbLine
 10
732.4895808186212
 20
905.7453411275063
 30
0.0
 11
732.4895808186212
 21
910.7453411275063
 31
0.0
  0
LINE
  5
EE
330
1F
100
AcDbEntity
  8
TANGENT_LINES
100
AcDbLine
 10
707.4895808186212
 20
730.7453411275063
 30
0.0
 11
707.4895808186212
 21
735.7453411275063
 31
0.0
  0
LINE
  5
EF
330
1F
100
AcDbEntity
  8
VISIBLE
100
AcDbLine
 10
707.4895808186212
 20
735.7453411275063
 30
0.0
 11
732.4895808186212
 21
735.7453411275063
 31
0.0
  0
LINE
  5
F0
330
1F
100
AcDbEntity
  8
VISIBLE
100
AcDbLine
 10
732.4895808186212
 20
905.7453411275063
 30
0.0
 11
707.4895808186212
 21
905.7453411275063
 31
0.0
  0
LINE
  5
F1
330
1F
100
AcDbEntity
  8
TANGENT_LINES
100
AcDbLine
 10
707.4895808186212
 20
905.7453411275063
 30
0.0
 11
707.4895808186212
 21
910.7453411275063
 31
0.0
  0
LINE
  5
F2
330
1F
100
AcDbEntity
  8
TANGENT_LINES
100
AcDbLine
 10
682.4895808186212
 20
755.7453411275063
 30
0.0
 11
687.4895808186212
 21
755.7453411275063
 31
0.0
  0
ARC
  5
F3
330
1F
100
AcDbEntity
  8
VISIBLE
100
AcDbCircle
 10
707.4895808186212
 20
755.7453411275063
 30
0.0
 40
20.0
100
AcDbArc
 50
180.0
 51
270.0
  0
ARC
  5
F4
330
1F
100
AcDbEntity
  8
VISIBLE
100
AcDbCircle
 10
707.4895808186212
 20
885.7453411275063
 30
0.0
 40
20.0
100
AcDbArc
 50
90.0
 51
180.0
  0
LINE
  5
F5
330
1F
100
AcDbEntity
  8
TANGENT_LINES
100
AcDbLine
 10
687.4895808186212
 20
885.7453411275063
 30
0.0
 11
682.4895808186212
 21
885.7453411275063
 31
0.0
  0
LINE
  5
F6
330
1F
100
AcDbEntity
  8
VISIBLE
100
AcDbLine
 10
687.4895808186212
 20
885.7453411275063
 30
0.0
 11
687.4895808186212
 21
755.7453411275063
 31
0.0
  0
LINE
  5
F7
330
1F
100
AcDbEntity
  8
VISIBLE
100
AcDbLine
 10
653.4895808186212
 20
727.7453411275063
 30
0.0
 11
653.4895808186212
 21
913.7453411275063
 31
0.0
  0
LINE
  5
F8
330
1F
100
AcDbEntity
  8
TANGENT_LINES
100
AcDbLine
 10
653.4895808186212
 20
913.7453411275063
 30
0.0
 11
658.4895808186212
 21
913.7453411275063
 31
0.0
  0
LINE
  5
F9
330
1F
100
AcDbEntity
  8
TANGENT_LINES
100
AcDbLine
 10
658.4895808186212
 20
727.7453411275063
 30
0.0
 11
653.4895808186212
 21
727.7453411275063
 31
0.0
  0
ARC
  5
FA
330
1F
100
AcDbEntity
  8
VISIBLE
100
AcDbCircle
 10
646.4895808186212
 20
913.7453411275063
 30
0.0
 40
7.0
100
AcDbArc
 50
0.0
 51
180.0
  0
LINE
  5
FB
330
1F
100
AcDbEntity
  8
TANGENT_LINES
100
AcDbLine
 10
639.4895808186212
 20
913.7453411275063
 30
0.0
 11
634.4895808186212
 21
913.7453411275063
 31
0.0
  0
LINE
  5
FC
330
1F
100
AcDbEntity
  8
TANGENT_LINES
100
AcDbLine
 10
634.4895808186212
 20
727.7453411275063
 30
0.0
 11
639.4895808186212
 21
727.7453411275063
 31
0.0
  0
ARC
  5
FD
330
1F
100
AcDbEntity
  8
VISIBLE
100
AcDbCircle
 10
646.4895808186212
 20
727.7453411275063
 30
0.0
 40
7.0
100
AcDbArc
 50
180.0
 51
0.0
  0
LINE
  5
FE
330
1F
100
AcDbEntity
  8
VISIBLE
100
AcDbLine
 10
639.4895808186212
 20
913.7453411275063
 30
0.0
 11
639.4895808186212
 21
727.7453411275063
 31
0.0
  0
LINE
  5
FF
330
1F
100
AcDbEntity
  8
VISIBLE
100
AcDbLine
 10
624.4895808186212
 20
727.7453411275063
 30
0.0
 11
624.4895808186212
 21
913.7453411275063
 31
0.0
  0
LINE
  5
100
330
1F
100
AcDbEntity
  8
TANGENT_LINES
100
AcDbLine
 10
624.4895808186212
 20
913.7453411275063
 30
0.0
 11
629.4895808186212
 21
913.7453411275063
 31
0.0
  0
LINE
  5
101
330
1F
100
AcDbEntity
  8
TANGENT_LINES
100
AcDbLine
 10
629.4895808186212
 20
727.7453411275063
 30
0.0
 11
624.4895808186212
 21
727.7453411275063
 31
0.0
  0
ARC
  5
102
330
1F
100
AcDbEntity
  8
VISIBLE
100
AcDbCircle
 10
617.4895808186212
 20
913.7453411275063
 30
0.0
 40
7.0
100
AcDbArc
 50
0.0
 51
180.0
  0
LINE
  5
103
330
1F
100
AcDbEntity
  8
TANGENT_LINES
100
AcDbLine
 10
610.4895808186212
 20
913.7453411275063
 30
0.0
 11
605.4895808186212
 21
913.7453411275063
 31
0.0
  0
LINE
  5
104
330
1F
100
AcDbEntity
  8
TANGENT_LINES
100
AcDbLine
 10
605.4895808186212
 20
727.7453411275063
 30
0.0
 11
610.4895808186212
 21
727.7453411275063
 31
0.0
  0
ARC
  5
105
330
1F
100
AcDbEntity
  8
VISIBLE
100
AcDbCircle
 10
617.4895808186212
 20
727.7453411275063
 30
0.0
 40
7.0
100
AcDbArc
 50
180.0
 51
0.0
  0
LINE
  5
106
330
1F
100
AcDbEntity
  8
VISIBLE
100
AcDbLine
 10
610.4895808186212
 20
913.7453411275063
 30
0.0
 11
610.4895808186212
 21
727.7453411275063
 31
0.0
  0
LINE
  5
107
330
1F
100
AcDbEntity
  8
VISIBLE
100
AcDbLine
 10
595.4895808186212
 20
727.7453411275063
 30
0.0
 11
595.4895808186212
 21
913.7453411275063
 31
0.0
  0
LINE
  5
108
330
1F
100
AcDbEntity
  8
TANGENT_LINES
100
AcDbLine
 10
595.4895808186212
 20
913.7453411275063
 30
0.0
 11
600.4895808186212
 21
913.7453411275063
 31
0.0
  0
LINE
  5
109
330
1F
100
AcDbEntity
  8
TANGENT_LINES
100
AcDbLine
 10
600.4895808186212
 20
727.7453411275063
 30
0.0
 11
595.4895808186212
 21
727.7453411275063
 31
0.0
  0
ARC
  5
10A
330
1F
100
AcDbEntity
  8
VISIBLE
100
AcDbCircle
 10
588.4895808186212
 20
913.7453411275063
 30
0.0
 40
7.0
100
AcDbArc
 50
0.0
 51
180.0
  0
LINE
  5
10B
330
1F
100
AcDbEntity
  8
TANGENT_LINES
100
AcDbLine
 10
581.4895808186212
 20
913.7453411275063
 30
0.0
 11
576.4895808186212
 21
913.7453411275063
 31
0.0
  0
LINE
  5
10C
330
1F
100
AcDbEntity
  8
TANGENT_LINES
100
AcDbLine
 10
576.4895808186212
 20
727.7453411275063
 30
0.0
 11
581.4895808186212
 21
727.7453411275063
 31
0.0
  0
ARC
  5
10D
330
1F
100
AcDbEntity
  8
VISIBLE
100
AcDbCircle
 10
588.4895808186212
 20
727.7453411275063
 30
0.0
 40
7.0
100
AcDbArc
 50
180.0
 51
0.0
  0
LINE
  5
10E
330
1F
100
AcDbEntity
  8
VISIBLE
100
AcDbLine
 10
581.4895808186212
 20
913.7453411275063
 30
0.0
 11
581.4895808186212
 21
727.7453411275063
 31
0.0
  0
LINE
  5
10F
330
1F
100
AcDbEntity
  8
VISIBLE
100
AcDbLine
 10
566.4895808186214
 20
727.7453411275063
 30
0.0
 11
566.4895808186214
 21
913.7453411275063
 31
0.0
  0
LINE
  5
110
330
1F
100
AcDbEntity
  8
TANGENT_LINES
100
AcDbLine
 10
566.4895808186214
 20
913.7453411275063
 30
0.0
 11
571.4895808186212
 21
913.7453411275063
 31
0.0
  0
LINE
  5
111
330
1F
100
AcDbEntity
  8
TANGENT_LINES
100
AcDbLine
 10
571.4895808186212
 20
727.7453411275063
 30
0.0
 11
566.4895808186214
 21
727.7453411275063
 31
0.0
  0
ARC
  5
112
330
1F
100
AcDbEntity
  8
VISIBLE
100
AcDbCircle
 10
559.4895808186214
 20
913.7453411275063
 30
0.0
 40
7.0
100
AcDbArc
 50
0.0
 51
180.0
  0
LINE
  5
113
330
1F
100
AcDbEntity
  8
TANGENT_LINES
100
AcDbLine
 10
552.4895808186214
 20
913.7453411275063
 30
0.0
 11
547.4895808186216
 21
913.7453411275063
 31
0.0
  0
LINE
  5
114
330
1F
100
AcDbEntity
  8
TANGENT_LINES
100
AcDbLine
 10
547.4895808186214
 20
727.7453411275063
 30
0.0
 11
552.4895808186214
 21
727.7453411275063
 31
0.0
  0
ARC
  5
115
330
1F
100
AcDbEntity
  8
VISIBLE
100
AcDbCircle
 10
559.4895808186214
 20
727.7453411275063
 30
0.0
 40
7.0
100
AcDbArc
 50
180.0
 51
0.0
  0
LINE
  5
116
330
1F
100
AcDbEntity
  8
VISIBLE
100
AcDbLine
 10
552.4895808186214
 20
913.7453411275063
 30
0.0
 11
552.4895808186214
 21
727.7453411275063
 31
0.0
  0
LINE
  5
117
330
1F
100
AcDbEntity
  8
VISIBLE
100
AcDbLine
 10
537.4895808186214
 20
727.7453411275063
 30
0.0
 11
537.4895808186214
 21
913.7453411275063
 31
0.0
  0
LINE
  5
118
330
1F
100
AcDbEntity
  8
TANGENT_LINES
100
AcDbLine
 10
537.4895808186214
 20
913.7453411275063
 30
0.0
 11
542.4895808186214
 21
913.7453411275063
 31
0.0
  0
LINE
  5
119
330
1F
100
AcDbEntity
  8
TANGENT_LINES
100
AcDbLine
 10
542.4895808186214
 20
727.7453411275063
 30
0.0
 11
537.4895808186214
 21
727.7453411275063
 31
0.0
  0
ARC
  5
11A
330
1F
100
AcDbEntity
  8
VISIBLE
100
AcDbCircle
 10
530.4895808186214
 20
913.7453411275063
 30
0.0
 40
7.0
100
AcDbArc
 50
0.0
 51
180.0
  0
LINE
  5
11B
330
1F
100
AcDbEntity
  8
TANGENT_LINES
100
AcDbLine
 10
523.4895808186212
 20
913.7453411275063
 30
0.0
 11
518.4895808186214
 21
913.7453411275063
 31
0.0
  0
LINE
  5
11C
330
1F
100
AcDbEntity
  8
TANGENT_LINES
100
AcDbLine
 10
518.4895808186212
 20
727.7453411275063
 30
0.0
 11
523.4895808186212
 21
727.7453411275063
 31
0.0
  0
ARC
  5
11D
330
1F
100
AcDbEntity
  8
VISIBLE
100
AcDbCircle
 10
530.4895808186214
 20
727.7453411275063
 30
0.0
 40
7.0
100
AcDbArc
 50
180.0
 51
0.0
  0
LINE
  5
11E
330
1F
100
AcDbEntity
  8
VISIBLE
100
AcDbLine
 10
523.4895808186212
 20
913.7453411275063
 30
0.0
 11
523.4895808186212
 21
727.7453411275063
 31
0.0
  0
LINE
  5
11F
330
1F
100
AcDbEntity
  8
VISIBLE
100
AcDbLine
 10
508.4895808186212
 20
727.7453411275063
 30
0.0
 11
508.4895808186212
 21
913.7453411275063
 31
0.0
  0
LINE
  5
120
330
1F
100
AcDbEntity
  8
TANGENT_LINES
100
AcDbLine
 10
508.4895808186212
 20
913.7453411275063
 30
0.0
 11
513.4895808186212
 21
913.7453411275063
 31
0.0
  0
LINE
  5
121
330
1F
100
AcDbEntity
  8
TANGENT_LINES
100
AcDbLine
 10
513.4895808186212
 20
727.7453411275063
 30
0.0
 11
508.4895808186212
 21
727.7453411275063
 31
0.0
  0
ARC
  5
122
330
1F
100
AcDbEntity
  8
VISIBLE
100
AcDbCircle
 10
501.4895808186212
 20
913.7453411275063
 30
0.0
 40
7.0
100
AcDbArc
 50
0.0
 51
180.0
  0
LINE
  5
123
330
1F
100
AcDbEntity
  8
TANGENT_LINES
100
AcDbLine
 10
494.4895808186212
 20
913.7453411275063
 30
0.0
 11
489.4895808186212
 21
913.7453411275063
 31
0.0
  0
LINE
  5
124
330
1F
100
AcDbEntity
  8
TANGENT_LINES
100
AcDbLine
 10
489.4895808186212
 20
727.7453411275063
 30
0.0
 11
494.4895808186212
 21
727.7453411275063
 31
0.0
  0
ARC
  5
125
330
1F
100
AcDbEntity
  8
VISIBLE
100
AcDbCircle
 10
501.4895808186212
 20
727.7453411275063
 30
0.0
 40
7.0
100
AcDbArc
 50
180.0
 51
0.0
  0
LINE
  5
126
330
1F
100
AcDbEntity
  8
VISIBLE
100
AcDbLine
 10
494.4895808186212
 20
913.7453411275063
 30
0.0
 11
494.4895808186212
 21
727.7453411275063
 31
0.0
  0
LINE
  5
127
330
1F
100
AcDbEntity
  8
VISIBLE
100
AcDbLine
 10
479.4895808186212
 20
727.7453411275063
 30
0.0
 11
479.4895808186212
 21
913.7453411275063
 31
0.0
  0
LINE
  5
128
330
1F
100
AcDbEntity
  8
TANGENT_LINES
100
AcDbLine
 10
479.4895808186212
 20
913.7453411275063
 30
0.0
 11
484.4895808186212
 21
913.7453411275063
 31
0.0
  0
LINE
  5
129
330
1F
100
AcDbEntity
  8
TANGENT_LINES
100
AcDbLine
 10
484.4895808186212
 20
727.7453411275063
 30
0.0
 11
479.4895808186212
 21
727.7453411275063
 31
0.0
  0
ARC
  5
12A
330
1F
100
AcDbEntity
  8
VISIBLE
100
AcDbCircle
 10
472.4895808186212
 20
913.7453411275063
 30
0.0
 40
7.0
100
AcDbArc
 50
0.0
 51
180.0
  0
LINE
  5
12B
330
1F
100
AcDbEntity
  8
TANGENT_LINES
100
AcDbLine
 10
465.4895808186212
 20
913.7453411275063
 30
0.0
 11
460.4895808186212
 21
913.7453411275063
 31
0.0
  0
LINE
  5
12C
330
1F
100
AcDbEntity
  8
TANGENT_LINES
100
AcDbLine
 10
460.4895808186212
 20
727.7453411275063
 30
0.0
 11
465.4895808186212
 21
727.7453411275063
 31
0.0
  0
ARC
  5
12D
330
1F
100
AcDbEntity
  8
VISIBLE
100
AcDbCircle
 10
472.4895808186212
 20
727.7453411275063
 30
0.0
 40
7.0
100
AcDbArc
 50
180.0
 51
0.0
  0
LINE
  5
12E
330
1F
100
AcDbEntity
  8
VISIBLE
100
AcDbLine
 10
465.4895808186212
 20
913.7453411275063
 30
0.0
 11
465.4895808186212
 21
727.7453411275063
 31
0.0
  0
LINE
  5
12F
330
1F
100
AcDbEntity
  8
VISIBLE
100
AcDbLine
 10
450.4895808186212
 20
727.7453411275063
 30
0.0
 11
450.4895808186212
 21
913.7453411275063
 31
0.0
  0
LINE
  5
130
330
1F
100
AcDbEntity
  8
TANGENT_LINES
100
AcDbLine
 10
450.4895808186212
 20
913.7453411275063
 30
0.0
 11
455.4895808186212
 21
913.7453411275063
 31
0.0
  0
LINE
  5
131
330
1F
100
AcDbEntity
  8
TANGENT_LINES
100
AcDbLine
 10
455.4895808186212
 20
727.7453411275063
 30
0.0
 11
450.4895808186212
 21
727.7453411275063
 31
0.0
  0
ARC
  5
132
330
1F
100
AcDbEntity
  8
VISIBLE
100
AcDbCircle
 10
443.4895808186212
 20
913.7453411275063
 30
0.0
 40
7.0
100
AcDbArc
 50
0.0
 51
180.0
  0
LINE
  5
133
330
1F
100
AcDbEntity
  8
TANGENT_LINES
100
AcDbLine
 10
436.4895808186212
 20
913.7453411275063
 30
0.0
 11
431.4895808186212
 21
913.7453411275063
 31
0.0
  0
LINE
  5
134
330
1F
100
AcDbEntity
  8
TANGENT_LINES
100
AcDbLine
 10
431.4895808186212
 20
727.7453411275063
 30
0.0
 11
436.4895808186212
 21
727.7453411275063
 31
0.0
  0
ARC
  5
135
330
1F
100
AcDbEntity
  8
VISIBLE
100
AcDbCircle
 10
443.4895808186212
 20
727.7453411275063
 30
0.0
 40
7.0
100
AcDbArc
 50
180.0
 51
0.0
  0
LINE
  5
136
330
1F
100
AcDbEntity
  8
VISIBLE
100
AcDbLine
 10
436.4895808186212
 20
913.7453411275063
 30
0.0
 11
436.4895808186212
 21
727.7453411275063
 31
0.0
  0
LINE
  5
137
330
1F
100
AcDbEntity
  8
VISIBLE
100
AcDbLine
 10
421.4895808186212
 20
727.7453411275063
 30
0.0
 11
421.4895808186212
 21
913.7453411275063
 31
0.0
  0
LINE
  5
138
330
1F
100
AcDbEntity
  8
TANGENT_LINES
100
AcDbLine
 10
421.4895808186212
 20
913.7453411275063
 30
0.0
 11
426.4895808186212
 21
913.7453411275063
 31
0.0
  0
LINE
  5
139
330
1F
100
AcDbEntity
  8
TANGENT_LINES
100
AcDbLine
 10
426.4895808186212
 20
727.7453411275063
 30
0.0
 11
421.4895808186212
 21
727.7453411275063
 31
0.0
  0
ARC
  5
13A
330
1F
100
AcDbEntity
  8
VISIBLE
100
AcDbCircle
 10
414.4895808186212
 20
913.7453411275063
 30
0.0
 40
7.0
100
AcDbArc
 50
0.0
 51
180.0
  0
LINE
  5
13B
330
1F
100
AcDbEntity
  8
TANGENT_LINES
100
AcDbLine
 10
407.4895808186212
 20
913.7453411275063
 30
0.0
 11
402.4895808186212
 21
913.7453411275063
 31
0.0
  0
LINE
  5
13C
330
1F
100
AcDbEntity
  8
TANGENT_LINES
100
AcDbLine
 10
402.4895808186212
 20
727.7453411275063
 30
0.0
 11
407.4895808186212
 21
727.7453411275063
 31
0.0
  0
ARC
  5
13D
330
1F
100
AcDbEntity
  8
VISIBLE
100
AcDbCircle
 10
414.4895808186212
 20
727.7453411275063
 30
0.0
 40
7.0
100
AcDbArc
 50
180.0
 51
0.0
  0
LINE
  5
13E
330
1F
100
AcDbEntity
  8
VISIBLE
100
AcDbLine
 10
407.4895808186212
 20
913.7453411275063
 30
0.0
 11
407.4895808186212
 21
727.7453411275063
 31
0.0
  0
LINE
  5
13F
330
1F
100
AcDbEntity
  8
VISIBLE
100
AcDbLine
 10
392.4895808186212
 20
727.7453411275063
 30
0.0
 11
392.4895808186212
 21
913.7453411275063
 31
0.0
  0
LINE
  5
140
330
1F
100
AcDbEntity
  8
TANGENT_LINES
100
AcDbLine
 10
392.4895808186212
 20
913.7453411275063
 30
0.0
 11
397.4895808186212
 21
913.7453411275063
 31
0.0
  0
LINE
  5
141
330
1F
100
AcDbEntity
  8
TANGENT_LINES
100
AcDbLine
 10
397.4895808186212
 20
727.7453411275063
 30
0.0
 11
392.4895808186212
 21
727.7453411275063
 31
0.0
  0
ARC
  5
142
330
1F
100
AcDbEntity
  8
VISIBLE
100
AcDbCircle
 10
385.4895808186212
 20
913.7453411275063
 30
0.0
 40
7.0
100
AcDbArc
 50
0.0
 51
180.0
  0
LINE
  5
143
330
1F
100
AcDbEntity
  8
TANGENT_LINES
100
AcDbLine
 10
378.4895808186212
 20
913.7453411275063
 30
0.0
 11
373.4895808186212
 21
913.7453411275063
 31
0.0
  0
LINE
  5
144
330
1F
100
AcDbEntity
  8
TANGENT_LINES
100
AcDbLine
 10
373.4895808186212
 20
727.7453411275063
 30
0.0
 11
378.4895808186212
 21
727.7453411275063
 31
0.0
  0
ARC
  5
145
330
1F
100
AcDbEntity
  8
VISIBLE
100
AcDbCircle
 10
385.4895808186212
 20
727.7453411275063
 30
0.0
 40
7.0
100
AcDbArc
 50
180.0
 51
0.0
  0
LINE
  5
146
330
1F
100
AcDbEntity
  8
VISIBLE
100
AcDbLine
 10
378.4895808186212
 20
913.7453411275063
 30
0.0
 11
378.4895808186212
 21
727.7453411275063
 31
0.0
  0
LINE
  5
147
330
1F
100
AcDbEntity
  8
VISIBLE
100
AcDbLine
 10
363.4895808186212
 20
727.7453411275063
 30
0.0
 11
363.4895808186212
 21
913.7453411275063
 31
0.0
  0
LINE
  5
148
330
1F
100
AcDbEntity
  8
TANGENT_LINES
100
AcDbLine
 10
363.4895808186212
 20
913.7453411275063
 30
0.0
 11
368.4895808186212
 21
913.7453411275063
 31
0.0
  0
LINE
  5
149
330
1F
100
AcDbEntity
  8
TANGENT_LINES
100
AcDbLine
 10
368.4895808186212
 20
727.7453411275063
 30
0.0
 11
363.4895808186212
 21
727.7453411275063
 31
0.0
  0
ARC
  5
14A
330
1F
100
AcDbEntity
  8
VISIBLE
100
AcDbCircle
 10
356.4895808186212
 20
913.7453411275063
 30
0.0
 40
7.0
100
AcDbArc
 50
0.0
 51
180.0
  0
LINE
  5
14B
330
1F
100
AcDbEntity
  8
TANGENT_LINES
100
AcDbLine
 10
349.4895808186212
 20
913.7453411275063
 30
0.0
 11
344.4895808186212
 21
913.7453411275063
 31
0.0
  0
LINE
  5
14C
330
1F
100
AcDbEntity
  8
TANGENT_LINES
100
AcDbLine
 10
344.4895808186212
 20
727.7453411275063
 30
0.0
 11
349.4895808186212
 21
727.7453411275063
 31
0.0
  0
ARC
  5
14D
330
1F
100
AcDbEntity
  8
VISIBLE
100
AcDbCircle
 10
356.4895808186212
 20
727.7453411275063
 30
0.0
 40
7.0
100
AcDbArc
 50
180.0
 51
0.0
  0
LINE
  5
14E
330
1F
100
AcDbEntity
  8
VISIBLE
100
AcDbLine
 10
349.4895808186212
 20
913.7453411275063
 30
0.0
 11
349.4895808186212
 21
727.7453411275063
 31
0.0
  0
LINE
  5
14F
330
1F
100
AcDbEntity
  8
VISIBLE
100
AcDbLine
 10
334.4895808186212
 20
727.7453411275063
 30
0.0
 11
334.4895808186212
 21
913.7453411275063
 31
0.0
  0
LINE
  5
150
330
1F
100
AcDbEntity
  8
TANGENT_LINES
100
AcDbLine
 10
334.4895808186212
 20
913.7453411275063
 30
0.0
 11
339.4895808186212
 21
913.7453411275063
 31
0.0
  0
LINE
  5
151
330
1F
100
AcDbEntity
  8
TANGENT_LINES
100
AcDbLine
 10
339.4895808186212
 20
727.7453411275063
 30
0.0
 11
334.4895808186212
 21
727.7453411275063
 31
0.0
  0
ARC
  5
152
330
1F
100
AcDbEntity
  8
VISIBLE
100
AcDbCircle
 10
327.4895808186212
 20
913.7453411275063
 30
0.0
 40
7.0
100
AcDbArc
 50
0.0
 51
180.0
  0
LINE
  5
153
330
1F
100
AcDbEntity
  8
TANGENT_LINES
100
AcDbLine
 10
320.4895808186212
 20
913.7453411275063
 30
0.0
 11
315.4895808186212
 21
913.7453411275063
 31
0.0
  0
LINE
  5
154
330
1F
100
AcDbEntity
  8
TANGENT_LINES
100
AcDbLine
 10
315.4895808186212
 20
727.7453411275063
 30
0.0
 11
320.4895808186212
 21
727.7453411275063
 31
0.0
  0
ARC
  5
155
330
1F
100
AcDbEntity
  8
VISIBLE
100
AcDbCircle
 10
327.4895808186212
 20
727.7453411275063
 30
0.0
 40
7.0
100
AcDbArc
 50
180.0
 51
0.0
  0
LINE
  5
156
330
1F
100
AcDbEntity
  8
VISIBLE
100
AcDbLine
 10
320.4895808186212
 20
913.7453411275063
 30
0.0
 11
320.4895808186212
 21
727.7453411275063
 31
0.0
  0
LINE
  5
157
330
1F
100
AcDbEntity
  8
VISIBLE
100
AcDbLine
 10
305.4895808186212
 20
727.7453411275063
 30
0.0
 11
305.4895808186212
 21
913.7453411275063
 31
0.0
  0
LINE
  5
158
330
1F
100
AcDbEntity
  8
TANGENT_LINES
100
AcDbLine
 10
305.4895808186212
 20
913.7453411275063
 30
0.0
 11
310.4895808186212
 21
913.7453411275063
 31
0.0
  0
LINE
  5
159
330
1F
100
AcDbEntity
  8
TANGENT_LINES
100
AcDbLine
 10
310.4895808186212
 20
727.7453411275063
 30
0.0
 11
305.4895808186212
 21
727.7453411275063
 31
0.0
  0
ARC
  5
15A
330
1F
100
AcDbEntity
  8
VISIBLE
100
AcDbCircle
 10
298.4895808186212
 20
913.7453411275063
 30
0.0
 40
7.0
100
AcDbArc
 50
0.0
 51
180.0
  0
LINE
  5
15B
330
1F
100
AcDbEntity
  8
TANGENT_LINES
100
AcDbLine
 10
291.4895808186212
 20
913.7453411275063
 30
0.0
 11
286.4895808186212
 21
913.7453411275063
 31
0.0
  0
LINE
  5
15C
330
1F
100
AcDbEntity
  8
TANGENT_LINES
100
AcDbLine
 10
286.4895808186212
 20
727.7453411275063
 30
0.0
 11
291.4895808186212
 21
727.7453411275063
 31
0.0
  0
ARC
  5
15D
330
1F
100
AcDbEntity
  8
VISIBLE
100
AcDbCircle
 10
298.4895808186212
 20
727.7453411275063
 30
0.0
 40
7.0
100
AcDbArc
 50
180.0
 51
0.0
  0
LINE
  5
15E
330
1F
100
AcDbEntity
  8
VISIBLE
100
AcDbLine
 10
291.4895808186212
 20
913.7453411275063
 30
0.0
 11
291.4895808186212
 21
727.7453411275063
 31
0.0
  0
LINE
  5
15F
330
1F
100
AcDbEntity
  8
VISIBLE
100
AcDbLine
 10
276.4895808186212
 20
727.7453411275063
 30
0.0
 11
276.4895808186212
 21
913.7453411275063
 31
0.0
  0
LINE
  5
160
330
1F
100
AcDbEntity
  8
TANGENT_LINES
100
AcDbLine
 10
276.4895808186212
 20
913.7453411275063
 30
0.0
 11
281.4895808186212
 21
913.7453411275063
 31
0.0
  0
LINE
  5
161
330
1F
100
AcDbEntity
  8
TANGENT_LINES
100
AcDbLine
 10
281.4895808186212
 20
727.7453411275063
 30
0.0
 11
276.4895808186212
 21
727.7453411275063
 31
0.0
  0
ARC
  5
162
330
1F
100
AcDbEntity
  8
VISIBLE
100
AcDbCircle
 10
269.4895808186212
 20
913.7453411275063
 30
0.0
 40
7.0
100
AcDbArc
 50
0.0
 51
180.0
  0
LINE
  5
163
330
1F
100
AcDbEntity
  8
TANGENT_LINES
100
AcDbLine
 10
262.4895808186212
 20
913.7453411275063
 30
0.0
 11
257.4895808186212
 21
913.7453411275063
 31
0.0
  0
LINE
  5
164
330
1F
100
AcDbEntity
  8
TANGENT_LINES
100
AcDbLine
 10
257.4895808186212
 20
727.7453411275063
 30
0.0
 11
262.4895808186212
 21
727.7453411275063
 31
0.0
  0
ARC
  5
165
330
1F
100
AcDbEntity
  8
VISIBLE
100
AcDbCircle
 10
269.4895808186212
 20
727.7453411275063
 30
0.0
 40
7.0
100
AcDbArc
 50
180.0
 51
0.0
  0
LINE
  5
166
330
1F
100
AcDbEntity
  8
VISIBLE
100
AcDbLine
 10
262.4895808186212
 20
913.7453411275063
 30
0.0
 11
262.4895808186212
 21
727.7453411275063
 31
0.0
  0
LINE
  5
167
330
1F
100
AcDbEntity
  8
TANGENT_LINES
100
AcDbLine
 10
228.4895808186212
 20
913.7453411275063
 30
0.0
 11
233.4895808186212
 21
913.7453411275063
 31
0.0
  0
LINE
  5
168
330
1F
100
AcDbEntity
  8
VISIBLE
100
AcDbLine
 10
233.4895808186212
 20
913.7453411275063
 30
0.0
 11
233.4895808186212
 21
727.7453411275063
 31
0.0
  0
LINE
  5
169
330
1F
100
AcDbEntity
  8
TANGENT_LINES
100
AcDbLine
 10
233.4895808186212
 20
727.7453411275063
 30
0.0
 11
228.4895808186212
 21
727.7453411275063
 31
0.0
  0
LINE
  5
16A
330
1F
100
AcDbEntity
  8
TANGENT_LINES
100
AcDbLine
 10
252.4895808186212
 20
913.7453411275063
 30
0.0
 11
247.4895808186212
 21
913.7453411275063
 31
0.0
  0
ARC
  5
16B
330
1F
100
AcDbEntity
  8
VISIBLE
100
AcDbCircle
 10
240.4895808186212
 20
913.7453411275063
 30
0.0
 40
7.0
100
AcDbArc
 50
0.0
 51
180.0
  0
ARC
  5
16C
330
1F
100
AcDbEntity
  8
VISIBLE
100
AcDbCircle
 10
240.4895808186212
 20
727.7453411275063
 30
0.0
 40
7.0
100
AcDbArc
 50
180.0
 51
0.0
  0
LINE
  5
16D
330
1F
100
AcDbEntity
  8
TANGENT_LINES
100
AcDbLine
 10
247.4895808186212
 20
727.7453411275063
 30
0.0
 11
252.4895808186212
 21
727.7453411275063
 31
0.0
  0
LINE
  5
16E
330
1F
100
AcDbEntity
  8
VISIBLE
100
AcDbLine
 10
247.4895808186212
 20
727.7453411275063
 30
0.0
 11
247.4895808186212
 21
913.7453411275063
 31
0.0
  0
ARC
  5
16F
330
1F
100
AcDbEntity
  8
VISIBLE
100
AcDbCircle
 10
902.1301473985677
 20
743.1453411275063
 30
0.0
 40
3.25
100
AcDbArc
 50
270.0
 51
90.0
  0
LINE
  5
170
330
1F
100
AcDbEntity
  8
TANGENT_LINES
100
AcDbLine
 10
902.1301473985677
 20
746.3953411275063
 30
0.0
 11
902.1301473985677
 21
751.3953411275063
 31
0.0
  0
LINE
  5
171
330
1F
100
AcDbEntity
  8
TANGENT_LINES
100
AcDbLine
 10
902.1301473985677
 20
734.8953411275063
 30
0.0
 11
902.1301473985677
 21
739.8953411275063
 31
0.0
  0
LINE
  5
172
330
1F
100
AcDbEntity
  8
VISIBLE
100
AcDbLine
 10
902.1301473985677
 20
746.3953411275063
 30
0.0
 11
860.1301473985677
 21
746.3953411275063
 31
0.0
  0
LINE
  5
173
330
1F
100
AcDbEntity
  8
TANGENT_LINES
100
AcDbLine
 10
860.1301473985677
 20
746.3953411275063
 30
0.0
 11
860.1301473985677
 21
751.3953411275063
 31
0.0
  0
LINE
  5
174
330
1F
100
AcDbEntity
  8
TANGENT_LINES
100
AcDbLine
 10
860.1301473985677
 20
734.8953411275063
 30
0.0
 11
860.1301473985677
 21
739.8953411275063
 31
0.0
  0
LINE
  5
175
330
1F
100
AcDbEntity
  8
VISIBLE
100
AcDbLine
 10
860.1301473985677
 20
739.8953411275063
 30
0.0
 11
902.1301473985677
 21
739.8953411275063
 31
0.0
  0
ARC
  5
176
330
1F
100
AcDbEntity
  8
VISIBLE
100
AcDbCircle
 10
860.1301473985677
 20
743.1453411275063
 30
0.0
 40
3.25
100
AcDbArc
 50
90.0
 51
270.0
  0
ARC
  5
177
330
1F
100
AcDbEntity
  8
VISIBLE
100
AcDbCircle
 10
166.1301473985677
 20
743.1453411275063
 30
0.0
 40
3.24999999999981
100
AcDbArc
 50
90.0
 51
270.0
  0
LINE
  5
178
330
1F
100
AcDbEntity
  8
TANGENT_LINES
100
AcDbLine
 10
166.1301473985677
 20
739.8953411275063
 30
0.0
 11
166.1301473985677
 21
734.8953411275063
 31
0.0
  0
LINE
  5
179
330
1F
100
AcDbEntity
  8
TANGENT_LINES
100
AcDbLine
 10
166.1301473985677
 20
751.3953411275063
 30
0.0
 11
166.1301473985677
 21
746.3953411275063
 31
0.0
  0
LINE
  5
17A
330
1F
100
AcDbEntity
  8
VISIBLE
100
AcDbLine
 10
166.1301473985677
 20
739.8953411275063
 30
0.0
 11
208.1301473985678
 21
739.8953411275063
 31
0.0
  0
LINE
  5
17B
330
1F
100
AcDbEntity
  8
TANGENT_LINES
100
AcDbLine
 10
208.1301473985678
 20
739.8953411275063
 30
0.0
 11
208.1301473985678
 21
734.8953411275063
 31
0.0
  0
LINE
  5
17C
330
1F
100
AcDbEntity
  8
TANGENT_LINES
100
AcDbLine
 10
208.1301473985678
 20
751.3953411275063
 30
0.0
 11
208.1301473985678
 21
746.3953411275063
 31
0.0
  0
LINE
  5
17D
330
1F
100
AcDbEntity
  8
VISIBLE
100
AcDbLine
 10
208.1301473985678
 20
746.3953411275063
 30
0.0
 11
166.1301473985677
 21
746.3953411275063
 31
0.0
  0
ARC
  5
17E
330
1F
100
AcDbEntity
  8
VISIBLE
100
AcDbCircle
 10
208.1301473985678
 20
743.1453411275063
 30
0.0
 40
3.2499999999998
100
AcDbArc
 50
270.0
 51
90.0
  0
LINE
  5
17F
330
1F
100
AcDbEntity
  8
TANGENT_LINES
100
AcDbLine
 10
948.4895808186212
 20
917.7453411275063
 30
0.0
 11
953.4895808186212
 21
917.7453411275063
 31
0.0
  0
LINE
  5
180
330
1F
100
AcDbEntity
  8
VISIBLE
100
AcDbLine
 10
953.4895808186212
 20
917.7453411275063
 30
0.0
 11
953.4895808186212
 21
723.7453411275063
 31
0.0
  0
LINE
  5
181
330
1F
100
AcDbEntity
  8
TANGENT_LINES
100
AcDbLine
 10
953.4895808186212
 20
723.7453411275063
 30
0.0
 11
948.4895808186212
 21
723.7453411275063
 31
0.0
  0
LINE
  5
182
330
1F
100
AcDbEntity
  8
TANGENT_LINES
100
AcDbLine
 10
935.4895808186212
 20
930.7453411275063
 30
0.0
 11
935.4895808186212
 21
935.7453411275063
 31
0.0
  0
ARC
  5
183
330
1F
100
AcDbEntity
  8
VISIBLE
100
AcDbCircle
 10
-935.4895808186212
 20
917.7453411275063
 30
0.0
 40
18.0
210
0.0
220
0.0
230
-1.0
100
AcDbArc
 50
90.0
 51
180.0
  0
ARC
  5
184
330
1F
100
AcDbEntity
  8
VISIBLE
100
AcDbCircle
 10
-935.4895808186212
 20
723.7453411275063
 30
0.0
 40
18.0
210
0.0
220
0.0
230
-1.0
100
AcDbArc
 50
180.0
 51
270.0
  0
LINE
  5
185
330
1F
100
AcDbEntity
  8
TANGENT_LINES
100
AcDbLine
 10
935.4895808186212
 20
705.7453411275063
 30
0.0
 11
935.4895808186212
 21
710.7453411275063
 31
0.0
  0
LINE
  5
186
330
1F
100
AcDbEntity
  8
TANGENT_LINES
100
AcDbLine
 10
151.4895808186212
 20
930.7453411275063
 30
0.0
 11
151.4895808186212
 21
935.7453411275063
 31
0.0
  0
LINE
  5
187
330
1F
100
AcDbEntity
  8
VISIBLE
100
AcDbLine
 10
151.4895808186212
 20
935.7453411275063
 30
0.0
 11
935.4895808186212
 21
935.7453411275063
 31
0.0
  0
LINE
  5
188
330
1F
100
AcDbEntity
  8
VISIBLE
100
AcDbLine
 10
935.4895808186212
 20
705.7453411275063
 30
0.0
 11
151.4895808186212
 21
705.7453411275063
 31
0.0
  0
LINE
  5
189
330
1F
100
AcDbEntity
  8
TANGENT_LINES
100
AcDbLine
 10
151.4895808186212
 20
705.7453411275063
 30
0.0
 11
151.4895808186212
 21
710.7453411275063
 31
0.0
  0
LINE
  5
18A
330
1F
100
AcDbEntity
  8
TANGENT_LINES
100
AcDbLine
 10
138.4895808186212
 20
917.7453411275063
 30
0.0
 11
133.4895808186212
 21
917.7453411275063
 31
0.0
  0
ARC
  5
18B
330
1F
100
AcDbEntity
  8
VISIBLE
100
AcDbCircle
 10
-151.4895808186212
 20
917.7453411275063
 30
0.0
 40
18.0
210
0.0
220
0.0
230
-1.0
100
AcDbArc
 50
0.0
 51
90.0
  0
ARC
  5
18C
330
1F
100
AcDbEntity
  8
VISIBLE
100
AcDbCircle
 10
-151.4895808186212
 20
723.7453411275063
 30
0.0
 40
18.0
210
0.0
220
0.0
230
-1.0
100
AcDbArc
 50
270.0
 51
0.0
  0
LINE
  5
18D
330
1F
100
AcDbEntity
  8
TANGENT_LINES
100
AcDbLine
 10
133.4895808186212
 20
723.7453411275063
 30
0.0
 11
138.4895808186212
 21
723.7453411275063
 31
0.0
  0
LINE
  5
18E
330
1F
100
AcDbEntity
  8
VISIBLE
100
AcDbLine
 10
133.4895808186212
 20
723.7453411275063
 30
0.0
 11
133.4895808186212
 21
917.7453411275063
 31
0.0
  0
LINE
  5
190
330
1F
100
AcDbEntity
  8
VISIBLE
100
AcDbLine
 10
286.3689307480614
 20
171.4613407263495
 30
0.0
 11
297.9456275588906
 21
113.577856672204
 31
0.0
  0
ARC
  5
191
330
1F
100
AcDbEntity
  8
VISIBLE
100
AcDbCircle
 10
-327.3630478296182
 20
119.4613407263495
 30
0.0000000000000062
 40
30.0
210
0.0
220
6.123233995736766E-17
230
-1.0
100
AcDbArc
 50
270.0
 51
348.6900675259798
  0
LINE
  5
192
330
1F
100
AcDbEntity
  8
VISIBLE
100
AcDbLine
 10
327.3630478296182
 20
89.46134072634948
 30
0.0
 11
409.3748136665043
 21
89.46134072634948
 31
0.0
  0
ARC
  5
193
330
1F
100
AcDbEntity
  8
VISIBLE
100
AcDbCircle
 10
-409.3748136665043
 20
119.4613407263495
 30
0.0000000000000062
 40
30.0
210
0.0
220
6.123233995736766E-17
230
-1.0
100
AcDbArc
 50
191.3099324740201
 51
270.0
  0
ARC
  5
194
330
1F
100
AcDbEntity
  8
VISIBLE
100
AcDbCircle
 10
409.0183434175706
 20
119.4613407263495
 30
0.0000000000000018
 40
48.0
100
AcDbArc
 50
270.0
 51
348.6900675259798
  0
LINE
  5
195
330
1F
100
AcDbEntity
  8
VISIBLE
100
AcDbLine
 10
409.0183434175706
 20
71.46134072634948
 30
0.0
 11
327.7195180785521
 21
71.46134072634948
 31
0.0
  0
ARC
  5
196
330
1F
100
AcDbEntity
  8
VISIBLE
100
AcDbCircle
 10
327.7195180785521
 20
119.4613407263495
 30
0.0000000000000018
 40
48.0
100
AcDbArc
 50
191.3099324740202
 51
270.0
  0
ARC
  5
197
330
1F
100
AcDbEntity
  8
VISIBLE
100
AcDbCircle
 10
246.5209307480613
 20
148.3717407263495
 30
-0.0000000000000009
 40
25.9519697163818
100
AcDbArc
 50
11.3099324740202
 51
62.83621416060065
  0
LINE
  5
198
330
1F
100
AcDbEntity
  8
VISIBLE
100
AcDbLine
 10
438.7922339372319
 20
113.577856672204
 30
0.0
 11
450.3689307480614
 21
171.4613407263495
 31
0.0
  0
LINE
  5
199
330
1F
100
AcDbEntity
  8
VISIBLE
100
AcDbLine
 10
450.3689307480614
 20
171.4613407263495
 30
0.0
 11
478.3689307480614
 21
171.4613407263495
 31
0.0
  0
LINE
  5
19A
330
1F
100
AcDbEntity
  8
VISIBLE
100
AcDbLine
 10
464.7689307480613
 20
153.4613407263495
 30
0.0
 11
456.0862158507348
 21
110.0477662397167
 31
0.0
  0
ARC
  5
19B
330
1F
100
AcDbEntity
  8
VISIBLE
100
AcDbCircle
 10
490.2169307480614
 20
148.3717407263495
 30
-0.0000000000000009
 40
25.9519697163817
100
AcDbArc
 50
117.1637858393995
 51
168.6900675259798
  0
LINE
  5
19C
330
1F
100
AcDbEntity
  8
VISIBLE
100
AcDbLine
 10
258.3689307480614
 20
171.4613407263495
 30
0.0
 11
286.3689307480614
 21
171.4613407263495
 31
0.0
  0
LINE
  5
19D
330
1F
100
AcDbEntity
  8
VISIBLE
100
AcDbLine
 10
280.651645645388
 20
110.0477662397166
 30
0.0
 11
271.9689307480613
 21
153.4613407263495
 31
0.0
  0
LINE
  5
19F
330
1F
100
AcDbEntity
  8
VISIBLE
100
AcDbLine
 10
550.4654958292282
 20
166.0566573270448
 30
0.0
 11
562.0421926400574
 21
108.1731732728993
 31
0.0
  0
ARC
  5
1A0
330
1F
100
AcDbEntity
  8
VISIBLE
100
AcDbCircle
 10
-591.459612910785
 20
114.0566573270448
 30
0.0000000000000059
 40
30.0
210
0.0
220
6.123233995736766E-17
230
-1.0
100
AcDbArc
 50
270.0
 51
348.6900675259798
  0
LINE
  5
1A1
330
1F
100
AcDbEntity
  8
VISIBLE
100
AcDbLine
 10
591.459612910785
 20
84.05665732704477
 30
0.0
 11
673.4713787476712
 21
84.05665732704477
 31
0.0
  0
ARC
  5
1A2
330
1F
100
AcDbEntity
  8
VISIBLE
100
AcDbCircle
 10
-673.4713787476712
 20
114.0566573270448
 30
0.0000000000000059
 40
30.0
210
0.0
220
6.123233995736766E-17
230
-1.0
100
AcDbArc
 50
191.3099324740202
 51
270.0
  0
ARC
  5
1A3
330
1F
100
AcDbEntity
  8
VISIBLE
100
AcDbCircle
 10
673.1149084987373
 20
114.0566573270448
 30
0.0000000000000018
 40
48.0
100
AcDbArc
 50
270.0
 51
348.6900675259798
  0
LINE
  5
1A4
330
1F
100
AcDbEntity
  8
VISIBLE
100
AcDbLine
 10
673.1149084987373
 20
66.05665732704477
 30
0.0
 11
591.816083159719
 21
66.05665732704477
 31
0.0
  0
ARC
  5
1A5
330
1F
100
AcDbEntity
  8
VISIBLE
100
AcDbCircle
 10
591.816083159719
 20
114.0566573270448
 30
0.0000000000000018
 40
48.0
100
AcDbArc
 50
191.3099324740202
 51
270.0
  0
ARC
  5
1A6
330
1F
100
AcDbEntity
  8
VISIBLE
100
AcDbCircle
 10
510.6174958292282
 20
142.9670573270448
 30
-0.0000000000000009
 40
25.9519697163818
100
AcDbArc
 50
11.30993247402018
 51
62.83621416060053
  0
LINE
  5
1A7
330
1F
100
AcDbEntity
  8
VISIBLE
100
AcDbLine
 10
702.8887990183987
 20
108.1731732728993
 30
0.0
 11
714.4654958292282
 21
166.0566573270448
 31
0.0
  0
LINE
  5
1A8
330
1F
100
AcDbEntity
  8
VISIBLE
100
AcDbLine
 10
714.4654958292282
 20
166.0566573270448
 30
0.0
 11
742.4654958292282
 21
166.0566573270448
 31
0.0
  0
LINE
  5
1A9
330
1F
100
AcDbEntity
  8
VISIBLE
100
AcDbLine
 10
728.8654958292282
 20
148.0566573270448
 30
0.0
 11
720.1827809319017
 21
104.643082840412
 31
0.0
  0
ARC
  5
1AA
330
1F
100
AcDbEntity
  8
VISIBLE
100
AcDbCircle
 10
754.3134958292281
 20
142.9670573270448
 30
-0.0000000000000009
 40
25.9519697163817
100
AcDbArc
 50
117.1637858393992
 51
168.6900675259798
  0
LINE
  5
1AB
330
1F
100
AcDbEntity
  8
VISIBLE
100
AcDbLine
 10
522.4654958292282
 20
166.0566573270448
 30
0.0
 11
550.4654958292282
 21
166.0566573270448
 31
0.0
  0
LINE
  5
1AC
330
1F
100
AcDbEntity
  8
VISIBLE
100
AcDbLine
 10
544.7482107265548
 20
104.6430828404119
 30
0.0
 11
536.0654958292282
 21
148.0566573270448
 31
0.0
  0
ARC
  5
1AE
330
1F
100
AcDbEntity
  8
VISIBLE
100
AcDbCircle
 10
831.5942203883994
 20
205.1424891685273
 30
0.0
 40
32.0
100
AcDbArc
 50
90.0
 51
180.0
  0
LINE
  5
1AF
330
1F
100
AcDbEntity
  8
VISIBLE
100
AcDbLine
 10
831.5942203883994
 20
237.1424891685273
 30
0.0
 11
947.5942203883994
 21
237.1424891685273
 31
0.0
  0
ARC
  5
1B0
330
1F
100
AcDbEntity
  8
VISIBLE
100
AcDbCircle
 10
947.5942203883994
 20
205.1424891685273
 30
0.0
 40
32.0
100
AcDbArc
 50
0.0
 51
90.0
  0
LINE
  5
1B1
330
1F
100
AcDbEntity
  8
VISIBLE
100
AcDbLine
 10
979.5942203883994
 20
75.14248916852728
 30
0.0
 11
979.5942203883994
 21
205.1424891685273
 31
0.0
  0
ARC
  5
1B2
330
1F
100
AcDbEntity
  8
VISIBLE
100
AcDbCircle
 10
947.5942203883994
 20
75.14248916852728
 30
0.0
 40
32.0
100
AcDbArc
 50
270.0
 51
0.0
  0
LINE
  5
1B3
330
1F
100
AcDbEntity
  8
VISIBLE
100
AcDbLine
 10
947.5942203883994
 20
43.14248916852728
 30
0.0
 11
831.5942203883993
 21
43.14248916852728
 31
0.0
  0
ARC
  5
1B4
330
1F
100
AcDbEntity
  8
VISIBLE
100
AcDbCircle
 10
831.5942203883993
 20
75.14248916852728
 30
0.0
 40
32.0
100
AcDbArc
 50
180.0
 51
270.0
  0
LINE
  5
1B5
330
1F
100
AcDbEntity
  8
VISIBLE
100
AcDbLine
 10
799.5942203883993
 20
75.14248916852728
 30
0.0
 11
799.5942203883994
 21
205.1424891685273
 31
0.0
  0
LINE
  5
1B6
330
1F
100
AcDbEntity
  8
VISIBLE
100
AcDbLine
 10
880.5942203883994
 20
185.1424891685273
 30
0.0
 11
898.5942203883994
 21
185.1424891685273
 31
0.0
  0
ARC
  5
1B7
330
1F
100
AcDbEntity
  8
VISIBLE
100
AcDbCircle
 10
-898.5942203883994
 20
205.1424891685273
 30
0.0
 40
20.0
210
0.0
220
0.0
230
-1.0
100
AcDbArc
 50
90.0
 51
270.0
  0
LINE
  5
1B8
330
1F
100
AcDbEntity
  8
VISIBLE
100
AcDbLine
 10
880.5942203883994
 20
225.1424891685273
 30
0.0
 11
898.5942203883994
 21
225.1424891685273
 31
0.0
  0
ARC
  5
1B9
330
1F
100
AcDbEntity
  8
VISIBLE
100
AcDbCircle
 10
-880.5942203883994
 20
205.1424891685273
 30
0.0
 40
20.0
210
0.0
220
0.0
230
-1.0
100
AcDbArc
 50
270.0
 51
90.0
  0
ARC
  5
1BA
330
1F
100
AcDbEntity
  8
VISIBLE
100
AcDbCircle
 10
-831.5942203883994
 20
205.1424891685273
 30
0.0
 40
20.0
210
0.0
220
0.0
230
-1.0
100
AcDbArc
 50
90.0
 51
0.0
  0
ARC
  5
1BB
330
1F
100
AcDbEntity
  8
VISIBLE
100
AcDbCircle
 10
831.5942203883994
 20
205.1424891685273
 30
0.0
 40
20.0
100
AcDbArc
 50
90.0
 51
180.0
  0
ARC
  5
1BC
330
1F
100
AcDbEntity
  8
VISIBLE
100
AcDbCircle
 10
947.5942203883994
 20
205.1424891685273
 30
0.0
 40
20.0
100
AcDbArc
 50
0.0
 51
90.0
  0
ARC
  5
1BD
330
1F
100
AcDbEntity
  8
VISIBLE
100
AcDbCircle
 10
-947.5942203883994
 20
205.1424891685273
 30
0.0
 40
20.0
210
0.0
220
0.0
230
-1.0
100
AcDbArc
 50
180.0
 51
90.0
  0
ARC
  5
1BE
330
1F
100
AcDbEntity
  8
VISIBLE
100
AcDbCircle
 10
-880.5942203883994
 20
124.1424891685273
 30
0.0
 40
20.0
210
0.0
220
0.0
230
-1.0
100
AcDbArc
 50
270.0
 51
0.0
  0
LINE
  5
1BF
330
1F
100
AcDbEntity
  8
VISIBLE
100
AcDbLine
 10
880.5942203883994
 20
104.1424891685273
 30
0.0
 11
898.5942203883994
 21
104.1424891685273
 31
0.0
  0
ARC
  5
1C0
330
1F
100
AcDbEntity
  8
VISIBLE
100
AcDbCircle
 10
-898.5942203883994
 20
124.1424891685273
 30
0.0
 40
20.0
210
0.0
220
0.0
230
-1.0
100
AcDbArc
 50
180.0
 51
270.0
  0
LINE
  5
1C1
330
1F
100
AcDbEntity
  8
VISIBLE
100
AcDbLine
 10
918.5942203883994
 20
156.1424891685273
 30
0.0
 11
918.5942203883994
 21
124.1424891685273
 31
0.0
  0
ARC
  5
1C2
330
1F
100
AcDbEntity
  8
VISIBLE
100
AcDbCircle
 10
-898.5942203883994
 20
156.1424891685273
 30
0.0
 40
20.0
210
0.0
220
0.0
230
-1.0
100
AcDbArc
 50
90.0
 51
180.0
  0
LINE
  5
1C3
330
1F
100
AcDbEntity
  8
VISIBLE
100
AcDbLine
 10
880.5942203883994
 20
176.1424891685273
 30
0.0
 11
898.5942203883994
 21
176.1424891685273
 31
0.0
  0
ARC
  5
1C4
330
1F
100
AcDbEntity
  8
VISIBLE
100
AcDbCircle
 10
-880.5942203883994
 20
156.1424891685273
 30
0.0
 40
20.0
210
0.0
220
0.0
230
-1.0
100
AcDbArc
 50
0.0
 51
90.0
  0
LINE
  5
1C5
330
1F
100
AcDbEntity
  8
VISIBLE
100
AcDbLine
 10
860.5942203883994
 20
156.1424891685273
 30
0.0
 11
860.5942203883994
 21
124.1424891685273
 31
0.0
  0
LINE
  5
1C6
330
1F
100
AcDbEntity
  8
VISIBLE
100
AcDbLine
 10
851.5942203883994
 20
124.1424891685273
 30
0.0
 11
851.5942203883994
 21
156.1424891685273
 31
0.0
  0
ARC
  5
1C7
330
1F
100
AcDbEntity
  8
VISIBLE
100
AcDbCircle
 10
-831.5942203883994
 20
156.1424891685273
 30
0.0
 40
20.0
210
0.0
220
0.0
230
-1.0
100
AcDbArc
 50
0.0
 51
180.0
  0
LINE
  5
1C8
330
1F
100
AcDbEntity
  8
VISIBLE
100
AcDbLine
 10
811.5942203883994
 20
124.1424891685273
 30
0.0
 11
811.5942203883994
 21
156.1424891685273
 31
0.0
  0
ARC
  5
1C9
330
1F
100
AcDbEntity
  8
VISIBLE
100
AcDbCircle
 10
-831.5942203883994
 20
124.1424891685273
 30
0.0
 40
20.0
210
0.0
220
0.0
230
-1.0
100
AcDbArc
 50
180.0
 51
0.0
  0
ARC
  5
1CA
330
1F
100
AcDbEntity
  8
VISIBLE
100
AcDbCircle
 10
-898.5942203883994
 20
75.14248916852728
 30
0.0
 40
20.0
210
0.0
220
0.0
230
-1.0
100
AcDbArc
 50
90.0
 51
270.0
  0
LINE
  5
1CB
330
1F
100
AcDbEntity
  8
VISIBLE
100
AcDbLine
 10
880.5942203883994
 20
95.14248916852728
 30
0.0
 11
898.5942203883994
 21
95.14248916852728
 31
0.0
  0
ARC
  5
1CC
330
1F
100
AcDbEntity
  8
VISIBLE
100
AcDbCircle
 10
-880.5942203883994
 20
75.14248916852728
 30
0.0
 40
20.0
210
0.0
220
0.0
230
-1.0
100
AcDbArc
 50
270.0
 51
90.0
  0
LINE
  5
1CD
330
1F
100
AcDbEntity
  8
VISIBLE
100
AcDbLine
 10
880.5942203883994
 20
55.14248916852728
 30
0.0
 11
898.5942203883994
 21
55.14248916852728
 31
0.0
  0
ARC
  5
1CE
330
1F
100
AcDbEntity
  8
VISIBLE
100
AcDbCircle
 10
-947.5942203883994
 20
156.1424891685273
 30
0.0
 40
20.0
210
0.0
220
0.0
230
-1.0
100
AcDbArc
 50
0.0
 51
180.0
  0
LINE
  5
1CF
330
1F
100
AcDbEntity
  8
VISIBLE
100
AcDbLine
 10
927.5942203883994
 20
156.1424891685273
 30
0.0
 11
927.5942203883994
 21
124.1424891685273
 31
0.0
  0
ARC
  5
1D0
330
1F
100
AcDbEntity
  8
VISIBLE
100
AcDbCircle
 10
-947.5942203883994
 20
124.1424891685273
 30
0.0
 40
20.0
210
0.0
220
0.0
230
-1.0
100
AcDbArc
 50
180.0
 51
0.0
  0
LINE
  5
1D1
330
1F
100
AcDbEntity
  8
VISIBLE
100
AcDbLine
 10
967.5942203883994
 20
124.1424891685273
 30
0.0
 11
967.5942203883994
 21
156.1424891685273
 31
0.0
  0
ARC
  5
1D2
330
1F
100
AcDbEntity
  8
VISIBLE
100
AcDbCircle
 10
-831.5942203883994
 20
75.14248916852728
 30
0.0
 40
20.0
210
0.0
220
0.0
230
-1.0
100
AcDbArc
 50
0.0
 51
270.0000000000003
  0
ARC
  5
1D3
330
1F
100
AcDbEntity
  8
VISIBLE
100
AcDbCircle
 10
831.5942203883993
 20
75.14248916852728
 30
0.0
 40
20.0
100
AcDbArc
 50
180.0
 51
270.0
  0
ARC
  5
1D4
330
1F
100
AcDbEntity
  8
VISIBLE
100
AcDbCircle
 10
-947.5942203883994
 20
75.14248916852728
 30
0.0
 40
20.0
210
0.0
220
0.0
230
-1.0
100
AcDbArc
 50
270.0
 51
180.0
  0
ARC
  5
1D5
330
1F
100
AcDbEntity
  8
VISIBLE
100
AcDbCircle
 10
947.5942203883994
 20
75.14248916852728
 30
0.0
 40
20.0
100
AcDbArc
 50
270.0
 51
0.0
  0
CIRCLE
  5
1D6
330
1F
100
AcDbEntity
  8
VISIBLE
100
AcDbCircle
 10
947.5942203883994
 20
75.14248916852728
 30
0.0
 40
3.302
  0
CIRCLE
  5
1D7
330
1F
100
AcDbEntity
  8
VISIBLE
100
AcDbCircle
 10
831.5942203883993
 20
75.14248916852728
 30
0.0
 40
3.302
  0
CIRCLE
  5
1D8
330
1F
100
AcDbEntity
  8
VISIBLE
100
AcDbCircle
 10
831.5942203883994
 20
205.1424891685273
 30
0.0
 40
3.302
  0
CIRCLE
  5
1D9
330
1F
100
AcDbEntity
  8
VISIBLE
100
AcDbCircle
 10
947.5942203883994
 20
205.1424891685273
 30
0.0
 40
3.302
  0
CIRCLE
  5
1DA
330
1F
100
AcDbEntity
  8
VISIBLE
100
AcDbCircle
 10
831.5942203883994
 20
156.1424891685273
 30
0.0
 40
3.302
  0
CIRCLE
  5
1DB
330
1F
100
AcDbEntity
  8
VISIBLE
100
AcDbCircle
 10
831.5942203883994
 20
124.1424891685273
 30
0.0
 40
3.302
  0
CIRCLE
  5
1DC
330
1F
100
AcDbEntity
  8
VISIBLE
100
AcDbCircle
 10
898.5942203883994
 20
205.1424891685273
 30
0.0
 40
3.302
  0
CIRCLE
  5
1DD
330
1F
100
AcDbEntity
  8
VISIBLE
100
AcDbCircle
 10
880.5942203883994
 20
205.1424891685273
 30
0.0
 40
3.302
  0
CIRCLE
  5
1DE
330
1F
100
AcDbEntity
  8
VISIBLE
100
AcDbCircle
 10
898.5942203883994
 20
124.1424891685273
 30
0.0
 40
3.302
  0
CIRCLE
  5
1DF
330
1F
100
AcDbEntity
  8
VISIBLE
100
AcDbCircle
 10
880.5942203883994
 20
156.1424891685273
 30
0.0
 40
3.302
  0
CIRCLE
  5
1E0
330
1F
100
AcDbEntity
  8
VISIBLE
100
AcDbCircle
 10
898.5942203883994
 20
156.1424891685273
 30
0.0
 40
3.302
  0
CIRCLE
  5
1E1
330
1F
100
AcDbEntity
  8
VISIBLE
100
AcDbCircle
 10
880.5942203883994
 20
124.1424891685273
 30
0.0
 40
3.302
  0
CIRCLE
  5
1E2
330
1F
100
AcDbEntity
  8
VISIBLE
100
AcDbCircle
 10
947.5942203883994
 20
124.1424891685273
 30
0.0
 40
3.302
  0
CIRCLE
  5
1E3
330
1F
100
AcDbEntity
  8
VISIBLE
100
AcDbCircle
 10
947.5942203883994
 20
156.1424891685273
 30
0.0
 40
3.302
  0
CIRCLE
  5
1E4
330
1F
100
AcDbEntity
  8
VISIBLE
100
AcDbCircle
 10
898.5942203883994
 20
75.14248916852728
 30
0.0
 40
3.302
  0
CIRCLE
  5
1E5
330
1F
100
AcDbEntity
  8
VISIBLE
100
AcDbCircle
 10
880.5942203883994
 20
75.14248916852728
 30
0.0
 40
3.302
  0
ARC
  5
1E7
330
1F
100
AcDbEntity
  8
VISIBLE
100
AcDbCircle
 10
-708.6242090646779
 20
620.509581507614
 30
-0.0000000000000772
 40
20.0
210
0.0
220
-1.224646799147353E-16
230
-1.0
100
AcDbArc
 50
0.0
 51
90.0
  0
LINE
  5
1E8
330
1F
100
AcDbEntity
  8
VISIBLE
100
AcDbLine
 10
688.6242090646779
 20
620.509581507614
 30
0.0
 11
688.6242090646779
 21
490.509581507614
 31
0.0
  0
ARC
  5
1E9
330
1F
100
AcDbEntity
  8
VISIBLE
100
AcDbCircle
 10
-708.6242090646779
 20
490.509581507614
 30
-0.0000000000000588
 40
20.0
210
0.0
220
-1.224646799147353E-16
230
-1.0
100
AcDbArc
 50
270.0
 51
0.0
  0
LINE
  5
1EA
330
1F
100
AcDbEntity
  8
VISIBLE
100
AcDbLine
 10
733.6242090646779
 20
470.509581507614
 30
0.0
 11
708.6242090646779
 21
470.509581507614
 31
0.0
  0
ARC
  5
1EB
330
1F
100
AcDbEntity
  8
VISIBLE
100
AcDbCircle
 10
-733.6242090646779
 20
490.509581507614
 30
-0.0000000000000588
 40
20.0
210
0.0
220
-1.224646799147353E-16
230
-1.0
100
AcDbArc
 50
180.0
 51
270.0
  0
LINE
  5
1EC
330
1F
100
AcDbEntity
  8
VISIBLE
100
AcDbLine
 10
753.6242090646779
 20
620.509581507614
 30
0.0
 11
753.6242090646779
 21
490.509581507614
 31
0.0
  0
ARC
  5
1ED
330
1F
100
AcDbEntity
  8
VISIBLE
100
AcDbCircle
 10
-733.6242090646779
 20
620.509581507614
 30
-0.0000000000000772
 40
20.0
210
0.0
220
-1.224646799147353E-16
230
-1.0
100
AcDbArc
 50
90.0
 51
180.0
  0
LINE
  5
1EE
330
1F
100
AcDbEntity
  8
VISIBLE
100
AcDbLine
 10
733.6242090646779
 20
640.509581507614
 30
0.0
 11
708.6242090646779
 21
640.509581507614
 31
0.0
  0
ARC
  5
1EF
330
1F
100
AcDbEntity
  8
VISIBLE
100
AcDbCircle
 10
-861.2647756446243
 20
633.109581507614
 30
-0.0000000000000775
 40
3.25
210
0.0
220
-1.224646799147353E-16
230
-1.0
100
AcDbArc
 50
270.0
 51
90.0
  0
LINE
  5
1F0
330
1F
100
AcDbEntity
  8
VISIBLE
100
AcDbLine
 10
903.2647756446243
 20
629.859581507614
 30
0.0
 11
861.2647756446243
 21
629.859581507614
 31
0.0
  0
ARC
  5
1F1
330
1F
100
AcDbEntity
  8
VISIBLE
100
AcDbCircle
 10
-903.2647756446243
 20
633.109581507614
 30
-0.0000000000000775
 40
3.25
210
0.0
220
-1.224646799147353E-16
230
-1.0
100
AcDbArc
 50
90.0
 51
270.0
  0
LINE
  5
1F2
330
1F
100
AcDbEntity
  8
VISIBLE
100
AcDbLine
 10
903.2647756446243
 20
636.359581507614
 30
0.0
 11
861.2647756446243
 21
636.359581507614
 31
0.0
  0
LINE
  5
1F3
330
1F
100
AcDbEntity
  8
VISIBLE
100
AcDbLine
 10
248.6242090646778
 20
462.509581507614
 30
0.0
 11
248.6242090646778
 21
648.509581507614
 31
0.0
  0
ARC
  5
1F4
330
1F
100
AcDbEntity
  8
VISIBLE
100
AcDbCircle
 10
-241.6242090646778
 20
648.509581507614
 30
-0.0000000000000798
 40
7.0
210
0.0
220
-1.224646799147353E-16
230
-1.0
100
AcDbArc
 50
0.0
 51
180.0
  0
LINE
  5
1F5
330
1F
100
AcDbEntity
  8
VISIBLE
100
AcDbLine
 10
234.6242090646778
 20
462.509581507614
 30
0.0
 11
234.6242090646778
 21
648.509581507614
 31
0.0
  0
ARC
  5
1F6
330
1F
100
AcDbEntity
  8
VISIBLE
100
AcDbCircle
 10
-241.6242090646778
 20
462.509581507614
 30
-0.0000000000000562
 40
7.0
210
0.0
220
-1.224646799147353E-16
230
-1.0
100
AcDbArc
 50
180.0
 51
0.0
  0
ARC
  5
1F7
330
1F
100
AcDbEntity
  8
VISIBLE
100
AcDbCircle
 10
-299.6242090646778
 20
648.509581507614
 30
-0.0000000000000798
 40
7.0
210
0.0
220
-1.224646799147353E-16
230
-1.0
100
AcDbArc
 50
0.0
 51
180.0
  0
LINE
  5
1F8
330
1F
100
AcDbEntity
  8
VISIBLE
100
AcDbLine
 10
292.6242090646778
 20
462.509581507614
 30
0.0
 11
292.6242090646778
 21
648.509581507614
 31
0.0
  0
ARC
  5
1F9
330
1F
100
AcDbEntity
  8
VISIBLE
100
AcDbCircle
 10
-299.6242090646778
 20
462.509581507614
 30
-0.0000000000000562
 40
7.0
210
0.0
220
-1.224646799147353E-16
230
-1.0
100
AcDbArc
 50
180.0
 51
0.0
  0
LINE
  5
1FA
330
1F
100
AcDbEntity
  8
VISIBLE
100
AcDbLine
 10
306.6242090646778
 20
462.509581507614
 30
0.0
 11
306.6242090646778
 21
648.509581507614
 31
0.0
  0
ARC
  5
1FB
330
1F
100
AcDbEntity
  8
VISIBLE
100
AcDbCircle
 10
-357.6242090646778
 20
648.509581507614
 30
-0.0000000000000798
 40
7.0
210
0.0
220
-1.224646799147353E-16
230
-1.0
100
AcDbArc
 50
0.0
 51
180.0
  0
LINE
  5
1FC
330
1F
100
AcDbEntity
  8
VISIBLE
100
AcDbLine
 10
350.6242090646778
 20
462.509581507614
 30
0.0
 11
350.6242090646778
 21
648.509581507614
 31
0.0
  0
ARC
  5
1FD
330
1F
100
AcDbEntity
  8
VISIBLE
100
AcDbCircle
 10
-357.6242090646778
 20
462.509581507614
 30
-0.0000000000000562
 40
7.0
210
0.0
220
-1.224646799147353E-16
230
-1.0
100
AcDbArc
 50
180.0
 51
0.0
  0
LINE
  5
1FE
330
1F
100
AcDbEntity
  8
VISIBLE
100
AcDbLine
 10
364.6242090646778
 20
462.509581507614
 30
0.0
 11
364.6242090646778
 21
648.509581507614
 31
0.0
  0
ARC
  5
1FF
330
1F
100
AcDbEntity
  8
VISIBLE
100
AcDbCircle
 10
-415.6242090646778
 20
648.509581507614
 30
-0.0000000000000798
 40
7.0
210
0.0
220
-1.224646799147353E-16
230
-1.0
100
AcDbArc
 50
0.0
 51
180.0
  0
LINE
  5
200
330
1F
100
AcDbEntity
  8
VISIBLE
100
AcDbLine
 10
408.6242090646778
 20
462.509581507614
 30
0.0
 11
408.6242090646778
 21
648.509581507614
 31
0.0
  0
ARC
  5
201
330
1F
100
AcDbEntity
  8
VISIBLE
100
AcDbCircle
 10
-415.6242090646778
 20
462.509581507614
 30
-0.0000000000000562
 40
7.0
210
0.0
220
-1.224646799147353E-16
230
-1.0
100
AcDbArc
 50
180.0
 51
0.0
  0
LINE
  5
202
330
1F
100
AcDbEntity
  8
VISIBLE
100
AcDbLine
 10
422.6242090646778
 20
462.509581507614
 30
0.0
 11
422.6242090646778
 21
648.509581507614
 31
0.0
  0
ARC
  5
203
330
1F
100
AcDbEntity
  8
VISIBLE
100
AcDbCircle
 10
-473.6242090646778
 20
648.509581507614
 30
-0.0000000000000798
 40
7.0
210
0.0
220
-1.224646799147353E-16
230
-1.0
100
AcDbArc
 50
0.0
 51
180.0
  0
LINE
  5
204
330
1F
100
AcDbEntity
  8
VISIBLE
100
AcDbLine
 10
466.6242090646778
 20
462.509581507614
 30
0.0
 11
466.6242090646778
 21
648.509581507614
 31
0.0
  0
ARC
  5
205
330
1F
100
AcDbEntity
  8
VISIBLE
100
AcDbCircle
 10
-473.6242090646778
 20
462.509581507614
 30
-0.0000000000000562
 40
7.0
210
0.0
220
-1.224646799147353E-16
230
-1.0
100
AcDbArc
 50
180.0
 51
0.0
  0
LINE
  5
206
330
1F
100
AcDbEntity
  8
VISIBLE
100
AcDbLine
 10
480.6242090646778
 20
462.509581507614
 30
0.0
 11
480.6242090646778
 21
648.509581507614
 31
0.0
  0
ARC
  5
207
330
1F
100
AcDbEntity
  8
VISIBLE
100
AcDbCircle
 10
-531.6242090646781
 20
648.509581507614
 30
-0.0000000000000798
 40
7.0
210
0.0
220
-1.224646799147353E-16
230
-1.0
100
AcDbArc
 50
0.0
 51
180.0
  0
LINE
  5
208
330
1F
100
AcDbEntity
  8
VISIBLE
100
AcDbLine
 10
524.6242090646779
 20
462.509581507614
 30
0.0
 11
524.6242090646779
 21
648.509581507614
 31
0.0
  0
ARC
  5
209
330
1F
100
AcDbEntity
  8
VISIBLE
100
AcDbCircle
 10
-531.6242090646781
 20
462.509581507614
 30
-0.0000000000000562
 40
7.0
210
0.0
220
-1.224646799147353E-16
230
-1.0
100
AcDbArc
 50
180.0
 51
0.0
  0
LINE
  5
20A
330
1F
100
AcDbEntity
  8
VISIBLE
100
AcDbLine
 10
538.6242090646781
 20
462.509581507614
 30
0.0
 11
538.6242090646781
 21
648.509581507614
 31
0.0
  0
ARC
  5
20B
330
1F
100
AcDbEntity
  8
VISIBLE
100
AcDbCircle
 10
-589.6242090646779
 20
648.509581507614
 30
-0.0000000000000798
 40
7.0
210
0.0
220
-1.224646799147353E-16
230
-1.0
100
AcDbArc
 50
0.0
 51
180.0
  0
LINE
  5
20C
330
1F
100
AcDbEntity
  8
VISIBLE
100
AcDbLine
 10
582.6242090646779
 20
462.509581507614
 30
0.0
 11
582.6242090646779
 21
648.509581507614
 31
0.0
  0
ARC
  5
20D
330
1F
100
AcDbEntity
  8
VISIBLE
100
AcDbCircle
 10
-589.6242090646779
 20
462.509581507614
 30
-0.0000000000000562
 40
7.0
210
0.0
220
-1.224646799147353E-16
230
-1.0
100
AcDbArc
 50
180.0
 51
0.0
  0
LINE
  5
20E
330
1F
100
AcDbEntity
  8
VISIBLE
100
AcDbLine
 10
596.6242090646779
 20
462.509581507614
 30
0.0
 11
596.6242090646779
 21
648.509581507614
 31
0.0
  0
ARC
  5
20F
330
1F
100
AcDbEntity
  8
VISIBLE
100
AcDbCircle
 10
-647.6242090646779
 20
648.509581507614
 30
-0.0000000000000798
 40
7.0
210
0.0
220
-1.224646799147353E-16
230
-1.0
100
AcDbArc
 50
0.0
 51
180.0
  0
LINE
  5
210
330
1F
100
AcDbEntity
  8
VISIBLE
100
AcDbLine
 10
640.6242090646779
 20
462.509581507614
 30
0.0
 11
640.6242090646779
 21
648.509581507614
 31
0.0
  0
ARC
  5
211
330
1F
100
AcDbEntity
  8
VISIBLE
100
AcDbCircle
 10
-647.6242090646779
 20
462.509581507614
 30
-0.0000000000000562
 40
7.0
210
0.0
220
-1.224646799147353E-16
230
-1.0
100
AcDbArc
 50
180.0
 51
0.0
  0
LINE
  5
212
330
1F
100
AcDbEntity
  8
VISIBLE
100
AcDbLine
 10
654.6242090646779
 20
462.509581507614
 30
0.0
 11
654.6242090646779
 21
648.509581507614
 31
0.0
  0
LINE
  5
213
330
1F
100
AcDbEntity
  8
VISIBLE
100
AcDbLine
 10
134.6242090646778
 20
458.509581507614
 30
0.0
 11
134.6242090646778
 21
652.509581507614
 31
0.0
  0
ARC
  5
214
330
1F
100
AcDbEntity
  8
VISIBLE
100
AcDbCircle
 10
152.6242090646778
 20
652.509581507614
 30
0.0000000000000011
 40
18.0
100
AcDbArc
 50
90.0
 51
179.9999999999996
  0
LINE
  5
215
330
1F
100
AcDbEntity
  8
VISIBLE
100
AcDbLine
 10
936.6242090646779
 20
670.509581507614
 30
0.0
 11
152.6242090646778
 21
670.509581507614
 31
0.0
  0
ARC
  5
216
330
1F
100
AcDbEntity
  8
VISIBLE
100
AcDbCircle
 10
936.6242090646779
 20
652.509581507614
 30
0.0000000000000011
 40
18.0
100
AcDbArc
 50
0.0000000000003619
 51
90.0
  0
LINE
  5
217
330
1F
100
AcDbEntity
  8
VISIBLE
100
AcDbLine
 10
954.6242090646779
 20
458.509581507614
 30
0.0
 11
954.6242090646779
 21
652.509581507614
 31
0.0
  0
ARC
  5
218
330
1F
100
AcDbEntity
  8
VISIBLE
100
AcDbCircle
 10
936.6242090646779
 20
458.509581507614
 30
-0.0000000000000011
 40
18.0
100
AcDbArc
 50
270.0
 51
0.0000000000001809
  0
LINE
  5
219
330
1F
100
AcDbEntity
  8
VISIBLE
100
AcDbLine
 10
936.6242090646779
 20
440.509581507614
 30
0.0
 11
152.6242090646778
 21
440.509581507614
 31
0.0
  0
ARC
  5
21A
330
1F
100
AcDbEntity
  8
VISIBLE
100
AcDbCircle
 10
-618.6242090646779
 20
648.509581507614
 30
-0.0000000000000798
 40
7.0
210
0.0
220
-1.224646799147353E-16
230
-1.0
100
AcDbArc
 50
0.0
 51
180.0
  0
LINE
  5
21B
330
1F
100
AcDbEntity
  8
VISIBLE
100
AcDbLine
 10
611.6242090646779
 20
462.509581507614
 30
0.0
 11
611.6242090646779
 21
648.509581507614
 31
0.0
  0
ARC
  5
21C
330
1F
100
AcDbEntity
  8
VISIBLE
100
AcDbCircle
 10
-618.6242090646779
 20
462.509581507614
 30
-0.0000000000000562
 40
7.0
210
0.0
220
-1.224646799147353E-16
230
-1.0
100
AcDbArc
 50
180.0
 51
0.0
  0
LINE
  5
21D
330
1F
100
AcDbEntity
  8
VISIBLE
100
AcDbLine
 10
625.6242090646779
 20
462.509581507614
 30
0.0
 11
625.6242090646779
 21
648.509581507614
 31
0.0
  0
ARC
  5
21E
330
1F
100
AcDbEntity
  8
VISIBLE
100
AcDbCircle
 10
-560.6242090646781
 20
648.509581507614
 30
-0.0000000000000798
 40
7.0
210
0.0
220
-1.224646799147353E-16
230
-1.0
100
AcDbArc
 50
0.0
 51
180.0
  0
LINE
  5
21F
330
1F
100
AcDbEntity
  8
VISIBLE
100
AcDbLine
 10
553.6242090646781
 20
462.509581507614
 30
0.0
 11
553.6242090646781
 21
648.509581507614
 31
0.0
  0
ARC
  5
220
330
1F
100
AcDbEntity
  8
VISIBLE
100
AcDbCircle
 10
-560.6242090646781
 20
462.509581507614
 30
-0.0000000000000562
 40
7.0
210
0.0
220
-1.224646799147353E-16
230
-1.0
100
AcDbArc
 50
180.0
 51
0.0
  0
LINE
  5
221
330
1F
100
AcDbEntity
  8
VISIBLE
100
AcDbLine
 10
567.6242090646781
 20
462.509581507614
 30
0.0
 11
567.6242090646781
 21
648.509581507614
 31
0.0
  0
ARC
  5
222
330
1F
100
AcDbEntity
  8
VISIBLE
100
AcDbCircle
 10
-502.6242090646778
 20
648.509581507614
 30
-0.0000000000000798
 40
7.0
210
0.0
220
-1.224646799147353E-16
230
-1.0
100
AcDbArc
 50
0.0
 51
180.0
  0
LINE
  5
223
330
1F
100
AcDbEntity
  8
VISIBLE
100
AcDbLine
 10
495.6242090646778
 20
462.509581507614
 30
0.0
 11
495.6242090646778
 21
648.509581507614
 31
0.0
  0
ARC
  5
224
330
1F
100
AcDbEntity
  8
VISIBLE
100
AcDbCircle
 10
-502.6242090646778
 20
462.509581507614
 30
-0.0000000000000562
 40
7.0
210
0.0
220
-1.224646799147353E-16
230
-1.0
100
AcDbArc
 50
180.0
 51
0.0
  0
LINE
  5
225
330
1F
100
AcDbEntity
  8
VISIBLE
100
AcDbLine
 10
509.6242090646778
 20
462.509581507614
 30
0.0
 11
509.6242090646778
 21
648.509581507614
 31
0.0
  0
ARC
  5
226
330
1F
100
AcDbEntity
  8
VISIBLE
100
AcDbCircle
 10
-444.6242090646778
 20
648.509581507614
 30
-0.0000000000000798
 40
7.0
210
0.0
220
-1.224646799147353E-16
230
-1.0
100
AcDbArc
 50
0.0
 51
180.0
  0
LINE
  5
227
330
1F
100
AcDbEntity
  8
VISIBLE
100
AcDbLine
 10
437.6242090646778
 20
462.509581507614
 30
0.0
 11
437.6242090646778
 21
648.509581507614
 31
0.0
  0
ARC
  5
228
330
1F
100
AcDbEntity
  8
VISIBLE
100
AcDbCircle
 10
-444.6242090646778
 20
462.509581507614
 30
-0.0000000000000562
 40
7.0
210
0.0
220
-1.224646799147353E-16
230
-1.0
100
AcDbArc
 50
180.0
 51
0.0
  0
LINE
  5
229
330
1F
100
AcDbEntity
  8
VISIBLE
100
AcDbLine
 10
451.6242090646778
 20
462.509581507614
 30
0.0
 11
451.6242090646778
 21
648.509581507614
 31
0.0
  0
ARC
  5
22A
330
1F
100
AcDbEntity
  8
VISIBLE
100
AcDbCircle
 10
-386.6242090646778
 20
648.509581507614
 30
-0.0000000000000798
 40
7.0
210
0.0
220
-1.224646799147353E-16
230
-1.0
100
AcDbArc
 50
0.0
 51
180.0
  0
LINE
  5
22B
330
1F
100
AcDbEntity
  8
VISIBLE
100
AcDbLine
 10
379.6242090646778
 20
462.509581507614
 30
0.0
 11
379.6242090646778
 21
648.509581507614
 31
0.0
  0
ARC
  5
22C
330
1F
100
AcDbEntity
  8
VISIBLE
100
AcDbCircle
 10
-386.6242090646778
 20
462.509581507614
 30
-0.0000000000000562
 40
7.0
210
0.0
220
-1.224646799147353E-16
230
-1.0
100
AcDbArc
 50
180.0
 51
0.0
  0
LINE
  5
22D
330
1F
100
AcDbEntity
  8
VISIBLE
100
AcDbLine
 10
393.6242090646778
 20
462.509581507614
 30
0.0
 11
393.6242090646778
 21
648.509581507614
 31
0.0
  0
ARC
  5
22E
330
1F
100
AcDbEntity
  8
VISIBLE
100
AcDbCircle
 10
-328.6242090646778
 20
648.509581507614
 30
-0.0000000000000798
 40
7.0
210
0.0
220
-1.224646799147353E-16
230
-1.0
100
AcDbArc
 50
0.0
 51
180.0
  0
LINE
  5
22F
330
1F
100
AcDbEntity
  8
VISIBLE
100
AcDbLine
 10
321.6242090646778
 20
462.509581507614
 30
0.0
 11
321.6242090646778
 21
648.509581507614
 31
0.0
  0
ARC
  5
230
330
1F
100
AcDbEntity
  8
VISIBLE
100
AcDbCircle
 10
-328.6242090646778
 20
462.509581507614
 30
-0.0000000000000562
 40
7.0
210
0.0
220
-1.224646799147353E-16
230
-1.0
100
AcDbArc
 50
180.0
 51
0.0
  0
LINE
  5
231
330
1F
100
AcDbEntity
  8
VISIBLE
100
AcDbLine
 10
335.6242090646778
 20
462.509581507614
 30
0.0
 11
335.6242090646778
 21
648.509581507614
 31
0.0
  0
LINE
  5
232
330
1F
100
AcDbEntity
  8
VISIBLE
100
AcDbLine
 10
277.6242090646778
 20
462.509581507614
 30
0.0
 11
277.6242090646778
 21
648.509581507614
 31
0.0
  0
ARC
  5
233
330
1F
100
AcDbEntity
  8
VISIBLE
100
AcDbCircle
 10
-270.6242090646778
 20
648.509581507614
 30
-0.0000000000000798
 40
7.0
210
0.0
220
-1.224646799147353E-16
230
-1.0
100
AcDbArc
 50
0.0
 51
180.0
  0
LINE
  5
234
330
1F
100
AcDbEntity
  8
VISIBLE
100
AcDbLine
 10
263.6242090646778
 20
462.509581507614
 30
0.0
 11
263.6242090646778
 21
648.509581507614
 31
0.0
  0
ARC
  5
235
330
1F
100
AcDbEntity
  8
VISIBLE
100
AcDbCircle
 10
-270.6242090646778
 20
462.509581507614
 30
-0.0000000000000562
 40
7.0
210
0.0
220
-1.224646799147353E-16
230
-1.0
100
AcDbArc
 50
180.0
 51
0.0
  0
ARC
  5
236
330
1F
100
AcDbEntity
  8
VISIBLE
100
AcDbCircle
 10
-167.2647756446243
 20
633.109581507614
 30
-0.0000000000000775
 40
3.24999999999981
210
0.0
220
-1.224646799147353E-16
230
-1.0
100
AcDbArc
 50
270.0
 51
90.0
  0
LINE
  5
237
330
1F
100
AcDbEntity
  8
VISIBLE
100
AcDbLine
 10
209.2647756446244
 20
629.859581507614
 30
0.0
 11
167.2647756446243
 21
629.859581507614
 31
0.0
  0
ARC
  5
238
330
1F
100
AcDbEntity
  8
VISIBLE
100
AcDbCircle
 10
-209.2647756446244
 20
633.109581507614
 30
-0.0000000000000775
 40
3.2499999999998
210
0.0
220
-1.224646799147353E-16
230
-1.0
100
AcDbArc
 50
90.0
 51
270.0
  0
LINE
  5
239
330
1F
100
AcDbEntity
  8
VISIBLE
100
AcDbLine
 10
209.2647756446244
 20
636.359581507614
 30
0.0
 11
167.2647756446243
 21
636.359581507614
 31
0.0
  0
ARC
  5
23A
330
1F
100
AcDbEntity
  8
VISIBLE
100
AcDbCircle
 10
-799.6242090646779
 20
620.509581507614
 30
-0.0000000000000772
 40
20.0
210
0.0
220
-1.224646799147353E-16
230
-1.0
100
AcDbArc
 50
0.0
 51
90.0
  0
LINE
  5
23B
330
1F
100
AcDbEntity
  8
VISIBLE
100
AcDbLine
 10
779.6242090646779
 20
620.509581507614
 30
0.0
 11
779.6242090646779
 21
490.509581507614
 31
0.0
  0
ARC
  5
23C
330
1F
100
AcDbEntity
  8
VISIBLE
100
AcDbCircle
 10
-799.6242090646779
 20
490.509581507614
 30
-0.0000000000000588
 40
20.0
210
0.0
220
-1.224646799147353E-16
230
-1.0
100
AcDbArc
 50
270.0
 51
0.0
  0
LINE
  5
23D
330
1F
100
AcDbEntity
  8
VISIBLE
100
AcDbLine
 10
824.6242090646779
 20
470.509581507614
 30
0.0
 11
799.6242090646779
 21
470.509581507614
 31
0.0
  0
ARC
  5
23E
330
1F
100
AcDbEntity
  8
VISIBLE
100
AcDbCircle
 10
-824.6242090646779
 20
490.509581507614
 30
-0.0000000000000588
 40
20.0
210
0.0
220
-1.224646799147353E-16
230
-1.0
100
AcDbArc
 50
180.0
 51
270.0
  0
LINE
  5
23F
330
1F
100
AcDbEntity
  8
VISIBLE
100
AcDbLine
 10
844.6242090646779
 20
620.509581507614
 30
0.0
 11
844.6242090646779
 21
490.509581507614
 31
0.0
  0
ARC
  5
240
330
1F
100
AcDbEntity
  8
VISIBLE
100
AcDbCircle
 10
-824.6242090646779
 20
620.509581507614
 30
-0.0000000000000772
 40
20.0
210
0.0
220
-1.224646799147353E-16
230
-1.0
100
AcDbArc
 50
90.0
 51
180.0
  0
LINE
  5
241
330
1F
100
AcDbEntity
  8
VISIBLE
100
AcDbLine
 10
824.6242090646779
 20
640.509581507614
 30
0.0
 11
799.6242090646779
 21
640.509581507614
 31
0.0
  0
ARC
  5
242
330
1F
100
AcDbEntity
  8
VISIBLE
100
AcDbCircle
 10
152.6242090646778
 20
458.509581507614
 30
-0.0000000000000011
 40
18.0
100
AcDbArc
 50
179.9999999999998
 51
270.0
  0
ENDSEC
  0
SECTION
  2
OBJECTS
  0
DICTIONARY
  5
C
330
0
100
AcDbDictionary
  3
ACAD_GROUP
350
D
  3
ACAD_LAYOUT
350
1A
  3
ACAD_MATERIAL
350
43
  3
ACAD_MLEADERSTYLE
350
248
  3
ACAD_MLINESTYLE
350
17
  3
ACAD_PLOTSETTINGS
350
19
  3
ACAD_SCALELIST
350
47
  3
ACAD_VISUALSTYLE
350
2A
  3
ACDBVARIABLEDICTIONARY
350
6C
  3
ONSHAPE_DATA
350
243
1001
ACAD
1000
TREAT_AS_HARD
1070
     0
  0
DICTIONARY
  5
D
102
{ACAD_REACTORS
330
C
102
}
330
C
100
AcDbDictionary
1001
ACAD
1000
TREAT_AS_HARD
1070
     0
  0
DICTIONARY
  5
1A
102
{ACAD_REACTORS
330
C
102
}
330
C
100
AcDbDictionary
1001
ACAD
1000
TREAT_AS_HARD
1070
     0
  0
DICTIONARY
  5
43
102
{ACAD_REACTORS
330
C
102
}
330
C
100
AcDbDictionary
  3
BYBLOCK
350
45
  3
BYLAYER
350
44
  3
GLOBAL
350
46
1001
ACAD
1000
TREAT_AS_HARD
1070
     0
  0
DICTIONARY
  5
248
102
{ACAD_REACTORS
330
C
102
}
330
C
100
AcDbDictionary
1001
ACAD
1000
TREAT_AS_HARD
1070
     0
  0
DICTIONARY
  5
17
102
{ACAD_REACTORS
330
C
102
}
330
C
100
AcDbDictionary
  3
STANDARD
350
18
1001
ACAD
1000
TREAT_AS_HARD
1070
     0
  0
DICTIONARY
  5
19
102
{ACAD_REACTORS
330
C
102
}
330
C
100
AcDbDictionary
1001
ACAD
1000
TREAT_AS_HARD
1070
     0
  0
DICTIONARY
  5
47
102
{ACAD_REACTORS
330
C
102
}
330
C
100
AcDbDictionary
  3
A0
350
48
  3
A1
350
49
  3
A2
350
4A
  3
A3
350
4B
  3
A4
350
4C
  3
A5
350
4D
  3
A6
350
4E
  3
A7
350
4F
  3
A8
350
50
  3
A9
350
51
  3
B0
350
52
  3
B1
350
53
  3
B2
350
54
  3
B3
350
55
  3
B4
350
56
  3
B5
350
57
  3
B6
350
58
  3
B7
350
59
  3
B8
350
5A
  3
B9
350
5B
  3
C0
350
5C
  3
C1
350
5D
  3
C2
350
5E
  3
C3
350
5F
  3
C4
350
60
  3
C5
350
61
  3
C6
350
62
  3
C7
350
63
  3
C8
350
64
  3
C9
350
65
  3
D0
350
66
  3
D1
350
67
  3
D2
350
68
1001
ACAD
1000
TREAT_AS_HARD
1070
     0
  0
DICTIONARY
  5
2A
102
{ACAD_REACTORS
330
C
102
}
330
C
100
AcDbDictionary
  3
2DWIREFRAME
350
2F
  3
BASIC
350
32
  3
BRIGHTEN
350
36
  3
COLORCHANGE
350
3A
  3
CONCEPTUAL
350
34
  3
DIM
350
35
  3
EDGECOLOROFF
350
3D
  3
FACEPATTERN
350
39
  3
FLAT
350
2B
  3
FLATWITHEDGES
350
2C
  3
GOURAUD
350
2D
  3
GOURAUDWITHEDGES
350
2E
  3
HIDDEN
350
31
  3
JITTEROFF
350
3B
  3
LINEPATTERN
350
38
  3
OVERHANGOFF
350
3C
  3
REALISTIC
350
33
  3
SHADED
350
42
  3
SHADED_WITH_EDGES
350
41
  3
SHADES_OF_GRAY
350
3E
  3
SKETCHY
350
3F
  3
THICKEN
350
37
  3
WIREFRAME
350
30
  3
X-RAY
350
40
1001
ACAD
1000
TREAT_AS_HARD
1070
     0
  0
DICTIONARY
  5
6C
102
{ACAD_REACTORS
330
C
102
}
330
C
100
AcDbDictionary
  3
CANNOSCALE
350
24F
  3
CTABLESTYLE
350
247
  3
DIMASSOC
350
24D
  3
HIDETEXT
350
24E
  3
MSLTSCALE
350
250
  3
OLEFRAME
350
6D
  3
PSOLHEIGHT
350
24A
  3
PSOLWIDTH
350
249
1001
ACAD
1000
TREAT_AS_HARD
1070
     0
  0
DICTIONARY
  5
243
102
{ACAD_REACTORS
330
C
102
}
330
C
100
AcDbDictionary
  3
DIM_UNITS
360
244
  3
ONSHAPE_VSHARP_EXTENSION
360
246
  3
ONSHAPE_WELD_STANDARD
360
245
1001
ACAD
1000
TREAT_AS_HARD
1070
     1
  0
MATERIAL
  5
45
102
{ACAD_REACTORS
330
43
102
}
102
{ACAD_XDICTIONARY
360
253
102
}
330
43
100
AcDbMaterial
  1
BYBLOCK
  0
MATERIAL
  5
44
102
{ACAD_REACTORS
330
43
102
}
102
{ACAD_XDICTIONARY
360
251
102
}
330
43
100
AcDbMaterial
  1
BYLAYER
  0
MATERIAL
  5
46
102
{ACAD_REACTORS
330
43
102
}
102
{ACAD_XDICTIONARY
360
255
102
}
330
43
100
AcDbMaterial
  1
GLOBAL
  0
MLINESTYLE
  5
18
102
{ACAD_REACTORS
330
17
102
}
330
17
100
AcDbMlineStyle
  2
Standard
 70
     0
  3

 62
   256
 51
90.0
 52
90.0
 71
     2
 49
0.5
 62
   256
  6
BYLAYER
 49
-0.5
 62
   256
  6
BYLAYER
  0
ACAD_PROXY_OBJECT
  5
48
102
{ACAD_REACTORS
330
47
102
}
330
47
100
AcDbZombieObject
 90
      499
 91
      503
 93
       41
310
903313A31580
  0
ACAD_PROXY_OBJECT
  5
49
102
{ACAD_REACTORS
330
47
102
}
330
47
100
AcDbZombieObject
 90
      499
 91
      503
 93
      105
310
903313A324000000000000004000
  0
ACAD_PROXY_OBJECT
  5
4A
102
{ACAD_REACTORS
330
47
102
}
330
47
100
AcDbZombieObject
 90
      499
 91
      503
 93
      105
310
903313A344000000000000104000
  0
ACAD_PROXY_OBJECT
  5
4B
102
{ACAD_REACTORS
330
47
102
}
330
47
100
AcDbZombieObject
 90
      499
 91
      503
 93
      105
310
903313A354000000000000144000
  0
ACAD_PROXY_OBJECT
  5
4C
102
{ACAD_REACTORS
330
47
102
}
330
47
100
AcDbZombieObject
 90
      499
 91
      503
 93
      105
310
903313A384000000000000204000
  0
ACAD_PROXY_OBJECT
  5
4D
102
{ACAD_REACTORS
330
47
102
}
330
47
100
AcDbZombieObject
 90
      499
 91
      503
 93
      113
310
904313A31304000000000000244000
  0
ACAD_PROXY_OBJECT
  5
4E
102
{ACAD_REACTORS
330
47
102
}
330
47
100
AcDbZombieObject
 90
      499
 91
      503
 93
      113
310
904313A31364000000000000304000
  0
ACAD_PROXY_OBJECT
  5
4F
102
{ACAD_REACTORS
330
47
102
}
330
47
100
AcDbZombieObject
 90
      499
 91
      503
 93
      113
310
904313A32304000000000000344000
  0
ACAD_PROXY_OBJECT
  5
50
102
{ACAD_REACTORS
330
47
102
}
330
47
100
AcDbZombieObject
 90
      499
 91
      503
 93
      113
310
904313A333040000000000003E4000
  0
ACAD_PROXY_OBJECT
  5
51
102
{ACAD_REACTORS
330
47
102
}
330
47
100
AcDbZombieObject
 90
      499
 91
      503
 93
      113
310
904313A34304000000000000444000
  0
ACAD_PROXY_OBJECT
  5
52
102
{ACAD_REACTORS
330
47
102
}
330
47
100
AcDbZombieObject
 90
      499
 91
      503
 93
      113
310
904313A35304000000000000494000
  0
ACAD_PROXY_OBJECT
  5
53
102
{ACAD_REACTORS
330
47
102
}
330
47
100
AcDbZombieObject
 90
      499
 91
      503
 93
      121
310
905313A3130304000000000000594000
  0
ACAD_PROXY_OBJECT
  5
54
102
{ACAD_REACTORS
330
47
102
}
330
47
100
AcDbZombieObject
 90
      499
 91
      503
 93
      105
310
903323A310000000000000010100
  0
ACAD_PROXY_OBJECT
  5
55
102
{ACAD_REACTORS
330
47
102
}
330
47
100
AcDbZombieObject
 90
      499
 91
      503
 93
      105
310
903343A310000000000000410100
  0
ACAD_PROXY_OBJECT
  5
56
102
{ACAD_REACTORS
330
47
102
}
330
47
100
AcDbZombieObject
 90
      499
 91
      503
 93
      105
310
903383A310000000000000810100
  0
ACAD_PROXY_OBJECT
  5
57
102
{ACAD_REACTORS
330
47
102
}
330
47
100
AcDbZombieObject
 90
      499
 91
      503
 93
      113
310
90431303A310000000000000910100
  0
ACAD_PROXY_OBJECT
  5
58
102
{ACAD_REACTORS
330
47
102
}
330
47
100
AcDbZombieObject
 90
      499
 91
      503
 93
      121
310
9053130303A310000000000001650100
  0
ACAD_PROXY_OBJECT
  5
59
102
{ACAD_REACTORS
330
47
102
}
330
47
100
AcDbZombieObject
 90
      499
 91
      503
 93
      257
310
90E312F31323822203D2031272D3022000000000000200FC000000000000284000
  0
ACAD_PROXY_OBJECT
  5
5A
102
{ACAD_REACTORS
330
47
102
}
330
47
100
AcDbZombieObject
 90
      499
 91
      503
 93
      249
310
90D312F363422203D2031272D3022000000000000240FC000000000000284000
  0
ACAD_PROXY_OBJECT
  5
5B
102
{ACAD_REACTORS
330
47
102
}
330
47
100
AcDbZombieObject
 90
      499
 91
      503
 93
      249
310
90D312F333222203D2031272D3022000000000000280FC000000000000284000
  0
ACAD_PROXY_OBJECT
  5
5C
102
{ACAD_REACTORS
330
47
102
}
330
47
100
AcDbZombieObject
 90
      499
 91
      503
 93
      249
310
90D312F313622203D2031272D30220000000000002C0FC000000000000284000
  0
ACAD_PROXY_OBJECT
  5
5D
102
{ACAD_REACTORS
330
47
102
}
330
47
100
AcDbZombieObject
 90
      499
 91
      503
 93
      249
310
90D332F333222203D2031272D30220000000000002E0FC000000000000284000
  0
ACAD_PROXY_OBJECT
  5
5E
102
{ACAD_REACTORS
330
47
102
}
330
47
100
AcDbZombieObject
 90
      499
 91
      503
 93
      241
310
90C312F3822203D2031272D3022000000000000300FC000000000000284000
  0
ACAD_PROXY_OBJECT
  5
5F
102
{ACAD_REACTORS
330
47
102
}
330
47
100
AcDbZombieObject
 90
      499
 91
      503
 93
      249
310
90D332F313622203D2031272D3022000000000000320FC000000000000284000
  0
ACAD_PROXY_OBJECT
  5
60
102
{ACAD_REACTORS
330
47
102
}
330
47
100
AcDbZombieObject
 90
      499
 91
      503
 93
      241
310
90C312F3422203D2031272D3022000000000000340FC000000000000284000
  0
ACAD_PROXY_OBJECT
  5
61
102
{ACAD_REACTORS
330
47
102
}
330
47
100
AcDbZombieObject
 90
      499
 91
      503
 93
      241
310
90C332F3822203D2031272D3022000000000000360FC000000000000284000
  0
ACAD_PROXY_OBJECT
  5
62
102
{ACAD_REACTORS
330
47
102
}
330
47
100
AcDbZombieObject
 90
      499
 91
      503
 93
      241
310
90C312F3222203D2031272D3022000000000000380FC000000000000284000
  0
ACAD_PROXY_OBJECT
  5
63
102
{ACAD_REACTORS
330
47
102
}
330
47
100
AcDbZombieObject
 90
      499
 91
      503
 93
      241
310
90C332F3422203D2031272D30220000000000003A0FC000000000000284000
  0
ACAD_PROXY_OBJECT
  5
64
102
{ACAD_REACTORS
330
47
102
}
330
47
100
AcDbZombieObject
 90
      499
 91
      503
 93
      161
310
90A3122203D2031272D30224000000000000284000
  0
ACAD_PROXY_OBJECT
  5
65
102
{ACAD_REACTORS
330
47
102
}
330
47
100
AcDbZombieObject
 90
      499
 91
      503
 93
      257
310
90E312D312F3222203D2031272D30220000000000003E0FC000000000000284000
  0
ACAD_PROXY_OBJECT
  5
66
102
{ACAD_REACTORS
330
47
102
}
330
47
100
AcDbZombieObject
 90
      499
 91
      503
 93
      225
310
90A3322203D2031272D302200000000000002100000000000000284000
  0
ACAD_PROXY_OBJECT
  5
67
102
{ACAD_REACTORS
330
47
102
}
330
47
100
AcDbZombieObject
 90
      499
 91
      503
 93
      225
310
90A3622203D2031272D302200000000000006100000000000000284000
  0
ACAD_PROXY_OBJECT
  5
68
102
{ACAD_REACTORS
330
47
102
}
330
47
100
AcDbZombieObject
 90
      499
 91
      503
 93
      249
310
90D31272D3022203D2031272D30220000000000000A100000000000000284000
  0
ACAD_PROXY_OBJECT
  5
2F
102
{ACAD_REACTORS
330
2A
102
}
330
2A
100
AcDbZombieObject
 90
      499
 91
      501
 93
      436
310
42CC9915DA5C99599C985B595049028333333333333E33F0000000000000F90107901411070040501600405405064090741402480A0340
1001
ACAD
1000
AcDbSavedByObjectVersion
1070
     0
  0
ACAD_PROXY_OBJECT
  5
32
102
{ACAD_REACTORS
330
2A
102
}
330
2A
100
AcDbZombieObject
 90
      499
 91
      501
 93
      388
310
4150985CDA58D07406404333333333333E33F0000000000000F90107A41107004050150841D405064090741402480A0350
1001
ACAD
1000
AcDbSavedByObjectVersion
1070
     0
  0
ACAD_PROXY_OBJECT
  5
36
102
{ACAD_REACTORS
330
2A
102
}
330
2A
100
AcDbZombieObject
 90
      499
 91
      501
 93
      428
310
42109C9A59DA1D195B90C409028333333333333E33F0000000000000F9010790141107004050150841D405064090741402480A029950
1001
ACAD
1000
AcDbSavedByObjectVersion
1070
     0
  0
ACAD_PROXY_OBJECT
  5
3A
102
{ACAD_REACTORS
330
2A
102
}
330
2A
100
AcDbZombieObject
 90
      499
 91
      501
 93
      452
310
42D0DBDB1BDC90DA185B99D95104090240C333333333333E33F0000000000000F90108901411070040501508421405064090741402480A0350
1001
ACAD
1000
AcDbSavedByObjectVersion
1070
     0
  0
ACAD_PROXY_OBJECT
  5
34
102
{ACAD_REACTORS
330
2A
102
}
330
2A
100
AcDbZombieObject
 90
      499
 91
      501
 93
      500
310
4290DBDB98D95C1D1D585B10940D028333333333333E33F0000000000000F90107902409070040501000000000018199010841D405064090740C02480A0340
1001
ACAD
1000
AcDbSavedByObjectVersion
1070
     0
  0
ACAD_PROXY_OBJECT
  5
35
102
{ACAD_REACTORS
330
2A
102
}
330
2A
100
AcDbZombieObject
 90
      499
 91
      501
 93
      412
310
40D11A5B50B409028333333333333E33F0000000000000F9010790141107004050150841D405064090741402480A02677FFFFFD0
1001
ACAD
1000
AcDbSavedByObjectVersion
1070
     0
  0
ACAD_PROXY_OBJECT
  5
3D
102
{ACAD_REACTORS
330
2A
102
}
330
2A
100
AcDbZombieObject
 90
      499
 91
      501
 93
      452
310
43115919D950DBDB1BDC93D999916409028333333333333E33F0000000000000F9010790141107004050150841D405064090741402480A0350
1001
ACAD
1000
AcDbSavedByObjectVersion
1070
     0
  0
ACAD_PROXY_OBJECT
  5
39
102
{ACAD_REACTORS
330
2A
102
}
330
2A
100
AcDbZombieObject
 90
      499
 91
      501
 93
      444
310
42D19858D95C185D1D195C9B90F409028333333333333E33F0000000000000F9010790141107004050150841D405064090741402480A0350
1001
ACAD
1000
AcDbSavedByObjectVersion
1070
     0
  0
ACAD_PROXY_OBJECT
  5
2B
102
{ACAD_REACTORS
330
2A
102
}
330
2A
100
AcDbZombieObject
 90
      499
 91
      501
 93
      380
310
41119B185D240901404333333333333E33F0000000000000F9010740A907004050150841D405064090741402480A1B50
1001
ACAD
1000
AcDbSavedByObjectVersion
1070
     0
  0
ACAD_PROXY_OBJECT
  5
2C
102
{ACAD_REACTORS
330
2A
102
}
330
2A
100
AcDbZombieObject
 90
      499
 91
      501
 93
      468
310
43519B185D15DA5D1A115919D95CD0140901404333333333333E33F0000000000000F90107409019070040501600405405064090741402480A1B50
1001
ACAD
1000
AcDbSavedByObjectVersion
1070
     0
  0
ACAD_PROXY_OBJECT
  5
2D
102
{ACAD_REACTORS
330
2A
102
}
330
2A
100
AcDbZombieObject
 90
      499
 91
      501
 93
      404
310
41D1DBDD5C985D5910240902404333333333333E33F0000000000000F9010740A9070040501641D405064090741402480A1B50
1001
ACAD
1000
AcDbSavedByObjectVersion
1070
     0
  0
ACAD_PROXY_OBJECT
  5
2E
102
{ACAD_REACTORS
330
2A
102
}
330
2A
100
AcDbZombieObject
 90
      499
 91
      501
 93
      492
310
4411DBDD5C985D5915DA5D1A115919D95CD0340902404333333333333E33F0000000000000F90107409019070040501600405405064090741402480A1B50
1001
ACAD
1000
AcDbSavedByObjectVersion
1070
     0
  0
ACAD_PROXY_OBJECT
  5
31
102
{ACAD_REACTORS
330
2A
102
}
330
2A
100
AcDbZombieObject
 90
      499
 91
      501
 93
      476
310
41921A5919195B90640502408333333333333E33F0000000000000F901079024090700405020000000000001110200405405064090740C02480A0340
1001
ACAD
1000
AcDbSavedByObjectVersion
1070
     0
  0
ACAD_PROXY_OBJECT
  5
3B
102
{ACAD_REACTORS
330
2A
102
}
330
2A
100
AcDbZombieObject
 90
      499
 91
      501
 93
      428
310
42529A5D1D195C93D999914409028333333333333E33F0000000000000F9010790141107004050150A41D405064090741402480A0350
1001
ACAD
1000
AcDbSavedByObjectVersion
1070
     0
  0
ACAD_PROXY_OBJECT
  5
38
102
{ACAD_REACTORS
330
2A
102
}
330
2A
100
AcDbZombieObject
 90
      499
 91
      501
 93
      444
310
42D31A5B995C185D1D195C9B90E409028333333333333E33F0000000000000F9010790141107004050750841D405064090741402483A0350
1001
ACAD
1000
AcDbSavedByObjectVersion
1070
     0
  0
ACAD_PROXY_OBJECT
  5
3C
102
{ACAD_REACTORS
330
2A
102
}
330
2A
100
AcDbZombieObject
 90
      499
 91
      501
 93
      444
310
42D3DD995C9A185B99D3D999915409028333333333333E33F0000000000000F9010790141107004050150941D405064090741402480A0350
1001
ACAD
1000
AcDbSavedByObjectVersion
1070
     0
  0
ACAD_PROXY_OBJECT
  5
33
102
{ACAD_REACTORS
330
2A
102
}
330
2A
100
AcDbZombieObject
 90
      499
 91
      501
 93
      428
310
425499585B1A5CDD1A58D08409038333333333333E33F0000000000000F9010740A907004050150800405405064090740C02480A1B40
1001
ACAD
1000
AcDbSavedByObjectVersion
1070
     0
  0
ACAD_PROXY_OBJECT
  5
42
102
{ACAD_REACTORS
330
2A
102
}
330
2A
100
AcDbZombieObject
 90
      499
 91
      501
 93
      420
310
4194DA1859195911B40902404333333333333E33F0000000000000F9010740A41107004050150800405405064090840C02480A0B40
1001
ACAD
1000
AcDbSavedByObjectVersion
1070
     0
  0
ACAD_PROXY_OBJECT
  5
41
102
{ACAD_REACTORS
330
2A
102
}
330
2A
100
AcDbZombieObject
 90
      499
 91
      501
 93
      516
310
4454DA18591959081DDA5D1A08195919D95CD1A40902404333333333333E33F0000000000000F901074090142907004050250800405405064090740C02480A0B40
1001
ACAD
1000
AcDbSavedByObjectVersion
1070
     0
  0
ACAD_PROXY_OBJECT
  5
3E
102
{ACAD_REACTORS
330
2A
102
}
330
2A
100
AcDbZombieObject
 90
      499
 91
      501
 93
      532
310
4394DA1859195CC81BD98811DC985E5174090240C333333333333E33F0000000000000F901079024090741D01000000000000111010841D405064090740C02480A0340
1001
ACAD
1000
AcDbSavedByObjectVersion
1070
     0
  0
ACAD_PROXY_OBJECT
  5
3F
102
{ACAD_REACTORS
330
2A
102
}
330
2A
100
AcDbZombieObject
 90
      499
 91
      501
 93
      476
310
41D4DAD95D18DA1E51840502408333333333333E33F0000000000000F901079024090741D01000000000000111010B41D405064090741802480A0340
1001
ACAD
1000
AcDbSavedByObjectVersion
1070
     0
  0
ACAD_PROXY_OBJECT
  5
37
102
{ACAD_REACTORS
330
2A
102
}
330
2A
100
AcDbZombieObject
 90
      499
 91
      501
 93
      412
310
41D51A1A58DAD95B90D409028333333333333E33F0000000000000F9010790141107004050150C41D405064090741402480A0350
1001
ACAD
1000
AcDbSavedByObjectVersion
1070
     0
  0
ACAD_PROXY_OBJECT
  5
30
102
{ACAD_REACTORS
330
2A
102
}
330
2A
100
AcDbZombieObject
 90
      499
 91
      501
 93
      420
310
4255DA5C99599C985B595059028333333333333E33F0000000000000F90107901411070040501600405405064090740C02480A0340
1001
ACAD
1000
AcDbSavedByObjectVersion
1070
     0
  0
ACAD_PROXY_OBJECT
  5
40
102
{ACAD_REACTORS
330
2A
102
}
330
2A
100
AcDbZombieObject
 90
      499
 91
      501
 93
      404
310
41560B54985E51940902404000000000000E03F0000000000000F9010740501907004050150841D405064090740C02480A1B40
1001
ACAD
1000
AcDbSavedByObjectVersion
1070
     0
  0
DICTIONARYVAR
  5
24F
102
{ACAD_REACTORS
330
6C
102
}
330
6C
100
DictionaryVariables
280
     0
  1
1:1
  0
DICTIONARYVAR
  5
247
102
{ACAD_REACTORS
330
6C
102
}
330
6C
100
DictionaryVariables
280
     0
  1
Standard
  0
DICTIONARYVAR
  5
24D
102
{ACAD_REACTORS
330
6C
102
}
330
6C
100
DictionaryVariables
280
     0
  1
2
  0
DICTIONARYVAR
  5
24E
102
{ACAD_REACTORS
330
6C
102
}
330
6C
100
DictionaryVariables
280
     0
  1
1
  0
DICTIONARYVAR
  5
250
102
{ACAD_REACTORS
330
6C
102
}
330
6C
100
DictionaryVariables
280
     0
  1
1
  0
DICTIONARYVAR
  5
6D
102
{ACAD_REACTORS
330
6C
102
}
330
6C
100
DictionaryVariables
280
     0
  1
0
  0
DICTIONARYVAR
  5
24A
102
{ACAD_REACTORS
330
6C
102
}
330
6C
100
DictionaryVariables
280
     0
  1
80.000000
  0
DICTIONARYVAR
  5
249
102
{ACAD_REACTORS
330
6C
102
}
330
6C
100
DictionaryVariables
280
     0
  1
5.000000
  0
XRECORD
  5
244
102
{ACAD_REACTORS
330
243
102
}
330
243
100
AcDbXrecord
 70
     4
  0
XRECORD
  5
246
102
{ACAD_REACTORS
330
243
102
}
330
243
100
AcDbXrecord
 90
        0
  0
XRECORD
  5
245
102
{ACAD_REACTORS
330
243
102
}
330
243
100
AcDbXrecord
 90
        1
  0
DICTIONARY
  5
253
330
45
100
AcDbDictionary
  3
ACAD_XREC_ROUNDTRIP
360
254
1001
ACAD
1000
TREAT_AS_HARD
1070
     1
  0
DICTIONARY
  5
251
330
44
100
AcDbDictionary
  3
ACAD_XREC_ROUNDTRIP
360
252
1001
ACAD
1000
TREAT_AS_HARD
1070
     1
  0
DICTIONARY
  5
255
330
46
100
AcDbDictionary
  3
ACAD_XREC_ROUNDTRIP
360
256
1001
ACAD
1000
TREAT_AS_HARD
1070
     1
  0
XRECORD
  5
254
102
{ACAD_REACTORS
330
253
102
}
330
253
100
AcDbXrecord
102
MATERIAL
148
0.0
149
0.0
149
0.0
 93
        0
 94
      127
282
     0
 72
     1
 77
     1
171
     1
175
     1
179
     1
273
     0
  0
XRECORD
  5
252
102
{ACAD_REACTORS
330
251
102
}
330
251
100
AcDbXrecord
102
MATERIAL
148
0.0
149
0.0
149
0.0
 93
        0
 94
      127
282
     0
 72
     1
 77
     1
171
     1
175
     1
179
     1
273
     0
  0
XRECORD
  5
256
102
{ACAD_REACTORS
330
255
102
}
330
255
100
AcDbXrecord
102
MATERIAL
148
0.0
149
0.0
149
0.0
 93
        0
 94
      127
282
     0
 72
     1
 77
     1
171
     1
175
     1
179
     1
273
     0
  0
ENDSEC
  0
EOF
