<?xml version="1.0" encoding="UTF-8" standalone="no"?>
<svg
   xmlns:dc="http://purl.org/dc/elements/1.1/"
   xmlns:cc="http://creativecommons.org/ns#"
   xmlns:rdf="http://www.w3.org/1999/02/22-rdf-syntax-ns#"
   xmlns:svg="http://www.w3.org/2000/svg"
   xmlns="http://www.w3.org/2000/svg"
   xmlns:sodipodi="http://sodipodi.sourceforge.net/DTD/sodipodi-0.dtd"
   xmlns:inkscape="http://www.inkscape.org/namespaces/inkscape"
   width="793.700787402"
   height="1122.51968504"
   version="1.1"
   id="svg5466"
   sodipodi:docname="Dish Rack Parts To Cut.svg"
   inkscape:version="0.92.1 r15371">
  <metadata
     id="metadata5470">
    <rdf:RDF>
      <cc:Work
         rdf:about="">
        <dc:format>image/svg+xml</dc:format>
        <dc:type
           rdf:resource="http://purl.org/dc/dcmitype/StillImage" />
        <dc:title></dc:title>
      </cc:Work>
    </rdf:RDF>
  </metadata>
  <sodipodi:namedview
     pagecolor="#ffffff"
     bordercolor="#666666"
     borderopacity="1"
     objecttolerance="10"
     gridtolerance="10"
     guidetolerance="10"
     inkscape:pageopacity="0"
     inkscape:pageshadow="2"
     inkscape:window-width="1366"
     inkscape:window-height="705"
     id="namedview5468"
     showgrid="false"
     inkscape:zoom="0.059687151"
     inkscape:cx="-1334.8586"
     inkscape:cy="814.63059"
     inkscape:window-x="-8"
     inkscape:window-y="-8"
     inkscape:window-maximized="1"
     inkscape:current-layer="g5464" />
  <desc
     id="desc4446">C:\Users\Bar\Desktop\Dish Rack Parts To Cut (1).dxf - scale = 1.000000, origin = (0.000000, 0.000000), method = manual</desc>
  <defs
     id="defs4460">
    <marker
       id="DistanceX"
       orient="auto"
       refX="0.0"
       refY="0.0"
       style="overflow:visible">
      <path
         d="M 3,-3 L -3,3 M 0,-5 L  0,5"
         style="stroke:#000000; stroke-width:0.5"
         id="path4448" />
    </marker>
    <pattern
       height="8"
       id="Hatch"
       patternUnits="userSpaceOnUse"
       width="8"
       x="0"
       y="0">
      <path
         d="M8 4 l-4,4"
         linecap="square"
         stroke="#000000"
         stroke-width="0.25"
         id="path4451" />
      <path
         d="M6 2 l-4,4"
         linecap="square"
         stroke="#000000"
         stroke-width="0.25"
         id="path4453" />
      <path
         d="M4 0 l-4,4"
         linecap="square"
         stroke="#000000"
         stroke-width="0.25"
         id="path4455" />
    </pattern>
    <symbol
       id="*MODEL_SPACE" />
    <symbol
       id="*PAPER_SPACE" />
  </defs>
  <g
     inkscape:groupmode="layer"
     inkscape:label="0"
     id="g4462" />
  <g
     inkscape:groupmode="layer"
     inkscape:label="ANNOTATION_TEXT"
     id="g4484">
    <text
       style="font-size: 13.2px; fill: #000000; font-family: Arial"
       x="2054.133849"
       y="-1383.289478"
       id="text4466">
      <tspan
         sodipodi:role="line"
         id="tspan4464" />
    </text>
    <text
       style="font-size: 13.2px; fill: #000000; font-family: Arial"
       x="1392.260526"
       y="900.618555"
       id="text4470">
      <tspan
         sodipodi:role="line"
         id="tspan4468" />
    </text>
    <text
       style="font-size: 13.2px; fill: #000000; font-family: Arial"
       x="2390.420772"
       y="921.045705"
       id="text4474">
      <tspan
         sodipodi:role="line"
         id="tspan4472" />
    </text>
    <text
       style="font-size: 13.2px; fill: #000000; font-family: Arial"
       x="3362.245872"
       y="1002.737049"
       id="text4478">
      <tspan
         sodipodi:role="line"
         id="tspan4476" />
    </text>
    <text
       style="font-size: 13.2px; fill: #000000; font-family: Arial"
       x="2058.422207"
       y="-380.823615"
       id="text4482">
      <tspan
         sodipodi:role="line"
         id="tspan4480" />
    </text>
  </g>
  <g
     inkscape:groupmode="layer"
     inkscape:label="VISIBLE"
     id="g5254">
    <path
       d="M 572.559046,-2395.257982 A 49.133858,49.133858 -0.000000 0 0 523.425187,-2346.124124"
       style="stroke:#000000;fill:none"
       id="path4486" />
    <path
       d="M 3535.708652,-2395.257982 572.559046,-2395.257982"
       style="stroke:#000000;fill:none"
       id="path4488" />
    <path
       d="M 3584.842510,-2346.124124 A 49.133858,49.133858 -0.000000 0 0 3535.708652,-2395.257982"
       style="stroke:#000000;fill:none"
       id="path4490" />
    <path
       d="M 3584.842510,-1612.895777 3584.842510,-2346.124124"
       style="stroke:#000000;fill:none"
       id="path4492" />
    <path
       d="M 3535.708652,-1563.761919 A 49.133858,49.133858 -0.000000 0 0 3584.842510,-1612.895777"
       style="stroke:#000000;fill:none"
       id="path4494" />
    <path
       d="M 572.559046,-1563.761919 3535.708652,-1563.761919"
       style="stroke:#000000;fill:none"
       id="path4496" />
    <path
       d="M 523.425187,-1612.895777 A 49.133858,49.133858 -0.000000 0 0 572.559046,-1563.761919"
       style="stroke:#000000;fill:none"
       id="path4498" />
    <path
       d="M 523.425187,-2346.124124 523.425187,-1612.895777"
       style="stroke:#000000;fill:none"
       id="path4500" />
    <path
       d="M 3286.405422,-1792.990266 3445.145580,-1792.990266"
       style="stroke:#000000;fill:none"
       id="path4502" />
    <path
       d="M 3286.405422,-1792.990266 A 31.181102,31.181102 -0.000000 0 0 3286.405422,-1730.628061"
       style="stroke:#000000;fill:none"
       id="path4504" />
    <path
       d="M 3445.145580,-1730.628061 3286.405422,-1730.628061"
       style="stroke:#000000;fill:none"
       id="path4506" />
    <path
       d="M 3445.145580,-1730.628061 A 31.181102,31.181102 -0.000000 0 0 3445.145580,-1792.990266"
       style="stroke:#000000;fill:none"
       id="path4508" />
    <path
       d="M 663.413296,-1792.990266 822.153454,-1792.990266"
       style="stroke:#000000;fill:none"
       id="path4510" />
    <path
       d="M 663.413296,-1792.990266 A 31.181102,31.181102 -0.000000 0 0 663.413296,-1730.628061"
       style="stroke:#000000;fill:none"
       id="path4512" />
    <path
       d="M 822.153454,-1730.628061 663.413296,-1730.628061"
       style="stroke:#000000;fill:none"
       id="path4514" />
    <path
       d="M 822.153454,-1730.628061 A 31.181102,31.181102 -0.000000 0 0 822.153454,-1792.990266"
       style="stroke:#000000;fill:none"
       id="path4516" />
    <path
       d="M 946.732274,-2334.785541 A 41.574803,41.574803 -0.000000 0 0 863.582668,-2334.785541"
       style="stroke:#000000;fill:none"
       id="path4518" />
    <path
       d="M 863.582668,-1624.234360 863.582668,-2334.785541"
       style="stroke:#000000;fill:none"
       id="path4520" />
    <path
       d="M 863.582668,-1624.234360 A 41.574803,41.574803 -0.000000 0 0 946.732274,-1624.234360"
       style="stroke:#000000;fill:none"
       id="path4522" />
    <path
       d="M 946.732274,-2334.785541 946.732274,-1624.234360"
       style="stroke:#000000;fill:none"
       id="path4524" />
    <path
       d="M 1037.440935,-2334.785541 A 41.574803,41.574803 -0.000000 0 0 954.291329,-2334.785541"
       style="stroke:#000000;fill:none"
       id="path4526" />
    <path
       d="M 954.291329,-1624.234360 954.291329,-2334.785541"
       style="stroke:#000000;fill:none"
       id="path4528" />
    <path
       d="M 954.291329,-1624.234360 A 41.574803,41.574803 -0.000000 0 0 1037.440935,-1624.234360"
       style="stroke:#000000;fill:none"
       id="path4530" />
    <path
       d="M 1037.440935,-2334.785541 1037.440935,-1624.234360"
       style="stroke:#000000;fill:none"
       id="path4532" />
    <path
       d="M 1128.149597,-2334.785541 A 41.574803,41.574803 -0.000000 0 0 1044.999990,-2334.785541"
       style="stroke:#000000;fill:none"
       id="path4534" />
    <path
       d="M 1044.999990,-1624.234360 1044.999990,-2334.785541"
       style="stroke:#000000;fill:none"
       id="path4536" />
    <path
       d="M 1044.999990,-1624.234360 A 41.574803,41.574803 -0.000000 0 0 1128.149597,-1624.234360"
       style="stroke:#000000;fill:none"
       id="path4538" />
    <path
       d="M 1128.149597,-2334.785541 1128.149597,-1624.234360"
       style="stroke:#000000;fill:none"
       id="path4540" />
    <path
       d="M 1218.858258,-2334.785541 A 41.574803,41.574803 -0.000000 0 0 1135.708652,-2334.785541"
       style="stroke:#000000;fill:none"
       id="path4542" />
    <path
       d="M 1135.708652,-1624.234360 1135.708652,-2334.785541"
       style="stroke:#000000;fill:none"
       id="path4544" />
    <path
       d="M 1135.708652,-1624.234360 A 41.574803,41.574803 -0.000000 0 0 1218.858258,-1624.234360"
       style="stroke:#000000;fill:none"
       id="path4546" />
    <path
       d="M 1218.858258,-2334.785541 1218.858258,-1624.234360"
       style="stroke:#000000;fill:none"
       id="path4548" />
    <path
       d="M 1309.566920,-2334.785541 A 41.574803,41.574803 -0.000000 0 0 1226.417313,-2334.785541"
       style="stroke:#000000;fill:none"
       id="path4550" />
    <path
       d="M 1226.417313,-1624.234360 1226.417313,-2334.785541"
       style="stroke:#000000;fill:none"
       id="path4552" />
    <path
       d="M 1226.417313,-1624.234360 A 41.574803,41.574803 -0.000000 0 0 1309.566920,-1624.234360"
       style="stroke:#000000;fill:none"
       id="path4554" />
    <path
       d="M 1309.566920,-2334.785541 1309.566920,-1624.234360"
       style="stroke:#000000;fill:none"
       id="path4556" />
    <path
       d="M 1400.275581,-2334.785541 A 41.574803,41.574803 -0.000000 0 0 1317.125975,-2334.785541"
       style="stroke:#000000;fill:none"
       id="path4558" />
    <path
       d="M 1317.125975,-1624.234360 1317.125975,-2334.785541"
       style="stroke:#000000;fill:none"
       id="path4560" />
    <path
       d="M 1317.125975,-1624.234360 A 41.574803,41.574803 -0.000000 0 0 1400.275581,-1624.234360"
       style="stroke:#000000;fill:none"
       id="path4562" />
    <path
       d="M 1400.275581,-2334.785541 1400.275581,-1624.234360"
       style="stroke:#000000;fill:none"
       id="path4564" />
    <path
       d="M 1490.984242,-2334.785541 A 41.574803,41.574803 -0.000000 0 0 1407.834636,-2334.785541"
       style="stroke:#000000;fill:none"
       id="path4566" />
    <path
       d="M 1407.834636,-1624.234360 1407.834636,-2334.785541"
       style="stroke:#000000;fill:none"
       id="path4568" />
    <path
       d="M 1407.834636,-1624.234360 A 41.574803,41.574803 -0.000000 0 0 1490.984242,-1624.234360"
       style="stroke:#000000;fill:none"
       id="path4570" />
    <path
       d="M 1490.984242,-2334.785541 1490.984242,-1624.234360"
       style="stroke:#000000;fill:none"
       id="path4572" />
    <path
       d="M 1581.692904,-2334.785541 A 41.574803,41.574803 -0.000000 0 0 1498.543298,-2334.785541"
       style="stroke:#000000;fill:none"
       id="path4574" />
    <path
       d="M 1498.543298,-1624.234360 1498.543298,-2334.785541"
       style="stroke:#000000;fill:none"
       id="path4576" />
    <path
       d="M 1498.543298,-1624.234360 A 41.574803,41.574803 -0.000000 0 0 1581.692904,-1624.234360"
       style="stroke:#000000;fill:none"
       id="path4578" />
    <path
       d="M 1581.692904,-2334.785541 1581.692904,-1624.234360"
       style="stroke:#000000;fill:none"
       id="path4580" />
    <path
       d="M 1672.401565,-2334.785541 A 41.574803,41.574803 -0.000000 0 0 1589.251959,-2334.785541"
       style="stroke:#000000;fill:none"
       id="path4582" />
    <path
       d="M 1589.251959,-1624.234360 1589.251959,-2334.785541"
       style="stroke:#000000;fill:none"
       id="path4584" />
    <path
       d="M 1589.251959,-1624.234360 A 41.574803,41.574803 -0.000000 0 0 1672.401565,-1624.234360"
       style="stroke:#000000;fill:none"
       id="path4586" />
    <path
       d="M 1672.401565,-2334.785541 1672.401565,-1624.234360"
       style="stroke:#000000;fill:none"
       id="path4588" />
    <path
       d="M 1763.110227,-2334.785541 A 41.574803,41.574803 -0.000000 0 0 1679.960620,-2334.785541"
       style="stroke:#000000;fill:none"
       id="path4590" />
    <path
       d="M 1679.960620,-1624.234360 1679.960620,-2334.785541"
       style="stroke:#000000;fill:none"
       id="path4592" />
    <path
       d="M 1679.960620,-1624.234360 A 41.574803,41.574803 -0.000000 0 0 1763.110227,-1624.234360"
       style="stroke:#000000;fill:none"
       id="path4594" />
    <path
       d="M 1763.110227,-2334.785541 1763.110227,-1624.234360"
       style="stroke:#000000;fill:none"
       id="path4596" />
    <path
       d="M 1853.818888,-2334.785541 A 41.574803,41.574803 -0.000000 0 0 1770.669282,-2334.785541"
       style="stroke:#000000;fill:none"
       id="path4598" />
    <path
       d="M 1770.669282,-1624.234360 1770.669282,-2334.785541"
       style="stroke:#000000;fill:none"
       id="path4600" />
    <path
       d="M 1770.669282,-1624.234360 A 41.574803,41.574803 -0.000000 0 0 1853.818888,-1624.234360"
       style="stroke:#000000;fill:none"
       id="path4602" />
    <path
       d="M 1853.818888,-2334.785541 1853.818888,-1624.234360"
       style="stroke:#000000;fill:none"
       id="path4604" />
    <path
       d="M 1944.527550,-2334.785541 A 41.574803,41.574803 -0.000000 0 0 1861.377943,-2334.785541"
       style="stroke:#000000;fill:none"
       id="path4606" />
    <path
       d="M 1861.377943,-1624.234360 1861.377943,-2334.785541"
       style="stroke:#000000;fill:none"
       id="path4608" />
    <path
       d="M 1861.377943,-1624.234360 A 41.574803,41.574803 -0.000000 0 0 1944.527550,-1624.234360"
       style="stroke:#000000;fill:none"
       id="path4610" />
    <path
       d="M 1944.527550,-2334.785541 1944.527550,-1624.234360"
       style="stroke:#000000;fill:none"
       id="path4612" />
    <path
       d="M 2035.236211,-2334.785541 A 41.574803,41.574803 -0.000000 0 0 1952.086605,-2334.785541"
       style="stroke:#000000;fill:none"
       id="path4614" />
    <path
       d="M 1952.086605,-1624.234360 1952.086605,-2334.785541"
       style="stroke:#000000;fill:none"
       id="path4616" />
    <path
       d="M 1952.086605,-1624.234360 A 41.574803,41.574803 -0.000000 0 0 2035.236211,-1624.234360"
       style="stroke:#000000;fill:none"
       id="path4618" />
    <path
       d="M 2035.236211,-2334.785541 2035.236211,-1624.234360"
       style="stroke:#000000;fill:none"
       id="path4620" />
    <path
       d="M 2125.944872,-2334.785541 A 41.574803,41.574803 -0.000000 0 0 2042.795266,-2334.785541"
       style="stroke:#000000;fill:none"
       id="path4622" />
    <path
       d="M 2042.795266,-1624.234360 2042.795266,-2334.785541"
       style="stroke:#000000;fill:none"
       id="path4624" />
    <path
       d="M 2042.795266,-1624.234360 A 41.574803,41.574803 -0.000000 0 0 2125.944872,-1624.234360"
       style="stroke:#000000;fill:none"
       id="path4626" />
    <path
       d="M 2125.944872,-2334.785541 2125.944872,-1624.234360"
       style="stroke:#000000;fill:none"
       id="path4628" />
    <path
       d="M 2216.653534,-2334.785541 A 41.574803,41.574803 -0.000000 0 0 2133.503928,-2334.785541"
       style="stroke:#000000;fill:none"
       id="path4630" />
    <path
       d="M 2133.503928,-1624.234360 2133.503928,-2334.785541"
       style="stroke:#000000;fill:none"
       id="path4632" />
    <path
       d="M 2133.503928,-1624.234360 A 41.574803,41.574803 -0.000000 0 0 2216.653534,-1624.234360"
       style="stroke:#000000;fill:none"
       id="path4634" />
    <path
       d="M 2216.653534,-2334.785541 2216.653534,-1624.234360"
       style="stroke:#000000;fill:none"
       id="path4636" />
    <path
       d="M 2307.362195,-2334.785541 A 41.574803,41.574803 -0.000000 0 0 2224.212589,-2334.785541"
       style="stroke:#000000;fill:none"
       id="path4638" />
    <path
       d="M 2224.212589,-1624.234360 2224.212589,-2334.785541"
       style="stroke:#000000;fill:none"
       id="path4640" />
    <path
       d="M 2224.212589,-1624.234360 A 41.574803,41.574803 -0.000000 0 0 2307.362195,-1624.234360"
       style="stroke:#000000;fill:none"
       id="path4642" />
    <path
       d="M 2307.362195,-2334.785541 2307.362195,-1624.234360"
       style="stroke:#000000;fill:none"
       id="path4644" />
    <path
       d="M 2398.070857,-2334.785541 A 41.574803,41.574803 -0.000000 0 0 2314.921250,-2334.785541"
       style="stroke:#000000;fill:none"
       id="path4646" />
    <path
       d="M 2314.921250,-1624.234360 2314.921250,-2334.785541"
       style="stroke:#000000;fill:none"
       id="path4648" />
    <path
       d="M 2314.921250,-1624.234360 A 41.574803,41.574803 -0.000000 0 0 2398.070857,-1624.234360"
       style="stroke:#000000;fill:none"
       id="path4650" />
    <path
       d="M 2398.070857,-2334.785541 2398.070857,-1624.234360"
       style="stroke:#000000;fill:none"
       id="path4652" />
    <path
       d="M 2488.779518,-2334.785541 A 41.574803,41.574803 -0.000000 0 0 2405.629912,-2334.785541"
       style="stroke:#000000;fill:none"
       id="path4654" />
    <path
       d="M 2405.629912,-1624.234360 2405.629912,-2334.785541"
       style="stroke:#000000;fill:none"
       id="path4656" />
    <path
       d="M 2405.629912,-1624.234360 A 41.574803,41.574803 -0.000000 0 0 2488.779518,-1624.234360"
       style="stroke:#000000;fill:none"
       id="path4658" />
    <path
       d="M 2488.779518,-2334.785541 2488.779518,-1624.234360"
       style="stroke:#000000;fill:none"
       id="path4660" />
    <path
       d="M 2579.488179,-1733.840659 A 94.488189,94.488189 -0.000000 0 0 2673.976368,-1639.352470"
       style="stroke:#000000;fill:none"
       id="path4662" />
    <path
       d="M 2768.464557,-1639.352470 2673.976368,-1639.352470"
       style="stroke:#000000;fill:none"
       id="path4664" />
    <path
       d="M 2768.464557,-1639.352470 A 94.488189,94.488189 -0.000000 0 0 2862.952746,-1733.840659"
       style="stroke:#000000;fill:none"
       id="path4666" />
    <path
       d="M 2862.952746,-2225.179242 2862.952746,-1733.840659"
       style="stroke:#000000;fill:none"
       id="path4668" />
    <path
       d="M 2862.952746,-2225.179242 A 94.488189,94.488189 -0.000000 0 0 2768.464557,-2319.667431"
       style="stroke:#000000;fill:none"
       id="path4670" />
    <path
       d="M 2673.976368,-2319.667431 2768.464557,-2319.667431"
       style="stroke:#000000;fill:none"
       id="path4672" />
    <path
       d="M 2673.976368,-2319.667431 A 94.488189,94.488189 -0.000000 0 0 2579.488179,-2225.179242"
       style="stroke:#000000;fill:none"
       id="path4674" />
    <path
       d="M 2579.488179,-1733.840659 2579.488179,-2225.179242"
       style="stroke:#000000;fill:none"
       id="path4676" />
    <path
       d="M 2923.425187,-1733.840659 A 94.488189,94.488189 -0.000000 0 0 3017.913376,-1639.352470"
       style="stroke:#000000;fill:none"
       id="path4678" />
    <path
       d="M 3112.401565,-1639.352470 3017.913376,-1639.352470"
       style="stroke:#000000;fill:none"
       id="path4680" />
    <path
       d="M 3112.401565,-1639.352470 A 94.488189,94.488189 -0.000000 0 0 3206.889754,-1733.840659"
       style="stroke:#000000;fill:none"
       id="path4682" />
    <path
       d="M 3206.889754,-2225.179242 3206.889754,-1733.840659"
       style="stroke:#000000;fill:none"
       id="path4684" />
    <path
       d="M 3206.889754,-2225.179242 A 94.488189,94.488189 -0.000000 0 0 3112.401565,-2319.667431"
       style="stroke:#000000;fill:none"
       id="path4686" />
    <path
       d="M 3017.913376,-2319.667431 3112.401565,-2319.667431"
       style="stroke:#000000;fill:none"
       id="path4688" />
    <path
       d="M 3017.913376,-2319.667431 A 94.488189,94.488189 -0.000000 0 0 2923.425187,-2225.179242"
       style="stroke:#000000;fill:none"
       id="path4690" />
    <path
       d="M 2923.425187,-1733.840659 2923.425187,-2225.179242"
       style="stroke:#000000;fill:none"
       id="path4692" />
    <path
       d="M 3187.992116,-1733.840659 3187.992116,-2225.179242"
       style="stroke:#000000;fill:none"
       id="path4694" />
    <path
       d="M 3112.401565,-1658.250108 A 75.590551,75.590551 -0.000000 0 0 3187.992116,-1733.840659"
       style="stroke:#000000;fill:none"
       id="path4696" />
    <path
       d="M 3187.992116,-2225.179242 A 75.590551,75.590551 -0.000000 0 0 3112.401565,-2300.769793"
       style="stroke:#000000;fill:none"
       id="path4698" />
    <path
       d="M 3017.913376,-1658.250108 3112.401565,-1658.250108"
       style="stroke:#000000;fill:none"
       id="path4700" />
    <path
       d="M 3112.401565,-2300.769793 3017.913376,-2300.769793"
       style="stroke:#000000;fill:none"
       id="path4702" />
    <path
       d="M 2942.322825,-1733.840659 A 75.590551,75.590551 -0.000000 0 0 3017.913376,-1658.250108"
       style="stroke:#000000;fill:none"
       id="path4704" />
    <path
       d="M 3017.913376,-2300.769793 A 75.590551,75.590551 -0.000000 0 0 2942.322825,-2225.179242"
       style="stroke:#000000;fill:none"
       id="path4706" />
    <path
       d="M 2942.322825,-2225.179242 2942.322825,-1733.840659"
       style="stroke:#000000;fill:none"
       id="path4708" />
    <path
       d="M 2844.055109,-1733.840659 2844.055109,-2225.179242"
       style="stroke:#000000;fill:none"
       id="path4710" />
    <path
       d="M 2768.464557,-1658.250108 A 75.590551,75.590551 -0.000000 0 0 2844.055109,-1733.840659"
       style="stroke:#000000;fill:none"
       id="path4712" />
    <path
       d="M 2844.055109,-2225.179242 A 75.590551,75.590551 -0.000000 0 0 2768.464557,-2300.769793"
       style="stroke:#000000;fill:none"
       id="path4714" />
    <path
       d="M 2673.976368,-1658.250108 2768.464557,-1658.250108"
       style="stroke:#000000;fill:none"
       id="path4716" />
    <path
       d="M 2768.464557,-2300.769793 2673.976368,-2300.769793"
       style="stroke:#000000;fill:none"
       id="path4718" />
    <path
       d="M 2598.385817,-1733.840659 A 75.590551,75.590551 -0.000000 0 0 2673.976368,-1658.250108"
       style="stroke:#000000;fill:none"
       id="path4720" />
    <path
       d="M 2673.976368,-2300.769793 A 75.590551,75.590551 -0.000000 0 0 2598.385817,-2225.179242"
       style="stroke:#000000;fill:none"
       id="path4722" />
    <path
       d="M 2598.385817,-2225.179242 2598.385817,-1733.840659"
       style="stroke:#000000;fill:none"
       id="path4724" />
    <path
       d="M 2469.881880,-1624.234360 2469.881880,-2334.785541"
       style="stroke:#000000;fill:none"
       id="path4726" />
    <path
       d="M 2469.881880,-2334.785541 A 22.677165,22.677165 -0.000000 0 0 2424.527550,-2334.785541"
       style="stroke:#000000;fill:none"
       id="path4728" />
    <path
       d="M 2424.527550,-1624.234360 A 22.677165,22.677165 -0.000000 0 0 2469.881880,-1624.234360"
       style="stroke:#000000;fill:none"
       id="path4730" />
    <path
       d="M 2424.527550,-2334.785541 2424.527550,-1624.234360"
       style="stroke:#000000;fill:none"
       id="path4732" />
    <path
       d="M 2379.173219,-1624.234360 2379.173219,-2334.785541"
       style="stroke:#000000;fill:none"
       id="path4734" />
    <path
       d="M 2379.173219,-2334.785541 A 22.677165,22.677165 -0.000000 0 0 2333.818888,-2334.785541"
       style="stroke:#000000;fill:none"
       id="path4736" />
    <path
       d="M 2333.818888,-1624.234360 A 22.677165,22.677165 -0.000000 0 0 2379.173219,-1624.234360"
       style="stroke:#000000;fill:none"
       id="path4738" />
    <path
       d="M 2333.818888,-2334.785541 2333.818888,-1624.234360"
       style="stroke:#000000;fill:none"
       id="path4740" />
    <path
       d="M 2288.464557,-1624.234360 2288.464557,-2334.785541"
       style="stroke:#000000;fill:none"
       id="path4742" />
    <path
       d="M 2288.464557,-2334.785541 A 22.677165,22.677165 -0.000000 0 0 2243.110227,-2334.785541"
       style="stroke:#000000;fill:none"
       id="path4744" />
    <path
       d="M 2243.110227,-1624.234360 A 22.677165,22.677165 -0.000000 0 0 2288.464557,-1624.234360"
       style="stroke:#000000;fill:none"
       id="path4746" />
    <path
       d="M 2243.110227,-2334.785541 2243.110227,-1624.234360"
       style="stroke:#000000;fill:none"
       id="path4748" />
    <path
       d="M 2197.755896,-1624.234360 2197.755896,-2334.785541"
       style="stroke:#000000;fill:none"
       id="path4750" />
    <path
       d="M 2197.755896,-2334.785541 A 22.677165,22.677165 -0.000000 0 0 2152.401565,-2334.785541"
       style="stroke:#000000;fill:none"
       id="path4752" />
    <path
       d="M 2152.401565,-1624.234360 A 22.677165,22.677165 -0.000000 0 0 2197.755896,-1624.234360"
       style="stroke:#000000;fill:none"
       id="path4754" />
    <path
       d="M 2152.401565,-2334.785541 2152.401565,-1624.234360"
       style="stroke:#000000;fill:none"
       id="path4756" />
    <path
       d="M 2107.047235,-1624.234360 2107.047235,-2334.785541"
       style="stroke:#000000;fill:none"
       id="path4758" />
    <path
       d="M 2107.047235,-2334.785541 A 22.677165,22.677165 -0.000000 0 0 2061.692904,-2334.785541"
       style="stroke:#000000;fill:none"
       id="path4760" />
    <path
       d="M 2061.692904,-1624.234360 A 22.677165,22.677165 -0.000000 0 0 2107.047235,-1624.234360"
       style="stroke:#000000;fill:none"
       id="path4762" />
    <path
       d="M 2061.692904,-2334.785541 2061.692904,-1624.234360"
       style="stroke:#000000;fill:none"
       id="path4764" />
    <path
       d="M 2016.338573,-1624.234360 2016.338573,-2334.785541"
       style="stroke:#000000;fill:none"
       id="path4766" />
    <path
       d="M 2016.338573,-2334.785541 A 22.677165,22.677165 -0.000000 0 0 1970.984242,-2334.785541"
       style="stroke:#000000;fill:none"
       id="path4768" />
    <path
       d="M 1970.984242,-1624.234360 A 22.677165,22.677165 -0.000000 0 0 2016.338573,-1624.234360"
       style="stroke:#000000;fill:none"
       id="path4770" />
    <path
       d="M 1970.984242,-2334.785541 1970.984242,-1624.234360"
       style="stroke:#000000;fill:none"
       id="path4772" />
    <path
       d="M 1925.629912,-1624.234360 1925.629912,-2334.785541"
       style="stroke:#000000;fill:none"
       id="path4774" />
    <path
       d="M 1925.629912,-2334.785541 A 22.677165,22.677165 -0.000000 0 0 1880.275581,-2334.785541"
       style="stroke:#000000;fill:none"
       id="path4776" />
    <path
       d="M 1880.275581,-1624.234360 A 22.677165,22.677165 -0.000000 0 0 1925.629912,-1624.234360"
       style="stroke:#000000;fill:none"
       id="path4778" />
    <path
       d="M 1880.275581,-2334.785541 1880.275581,-1624.234360"
       style="stroke:#000000;fill:none"
       id="path4780" />
    <path
       d="M 1834.921250,-1624.234360 1834.921250,-2334.785541"
       style="stroke:#000000;fill:none"
       id="path4782" />
    <path
       d="M 1834.921250,-2334.785541 A 22.677165,22.677165 -0.000000 0 0 1789.566920,-2334.785541"
       style="stroke:#000000;fill:none"
       id="path4784" />
    <path
       d="M 1789.566920,-1624.234360 A 22.677165,22.677165 -0.000000 0 0 1834.921250,-1624.234360"
       style="stroke:#000000;fill:none"
       id="path4786" />
    <path
       d="M 1789.566920,-2334.785541 1789.566920,-1624.234360"
       style="stroke:#000000;fill:none"
       id="path4788" />
    <path
       d="M 1744.212589,-1624.234360 1744.212589,-2334.785541"
       style="stroke:#000000;fill:none"
       id="path4790" />
    <path
       d="M 1744.212589,-2334.785541 A 22.677165,22.677165 -0.000000 0 0 1698.858258,-2334.785541"
       style="stroke:#000000;fill:none"
       id="path4792" />
    <path
       d="M 1698.858258,-1624.234360 A 22.677165,22.677165 -0.000000 0 0 1744.212589,-1624.234360"
       style="stroke:#000000;fill:none"
       id="path4794" />
    <path
       d="M 1698.858258,-2334.785541 1698.858258,-1624.234360"
       style="stroke:#000000;fill:none"
       id="path4796" />
    <path
       d="M 1653.503928,-1624.234360 1653.503928,-2334.785541"
       style="stroke:#000000;fill:none"
       id="path4798" />
    <path
       d="M 1653.503928,-2334.785541 A 22.677165,22.677165 -0.000000 0 0 1608.149597,-2334.785541"
       style="stroke:#000000;fill:none"
       id="path4800" />
    <path
       d="M 1608.149597,-1624.234360 A 22.677165,22.677165 -0.000000 0 0 1653.503928,-1624.234360"
       style="stroke:#000000;fill:none"
       id="path4802" />
    <path
       d="M 1608.149597,-2334.785541 1608.149597,-1624.234360"
       style="stroke:#000000;fill:none"
       id="path4804" />
    <path
       d="M 1562.795266,-1624.234360 1562.795266,-2334.785541"
       style="stroke:#000000;fill:none"
       id="path4806" />
    <path
       d="M 1562.795266,-2334.785541 A 22.677165,22.677165 -0.000000 0 0 1517.440935,-2334.785541"
       style="stroke:#000000;fill:none"
       id="path4808" />
    <path
       d="M 1517.440935,-1624.234360 A 22.677165,22.677165 -0.000000 0 0 1562.795266,-1624.234360"
       style="stroke:#000000;fill:none"
       id="path4810" />
    <path
       d="M 1517.440935,-2334.785541 1517.440935,-1624.234360"
       style="stroke:#000000;fill:none"
       id="path4812" />
    <path
       d="M 1472.086605,-1624.234360 1472.086605,-2334.785541"
       style="stroke:#000000;fill:none"
       id="path4814" />
    <path
       d="M 1472.086605,-2334.785541 A 22.677165,22.677165 -0.000000 0 0 1426.732274,-2334.785541"
       style="stroke:#000000;fill:none"
       id="path4816" />
    <path
       d="M 1426.732274,-1624.234360 A 22.677165,22.677165 -0.000000 0 0 1472.086605,-1624.234360"
       style="stroke:#000000;fill:none"
       id="path4818" />
    <path
       d="M 1426.732274,-2334.785541 1426.732274,-1624.234360"
       style="stroke:#000000;fill:none"
       id="path4820" />
    <path
       d="M 1381.377943,-1624.234360 1381.377943,-2334.785541"
       style="stroke:#000000;fill:none"
       id="path4822" />
    <path
       d="M 1381.377943,-2334.785541 A 22.677165,22.677165 -0.000000 0 0 1336.023613,-2334.785541"
       style="stroke:#000000;fill:none"
       id="path4824" />
    <path
       d="M 1336.023613,-1624.234360 A 22.677165,22.677165 -0.000000 0 0 1381.377943,-1624.234360"
       style="stroke:#000000;fill:none"
       id="path4826" />
    <path
       d="M 1336.023613,-2334.785541 1336.023613,-1624.234360"
       style="stroke:#000000;fill:none"
       id="path4828" />
    <path
       d="M 1290.669282,-1624.234360 1290.669282,-2334.785541"
       style="stroke:#000000;fill:none"
       id="path4830" />
    <path
       d="M 1290.669282,-2334.785541 A 22.677165,22.677165 -0.000000 0 0 1245.314951,-2334.785541"
       style="stroke:#000000;fill:none"
       id="path4832" />
    <path
       d="M 1245.314951,-1624.234360 A 22.677165,22.677165 -0.000000 0 0 1290.669282,-1624.234360"
       style="stroke:#000000;fill:none"
       id="path4834" />
    <path
       d="M 1245.314951,-2334.785541 1245.314951,-1624.234360"
       style="stroke:#000000;fill:none"
       id="path4836" />
    <path
       d="M 1199.960620,-1624.234360 1199.960620,-2334.785541"
       style="stroke:#000000;fill:none"
       id="path4838" />
    <path
       d="M 1199.960620,-2334.785541 A 22.677165,22.677165 -0.000000 0 0 1154.606290,-2334.785541"
       style="stroke:#000000;fill:none"
       id="path4840" />
    <path
       d="M 1154.606290,-1624.234360 A 22.677165,22.677165 -0.000000 0 0 1199.960620,-1624.234360"
       style="stroke:#000000;fill:none"
       id="path4842" />
    <path
       d="M 1154.606290,-2334.785541 1154.606290,-1624.234360"
       style="stroke:#000000;fill:none"
       id="path4844" />
    <path
       d="M 1109.251959,-1624.234360 1109.251959,-2334.785541"
       style="stroke:#000000;fill:none"
       id="path4846" />
    <path
       d="M 1109.251959,-2334.785541 A 22.677165,22.677165 -0.000000 0 0 1063.897628,-2334.785541"
       style="stroke:#000000;fill:none"
       id="path4848" />
    <path
       d="M 1063.897628,-1624.234360 A 22.677165,22.677165 -0.000000 0 0 1109.251959,-1624.234360"
       style="stroke:#000000;fill:none"
       id="path4850" />
    <path
       d="M 1063.897628,-2334.785541 1063.897628,-1624.234360"
       style="stroke:#000000;fill:none"
       id="path4852" />
    <path
       d="M 1018.543298,-1624.234360 1018.543298,-2334.785541"
       style="stroke:#000000;fill:none"
       id="path4854" />
    <path
       d="M 1018.543298,-2334.785541 A 22.677165,22.677165 -0.000000 0 0 973.188967,-2334.785541"
       style="stroke:#000000;fill:none"
       id="path4856" />
    <path
       d="M 973.188967,-1624.234360 A 22.677165,22.677165 -0.000000 0 0 1018.543298,-1624.234360"
       style="stroke:#000000;fill:none"
       id="path4858" />
    <path
       d="M 973.188967,-2334.785541 973.188967,-1624.234360"
       style="stroke:#000000;fill:none"
       id="path4860" />
    <path
       d="M 882.480305,-2334.785541 882.480305,-1624.234360"
       style="stroke:#000000;fill:none"
       id="path4862" />
    <path
       d="M 927.834636,-2334.785541 A 22.677165,22.677165 -0.000000 0 0 882.480305,-2334.785541"
       style="stroke:#000000;fill:none"
       id="path4864" />
    <path
       d="M 882.480305,-1624.234360 A 22.677165,22.677165 -0.000000 0 0 927.834636,-1624.234360"
       style="stroke:#000000;fill:none"
       id="path4866" />
    <path
       d="M 927.834636,-1624.234360 927.834636,-2334.785541"
       style="stroke:#000000;fill:none"
       id="path4868" />
    <path
       d="M 3445.145580,-1749.525699 A 12.283465,12.283465 -0.000000 0 0 3445.145580,-1774.092628"
       style="stroke:#000000;fill:none"
       id="path4870" />
    <path
       d="M 3445.145580,-1774.092628 3286.405422,-1774.092628"
       style="stroke:#000000;fill:none"
       id="path4872" />
    <path
       d="M 3286.405422,-1749.525699 3445.145580,-1749.525699"
       style="stroke:#000000;fill:none"
       id="path4874" />
    <path
       d="M 3286.405422,-1774.092628 A 12.283465,12.283465 -0.000000 0 0 3286.405422,-1749.525699"
       style="stroke:#000000;fill:none"
       id="path4876" />
    <path
       d="M 663.413296,-1774.092628 A 12.283465,12.283465 -0.000000 0 0 663.413296,-1749.525699"
       style="stroke:#000000;fill:none"
       id="path4878" />
    <path
       d="M 663.413296,-1749.525699 822.153454,-1749.525699"
       style="stroke:#000000;fill:none"
       id="path4880" />
    <path
       d="M 822.153454,-1774.092628 663.413296,-1774.092628"
       style="stroke:#000000;fill:none"
       id="path4882" />
    <path
       d="M 822.153454,-1749.525699 A 12.283465,12.283465 -0.000000 0 0 822.153454,-1774.092628"
       style="stroke:#000000;fill:none"
       id="path4884" />
    <path
       d="M 3603.740148,-2346.124124 3603.740148,-1612.895777"
       style="stroke:#000000;fill:none"
       id="path4886" />
    <path
       d="M 3603.740148,-2346.124124 A 68.031496,68.031496 -0.000000 0 0 3535.708652,-2414.155620"
       style="stroke:#000000;fill:none"
       id="path4888" />
    <path
       d="M 3535.708652,-1544.864281 A 68.031496,68.031496 -0.000000 0 0 3603.740148,-1612.895777"
       style="stroke:#000000;fill:none"
       id="path4890" />
    <path
       d="M 572.559046,-2414.155620 3535.708652,-2414.155620"
       style="stroke:#000000;fill:none"
       id="path4892" />
    <path
       d="M 3535.708652,-1544.864281 572.559046,-1544.864281"
       style="stroke:#000000;fill:none"
       id="path4894" />
    <path
       d="M 572.559046,-2414.155620 A 68.031496,68.031496 -0.000000 0 0 504.527550,-2346.124124"
       style="stroke:#000000;fill:none"
       id="path4896" />
    <path
       d="M 504.527550,-1612.895777 A 68.031496,68.031496 -0.000000 0 0 572.559046,-1544.864281"
       style="stroke:#000000;fill:none"
       id="path4898" />
    <path
       d="M 504.527550,-1612.895777 504.527550,-2346.124124"
       style="stroke:#000000;fill:none"
       id="path4900" />
    <path
       d="M 1082.339266,474.476822 1126.093710,693.249046"
       style="stroke:#000000;fill:none"
       id="path4902" />
    <path
       d="M 1126.093710,693.249046 A 113.385827,113.385827 -0.000000 0 0 1237.277661,784.398082"
       style="stroke:#000000;fill:none"
       id="path4904" />
    <path
       d="M 1237.277661,784.398082 1547.243390,784.398082"
       style="stroke:#000000;fill:none"
       id="path4906" />
    <path
       d="M 1547.243390,784.398082 A 113.385827,113.385827 -0.000000 0 0 1658.427341,693.249046"
       style="stroke:#000000;fill:none"
       id="path4908" />
    <path
       d="M 1545.896101,852.429578 A 181.417323,181.417323 -0.000000 0 0 1723.790422,706.591120"
       style="stroke:#000000;fill:none"
       id="path4910" />
    <path
       d="M 1545.896101,852.429578 1238.624950,852.429578"
       style="stroke:#000000;fill:none"
       id="path4912" />
    <path
       d="M 1060.730629,706.591120 A 181.417323,181.417323 -0.000000 0 0 1238.624950,852.429578"
       style="stroke:#000000;fill:none"
       id="path4914" />
    <path
       d="M 1027.914069,542.508319 A 98.086185,98.086185 -0.000000 0 0 976.512494,474.476822"
       style="stroke:#000000;fill:none"
       id="path4916" />
    <path
       d="M 1658.427341,693.249046 1702.181786,474.476822"
       style="stroke:#000000;fill:none"
       id="path4918" />
    <path
       d="M 1702.181786,474.476822 1808.008557,474.476822"
       style="stroke:#000000;fill:none"
       id="path4920" />
    <path
       d="M 1756.606982,542.508319 1723.790422,706.591120"
       style="stroke:#000000;fill:none"
       id="path4922" />
    <path
       d="M 1808.008557,474.476822 A 98.086185,98.086185 -0.000000 0 0 1756.606982,542.508319"
       style="stroke:#000000;fill:none"
       id="path4924" />
    <path
       d="M 976.512494,474.476822 1082.339266,474.476822"
       style="stroke:#000000;fill:none"
       id="path4926" />
    <path
       d="M 1060.730629,706.591120 1027.914069,542.508319"
       style="stroke:#000000;fill:none"
       id="path4928" />
    <path
       d="M 2080.499512,494.903972 2124.253956,713.676196"
       style="stroke:#000000;fill:none"
       id="path4930" />
    <path
       d="M 2124.253956,713.676196 A 113.385827,113.385827 -0.000000 0 0 2235.437907,804.825232"
       style="stroke:#000000;fill:none"
       id="path4932" />
    <path
       d="M 2235.437907,804.825232 2545.403636,804.825232"
       style="stroke:#000000;fill:none"
       id="path4934" />
    <path
       d="M 2545.403636,804.825232 A 113.385827,113.385827 -0.000000 0 0 2656.587587,713.676196"
       style="stroke:#000000;fill:none"
       id="path4936" />
    <path
       d="M 2544.056347,872.856728 A 181.417323,181.417323 -0.000000 0 0 2721.950668,727.018270"
       style="stroke:#000000;fill:none"
       id="path4938" />
    <path
       d="M 2544.056347,872.856728 2236.785196,872.856728"
       style="stroke:#000000;fill:none"
       id="path4940" />
    <path
       d="M 2058.890875,727.018270 A 181.417323,181.417323 -0.000000 0 0 2236.785196,872.856728"
       style="stroke:#000000;fill:none"
       id="path4942" />
    <path
       d="M 2026.074315,562.935468 A 98.086185,98.086185 -0.000000 0 0 1974.672740,494.903972"
       style="stroke:#000000;fill:none"
       id="path4944" />
    <path
       d="M 2656.587587,713.676196 2700.342031,494.903972"
       style="stroke:#000000;fill:none"
       id="path4946" />
    <path
       d="M 2700.342031,494.903972 2806.168803,494.903972"
       style="stroke:#000000;fill:none"
       id="path4948" />
    <path
       d="M 2754.767228,562.935468 2721.950668,727.018270"
       style="stroke:#000000;fill:none"
       id="path4950" />
    <path
       d="M 2806.168803,494.903972 A 98.086185,98.086185 -0.000000 0 0 2754.767228,562.935468"
       style="stroke:#000000;fill:none"
       id="path4952" />
    <path
       d="M 1974.672740,494.903972 2080.499512,494.903972"
       style="stroke:#000000;fill:none"
       id="path4954" />
    <path
       d="M 2058.890875,727.018270 2026.074315,562.935468"
       style="stroke:#000000;fill:none"
       id="path4956" />
    <path
       d="M 3702.403353,347.177994 A 120.944882,120.944882 -0.000000 0 0 3581.458471,226.233112"
       style="stroke:#000000;fill:none"
       id="path4958" />
    <path
       d="M 3702.403353,838.516576 3702.403353,347.177994"
       style="stroke:#000000;fill:none"
       id="path4960" />
    <path
       d="M 3581.458471,959.461458 A 120.944882,120.944882 -0.000000 0 0 3702.403353,838.516576"
       style="stroke:#000000;fill:none"
       id="path4962" />
    <path
       d="M 3581.458471,959.461458 3143.033274,959.461458"
       style="stroke:#000000;fill:none"
       id="path4964" />
    <path
       d="M 3022.088392,838.516576 A 120.944882,120.944882 -0.000000 0 0 3143.033274,959.461458"
       style="stroke:#000000;fill:none"
       id="path4966" />
    <path
       d="M 3022.088392,838.516576 3022.088392,347.177994"
       style="stroke:#000000;fill:none"
       id="path4968" />
    <path
       d="M 3143.033274,226.233112 A 120.944882,120.944882 -0.000000 0 0 3022.088392,347.177994"
       style="stroke:#000000;fill:none"
       id="path4970" />
    <path
       d="M 3143.033274,226.233112 3581.458471,226.233112"
       style="stroke:#000000;fill:none"
       id="path4972" />
    <path
       d="M 3067.442723,838.516576 3067.442723,347.177994"
       style="stroke:#000000;fill:none"
       id="path4974" />
    <path
       d="M 3067.442723,838.516576 A 75.590551,75.590551 -0.000000 0 0 3143.033274,914.107128"
       style="stroke:#000000;fill:none"
       id="path4976" />
    <path
       d="M 3143.033274,914.107128 3581.458471,914.107128"
       style="stroke:#000000;fill:none"
       id="path4978" />
    <path
       d="M 3581.458471,914.107128 A 75.590551,75.590551 -0.000000 0 0 3657.049022,838.516576"
       style="stroke:#000000;fill:none"
       id="path4980" />
    <path
       d="M 3657.049022,838.516576 3657.049022,347.177994"
       style="stroke:#000000;fill:none"
       id="path4982" />
    <path
       d="M 3657.049022,347.177994 A 75.590551,75.590551 -0.000000 0 0 3581.458471,271.587443"
       style="stroke:#000000;fill:none"
       id="path4984" />
    <path
       d="M 3143.033274,271.587443 3581.458471,271.587443"
       style="stroke:#000000;fill:none"
       id="path4986" />
    <path
       d="M 3143.033274,271.587443 A 75.590551,75.590551 -0.000000 0 0 3067.442723,347.177994"
       style="stroke:#000000;fill:none"
       id="path4988" />
    <path
       d="M 3337.255709,838.516576 A 22.677165,22.677165 -0.000000 0 0 3382.610040,838.516576"
       style="stroke:#000000;fill:none"
       id="path4990" />
    <path
       d="M 3382.610040,838.516576 3382.610040,347.177994"
       style="stroke:#000000;fill:none"
       id="path4992" />
    <path
       d="M 3382.610040,347.177994 A 22.677165,22.677165 -0.000000 0 0 3337.255709,347.177994"
       style="stroke:#000000;fill:none"
       id="path4994" />
    <path
       d="M 3337.255709,347.177994 3337.255709,838.516576"
       style="stroke:#000000;fill:none"
       id="path4996" />
    <path
       d="M 3299.460433,838.516576 3299.460433,347.177994"
       style="stroke:#000000;fill:none"
       id="path4998" />
    <path
       d="M 3299.460433,347.177994 A 22.677165,22.677165 -0.000000 0 0 3254.106103,347.177994"
       style="stroke:#000000;fill:none"
       id="path5000" />
    <path
       d="M 3254.106103,347.177994 3254.106103,838.516576"
       style="stroke:#000000;fill:none"
       id="path5002" />
    <path
       d="M 3254.106103,838.516576 A 22.677165,22.677165 -0.000000 0 0 3299.460433,838.516576"
       style="stroke:#000000;fill:none"
       id="path5004" />
    <path
       d="M 3586.704528,347.177994 3586.704528,838.516576"
       style="stroke:#000000;fill:none"
       id="path5006" />
    <path
       d="M 3586.704528,838.516576 A 22.677165,22.677165 -0.000000 0 0 3632.058859,838.516576"
       style="stroke:#000000;fill:none"
       id="path5008" />
    <path
       d="M 3632.058859,838.516576 3632.058859,347.177994"
       style="stroke:#000000;fill:none"
       id="path5010" />
    <path
       d="M 3632.058859,347.177994 A 22.677165,22.677165 -0.000000 0 0 3586.704528,347.177994"
       style="stroke:#000000;fill:none"
       id="path5012" />
    <path
       d="M 3503.554922,347.177994 3503.554922,838.516576"
       style="stroke:#000000;fill:none"
       id="path5014" />
    <path
       d="M 3503.554922,838.516576 A 22.677165,22.677165 -0.000000 0 0 3548.909252,838.516576"
       style="stroke:#000000;fill:none"
       id="path5016" />
    <path
       d="M 3548.909252,838.516576 3548.909252,347.177994"
       style="stroke:#000000;fill:none"
       id="path5018" />
    <path
       d="M 3548.909252,347.177994 A 22.677165,22.677165 -0.000000 0 0 3503.554922,347.177994"
       style="stroke:#000000;fill:none"
       id="path5020" />
    <path
       d="M 3420.405315,347.177994 3420.405315,838.516576"
       style="stroke:#000000;fill:none"
       id="path5022" />
    <path
       d="M 3420.405315,838.516576 A 22.677165,22.677165 -0.000000 0 0 3465.759646,838.516576"
       style="stroke:#000000;fill:none"
       id="path5024" />
    <path
       d="M 3465.759646,838.516576 3465.759646,347.177994"
       style="stroke:#000000;fill:none"
       id="path5026" />
    <path
       d="M 3465.759646,347.177994 A 22.677165,22.677165 -0.000000 0 0 3420.405315,347.177994"
       style="stroke:#000000;fill:none"
       id="path5028" />
    <path
       d="M 3216.310827,838.516576 3216.310827,347.177994"
       style="stroke:#000000;fill:none"
       id="path5030" />
    <path
       d="M 3216.310827,347.177994 A 22.677165,22.677165 -0.000000 0 0 3170.956496,347.177994"
       style="stroke:#000000;fill:none"
       id="path5032" />
    <path
       d="M 3170.956496,347.177994 3170.956496,838.516576"
       style="stroke:#000000;fill:none"
       id="path5034" />
    <path
       d="M 3170.956496,838.516576 A 22.677165,22.677165 -0.000000 0 0 3216.310827,838.516576"
       style="stroke:#000000;fill:none"
       id="path5036" />
    <path
       d="M 3133.161221,838.516576 3133.161221,347.177994"
       style="stroke:#000000;fill:none"
       id="path5038" />
    <path
       d="M 3133.161221,347.177994 A 22.677165,22.677165 -0.000000 0 0 3087.806890,347.177994"
       style="stroke:#000000;fill:none"
       id="path5040" />
    <path
       d="M 3087.806890,347.177994 3087.806890,838.516576"
       style="stroke:#000000;fill:none"
       id="path5042" />
    <path
       d="M 3087.806890,838.516576 A 22.677165,22.677165 -0.000000 0 0 3133.161221,838.516576"
       style="stroke:#000000;fill:none"
       id="path5044" />
    <path
       d="M 3290.693781,-1207.028340 A 12.283465,12.283465 -0.000000 0 0 3290.693781,-1182.461410"
       style="stroke:#000000;fill:none"
       id="path5046" />
    <path
       d="M 3449.433938,-1182.461410 3290.693781,-1182.461410"
       style="stroke:#000000;fill:none"
       id="path5048" />
    <path
       d="M 3449.433938,-1182.461410 A 12.283465,12.283465 -0.000000 0 0 3449.433938,-1207.028340"
       style="stroke:#000000;fill:none"
       id="path5050" />
    <path
       d="M 3449.433938,-1207.028340 3290.693781,-1207.028340"
       style="stroke:#000000;fill:none"
       id="path5052" />
    <path
       d="M 508.815908,-610.429914 A 68.031496,68.031496 -0.000000 0 0 576.847404,-542.398418"
       style="stroke:#000000;fill:none"
       id="path5054" />
    <path
       d="M 508.815908,-610.429914 508.815908,-1343.658261"
       style="stroke:#000000;fill:none"
       id="path5056" />
    <path
       d="M 576.847404,-1411.689757 A 68.031496,68.031496 -0.000000 0 0 508.815908,-1343.658261"
       style="stroke:#000000;fill:none"
       id="path5058" />
    <path
       d="M 3539.997011,-1411.689757 576.847404,-1411.689757"
       style="stroke:#000000;fill:none"
       id="path5060" />
    <path
       d="M 3608.028507,-1343.658261 A 68.031496,68.031496 -0.000000 0 0 3539.997011,-1411.689757"
       style="stroke:#000000;fill:none"
       id="path5062" />
    <path
       d="M 3608.028507,-610.429914 3608.028507,-1343.658261"
       style="stroke:#000000;fill:none"
       id="path5064" />
    <path
       d="M 3539.997011,-542.398418 576.847404,-542.398418"
       style="stroke:#000000;fill:none"
       id="path5066" />
    <path
       d="M 2474.170239,-1332.319678 A 22.677165,22.677165 -0.000000 0 0 2428.815908,-1332.319678"
       style="stroke:#000000;fill:none"
       id="path5068" />
    <path
       d="M 2428.815908,-621.768497 2428.815908,-1332.319678"
       style="stroke:#000000;fill:none"
       id="path5070" />
    <path
       d="M 2428.815908,-621.768497 A 22.677165,22.677165 -0.000000 0 0 2474.170239,-621.768497"
       style="stroke:#000000;fill:none"
       id="path5072" />
    <path
       d="M 2474.170239,-621.768497 2474.170239,-1332.319678"
       style="stroke:#000000;fill:none"
       id="path5074" />
    <path
       d="M 2383.461578,-1332.319678 A 22.677165,22.677165 -0.000000 0 0 2338.107247,-1332.319678"
       style="stroke:#000000;fill:none"
       id="path5076" />
    <path
       d="M 2338.107247,-621.768497 2338.107247,-1332.319678"
       style="stroke:#000000;fill:none"
       id="path5078" />
    <path
       d="M 2338.107247,-621.768497 A 22.677165,22.677165 -0.000000 0 0 2383.461578,-621.768497"
       style="stroke:#000000;fill:none"
       id="path5080" />
    <path
       d="M 2383.461578,-621.768497 2383.461578,-1332.319678"
       style="stroke:#000000;fill:none"
       id="path5082" />
    <path
       d="M 2292.752916,-1332.319678 A 22.677165,22.677165 -0.000000 0 0 2247.398585,-1332.319678"
       style="stroke:#000000;fill:none"
       id="path5084" />
    <path
       d="M 2247.398585,-621.768497 2247.398585,-1332.319678"
       style="stroke:#000000;fill:none"
       id="path5086" />
    <path
       d="M 2247.398585,-621.768497 A 22.677165,22.677165 -0.000000 0 0 2292.752916,-621.768497"
       style="stroke:#000000;fill:none"
       id="path5088" />
    <path
       d="M 2292.752916,-621.768497 2292.752916,-1332.319678"
       style="stroke:#000000;fill:none"
       id="path5090" />
    <path
       d="M 2202.044255,-1332.319678 A 22.677165,22.677165 -0.000000 0 0 2156.689924,-1332.319678"
       style="stroke:#000000;fill:none"
       id="path5092" />
    <path
       d="M 2156.689924,-621.768497 2156.689924,-1332.319678"
       style="stroke:#000000;fill:none"
       id="path5094" />
    <path
       d="M 2156.689924,-621.768497 A 22.677165,22.677165 -0.000000 0 0 2202.044255,-621.768497"
       style="stroke:#000000;fill:none"
       id="path5096" />
    <path
       d="M 2202.044255,-621.768497 2202.044255,-1332.319678"
       style="stroke:#000000;fill:none"
       id="path5098" />
    <path
       d="M 2111.335593,-1332.319678 A 22.677165,22.677165 -0.000000 0 0 2065.981263,-1332.319678"
       style="stroke:#000000;fill:none"
       id="path5100" />
    <path
       d="M 2065.981263,-621.768497 2065.981263,-1332.319678"
       style="stroke:#000000;fill:none"
       id="path5102" />
    <path
       d="M 2065.981263,-621.768497 A 22.677165,22.677165 -0.000000 0 0 2111.335593,-621.768497"
       style="stroke:#000000;fill:none"
       id="path5104" />
    <path
       d="M 2111.335593,-621.768497 2111.335593,-1332.319678"
       style="stroke:#000000;fill:none"
       id="path5106" />
    <path
       d="M 2020.626932,-1332.319678 A 22.677165,22.677165 -0.000000 0 0 1975.272601,-1332.319678"
       style="stroke:#000000;fill:none"
       id="path5108" />
    <path
       d="M 1975.272601,-621.768497 1975.272601,-1332.319678"
       style="stroke:#000000;fill:none"
       id="path5110" />
    <path
       d="M 1975.272601,-621.768497 A 22.677165,22.677165 -0.000000 0 0 2020.626932,-621.768497"
       style="stroke:#000000;fill:none"
       id="path5112" />
    <path
       d="M 2020.626932,-621.768497 2020.626932,-1332.319678"
       style="stroke:#000000;fill:none"
       id="path5114" />
    <path
       d="M 1929.918270,-1332.319678 A 22.677165,22.677165 -0.000000 0 0 1884.563940,-1332.319678"
       style="stroke:#000000;fill:none"
       id="path5116" />
    <path
       d="M 1884.563940,-621.768497 1884.563940,-1332.319678"
       style="stroke:#000000;fill:none"
       id="path5118" />
    <path
       d="M 1884.563940,-621.768497 A 22.677165,22.677165 -0.000000 0 0 1929.918270,-621.768497"
       style="stroke:#000000;fill:none"
       id="path5120" />
    <path
       d="M 1929.918270,-621.768497 1929.918270,-1332.319678"
       style="stroke:#000000;fill:none"
       id="path5122" />
    <path
       d="M 1839.209609,-1332.319678 A 22.677165,22.677165 -0.000000 0 0 1793.855278,-1332.319678"
       style="stroke:#000000;fill:none"
       id="path5124" />
    <path
       d="M 1793.855278,-621.768497 1793.855278,-1332.319678"
       style="stroke:#000000;fill:none"
       id="path5126" />
    <path
       d="M 1793.855278,-621.768497 A 22.677165,22.677165 -0.000000 0 0 1839.209609,-621.768497"
       style="stroke:#000000;fill:none"
       id="path5128" />
    <path
       d="M 1839.209609,-621.768497 1839.209609,-1332.319678"
       style="stroke:#000000;fill:none"
       id="path5130" />
    <path
       d="M 1748.500948,-1332.319678 A 22.677165,22.677165 -0.000000 0 0 1703.146617,-1332.319678"
       style="stroke:#000000;fill:none"
       id="path5132" />
    <path
       d="M 1703.146617,-621.768497 1703.146617,-1332.319678"
       style="stroke:#000000;fill:none"
       id="path5134" />
    <path
       d="M 1703.146617,-621.768497 A 22.677165,22.677165 -0.000000 0 0 1748.500948,-621.768497"
       style="stroke:#000000;fill:none"
       id="path5136" />
    <path
       d="M 1748.500948,-621.768497 1748.500948,-1332.319678"
       style="stroke:#000000;fill:none"
       id="path5138" />
    <path
       d="M 1657.792286,-1332.319678 A 22.677165,22.677165 -0.000000 0 0 1612.437956,-1332.319678"
       style="stroke:#000000;fill:none"
       id="path5140" />
    <path
       d="M 1612.437956,-621.768497 1612.437956,-1332.319678"
       style="stroke:#000000;fill:none"
       id="path5142" />
    <path
       d="M 1612.437956,-621.768497 A 22.677165,22.677165 -0.000000 0 0 1657.792286,-621.768497"
       style="stroke:#000000;fill:none"
       id="path5144" />
    <path
       d="M 1657.792286,-621.768497 1657.792286,-1332.319678"
       style="stroke:#000000;fill:none"
       id="path5146" />
    <path
       d="M 1567.083625,-1332.319678 A 22.677165,22.677165 -0.000000 0 0 1521.729294,-1332.319678"
       style="stroke:#000000;fill:none"
       id="path5148" />
    <path
       d="M 1521.729294,-621.768497 1521.729294,-1332.319678"
       style="stroke:#000000;fill:none"
       id="path5150" />
    <path
       d="M 1521.729294,-621.768497 A 22.677165,22.677165 -0.000000 0 0 1567.083625,-621.768497"
       style="stroke:#000000;fill:none"
       id="path5152" />
    <path
       d="M 1567.083625,-621.768497 1567.083625,-1332.319678"
       style="stroke:#000000;fill:none"
       id="path5154" />
    <path
       d="M 1476.374963,-1332.319678 A 22.677165,22.677165 -0.000000 0 0 1431.020633,-1332.319678"
       style="stroke:#000000;fill:none"
       id="path5156" />
    <path
       d="M 1431.020633,-621.768497 1431.020633,-1332.319678"
       style="stroke:#000000;fill:none"
       id="path5158" />
    <path
       d="M 1431.020633,-621.768497 A 22.677165,22.677165 -0.000000 0 0 1476.374963,-621.768497"
       style="stroke:#000000;fill:none"
       id="path5160" />
    <path
       d="M 1476.374963,-621.768497 1476.374963,-1332.319678"
       style="stroke:#000000;fill:none"
       id="path5162" />
    <path
       d="M 1385.666302,-1332.319678 A 22.677165,22.677165 -0.000000 0 0 1340.311971,-1332.319678"
       style="stroke:#000000;fill:none"
       id="path5164" />
    <path
       d="M 1340.311971,-621.768497 1340.311971,-1332.319678"
       style="stroke:#000000;fill:none"
       id="path5166" />
    <path
       d="M 1340.311971,-621.768497 A 22.677165,22.677165 -0.000000 0 0 1385.666302,-621.768497"
       style="stroke:#000000;fill:none"
       id="path5168" />
    <path
       d="M 1385.666302,-621.768497 1385.666302,-1332.319678"
       style="stroke:#000000;fill:none"
       id="path5170" />
    <path
       d="M 1294.957641,-1332.319678 A 22.677165,22.677165 -0.000000 0 0 1249.603310,-1332.319678"
       style="stroke:#000000;fill:none"
       id="path5172" />
    <path
       d="M 1249.603310,-621.768497 1249.603310,-1332.319678"
       style="stroke:#000000;fill:none"
       id="path5174" />
    <path
       d="M 1249.603310,-621.768497 A 22.677165,22.677165 -0.000000 0 0 1294.957641,-621.768497"
       style="stroke:#000000;fill:none"
       id="path5176" />
    <path
       d="M 1294.957641,-621.768497 1294.957641,-1332.319678"
       style="stroke:#000000;fill:none"
       id="path5178" />
    <path
       d="M 1204.248979,-1332.319678 A 22.677165,22.677165 -0.000000 0 0 1158.894648,-1332.319678"
       style="stroke:#000000;fill:none"
       id="path5180" />
    <path
       d="M 1158.894648,-621.768497 1158.894648,-1332.319678"
       style="stroke:#000000;fill:none"
       id="path5182" />
    <path
       d="M 1158.894648,-621.768497 A 22.677165,22.677165 -0.000000 0 0 1204.248979,-621.768497"
       style="stroke:#000000;fill:none"
       id="path5184" />
    <path
       d="M 1204.248979,-621.768497 1204.248979,-1332.319678"
       style="stroke:#000000;fill:none"
       id="path5186" />
    <path
       d="M 1113.540318,-1332.319678 A 22.677165,22.677165 -0.000000 0 0 1068.185987,-1332.319678"
       style="stroke:#000000;fill:none"
       id="path5188" />
    <path
       d="M 1068.185987,-621.768497 1068.185987,-1332.319678"
       style="stroke:#000000;fill:none"
       id="path5190" />
    <path
       d="M 1068.185987,-621.768497 A 22.677165,22.677165 -0.000000 0 0 1113.540318,-621.768497"
       style="stroke:#000000;fill:none"
       id="path5192" />
    <path
       d="M 1113.540318,-621.768497 1113.540318,-1332.319678"
       style="stroke:#000000;fill:none"
       id="path5194" />
    <path
       d="M 1022.831656,-621.768497 1022.831656,-1332.319678"
       style="stroke:#000000;fill:none"
       id="path5196" />
    <path
       d="M 1022.831656,-1332.319678 A 22.677165,22.677165 -0.000000 0 0 977.477326,-1332.319678"
       style="stroke:#000000;fill:none"
       id="path5198" />
    <path
       d="M 977.477326,-621.768497 977.477326,-1332.319678"
       style="stroke:#000000;fill:none"
       id="path5200" />
    <path
       d="M 977.477326,-621.768497 A 22.677165,22.677165 -0.000000 0 0 1022.831656,-621.768497"
       style="stroke:#000000;fill:none"
       id="path5202" />
    <path
       d="M 932.122995,-1332.319678 A 22.677165,22.677165 -0.000000 0 0 886.768664,-1332.319678"
       style="stroke:#000000;fill:none"
       id="path5204" />
    <path
       d="M 886.768664,-621.768497 886.768664,-1332.319678"
       style="stroke:#000000;fill:none"
       id="path5206" />
    <path
       d="M 886.768664,-621.768497 A 22.677165,22.677165 -0.000000 0 0 932.122995,-621.768497"
       style="stroke:#000000;fill:none"
       id="path5208" />
    <path
       d="M 932.122995,-621.768497 932.122995,-1332.319678"
       style="stroke:#000000;fill:none"
       id="path5210" />
    <path
       d="M 667.701655,-1207.028340 A 12.283465,12.283465 -0.000000 0 0 667.701655,-1182.461410"
       style="stroke:#000000;fill:none"
       id="path5212" />
    <path
       d="M 826.441812,-1182.461410 667.701655,-1182.461410"
       style="stroke:#000000;fill:none"
       id="path5214" />
    <path
       d="M 826.441812,-1182.461410 A 12.283465,12.283465 -0.000000 0 0 826.441812,-1207.028340"
       style="stroke:#000000;fill:none"
       id="path5216" />
    <path
       d="M 826.441812,-1207.028340 667.701655,-1207.028340"
       style="stroke:#000000;fill:none"
       id="path5218" />
    <path
       d="M 3022.201735,-1298.303930 A 75.590551,75.590551 -0.000000 0 0 2946.611184,-1222.713379"
       style="stroke:#000000;fill:none"
       id="path5220" />
    <path
       d="M 2946.611184,-1222.713379 2946.611184,-731.374796"
       style="stroke:#000000;fill:none"
       id="path5222" />
    <path
       d="M 2946.611184,-731.374796 A 75.590551,75.590551 -0.000000 0 0 3022.201735,-655.784245"
       style="stroke:#000000;fill:none"
       id="path5224" />
    <path
       d="M 3116.689924,-655.784245 3022.201735,-655.784245"
       style="stroke:#000000;fill:none"
       id="path5226" />
    <path
       d="M 3116.689924,-655.784245 A 75.590551,75.590551 -0.000000 0 0 3192.280475,-731.374796"
       style="stroke:#000000;fill:none"
       id="path5228" />
    <path
       d="M 3192.280475,-1222.713379 3192.280475,-731.374796"
       style="stroke:#000000;fill:none"
       id="path5230" />
    <path
       d="M 3192.280475,-1222.713379 A 75.590551,75.590551 -0.000000 0 0 3116.689924,-1298.303930"
       style="stroke:#000000;fill:none"
       id="path5232" />
    <path
       d="M 3116.689924,-1298.303930 3022.201735,-1298.303930"
       style="stroke:#000000;fill:none"
       id="path5234" />
    <path
       d="M 2678.264727,-1298.303930 A 75.590551,75.590551 -0.000000 0 0 2602.674176,-1222.713379"
       style="stroke:#000000;fill:none"
       id="path5236" />
    <path
       d="M 2602.674176,-1222.713379 2602.674176,-731.374796"
       style="stroke:#000000;fill:none"
       id="path5238" />
    <path
       d="M 2602.674176,-731.374796 A 75.590551,75.590551 -0.000000 0 0 2678.264727,-655.784245"
       style="stroke:#000000;fill:none"
       id="path5240" />
    <path
       d="M 2772.752916,-655.784245 2678.264727,-655.784245"
       style="stroke:#000000;fill:none"
       id="path5242" />
    <path
       d="M 2772.752916,-655.784245 A 75.590551,75.590551 -0.000000 0 0 2848.343467,-731.374796"
       style="stroke:#000000;fill:none"
       id="path5244" />
    <path
       d="M 2848.343467,-1222.713379 2848.343467,-731.374796"
       style="stroke:#000000;fill:none"
       id="path5246" />
    <path
       d="M 2848.343467,-1222.713379 A 75.590551,75.590551 -0.000000 0 0 2772.752916,-1298.303930"
       style="stroke:#000000;fill:none"
       id="path5248" />
    <path
       d="M 2772.752916,-1298.303930 2678.264727,-1298.303930"
       style="stroke:#000000;fill:none"
       id="path5250" />
    <path
       d="M 3539.997011,-542.398418 A 68.031496,68.031496 -0.000000 0 0 3608.028507,-610.429914"
       style="stroke:#000000;fill:none"
       id="path5252" />
  </g>
  <g
     inkscape:groupmode="layer"
     inkscape:label="TANGENT_LINES"
     id="g5464">
    <path
       d="M 3206.889754,-1733.840659 3187.992116,-1733.840659"
       style="stroke:#000000;fill:none"
       id="path5256" />
    <path
       d="M 3187.992116,-2225.179242 3206.889754,-2225.179242"
       style="stroke:#000000;fill:none"
       id="path5258" />
    <path
       d="M 3112.401565,-1639.352470 3112.401565,-1658.250108"
       style="stroke:#000000;fill:none"
       id="path5260" />
    <path
       d="M 3112.401565,-2300.769793 3112.401565,-2319.667431"
       style="stroke:#000000;fill:none"
       id="path5262" />
    <path
       d="M 3017.913376,-1639.352470 3017.913376,-1658.250108"
       style="stroke:#000000;fill:none"
       id="path5264" />
    <path
       d="M 3017.913376,-2300.769793 3017.913376,-2319.667431"
       style="stroke:#000000;fill:none"
       id="path5266" />
    <path
       d="M 2923.425187,-1733.840659 2942.322825,-1733.840659"
       style="stroke:#000000;fill:none"
       id="path5268" />
    <path
       d="M 2942.322825,-2225.179242 2923.425187,-2225.179242"
       style="stroke:#000000;fill:none"
       id="path5270" />
    <path
       d="M 2862.952746,-1733.840659 2844.055109,-1733.840659"
       style="stroke:#000000;fill:none"
       id="path5272" />
    <path
       d="M 2844.055109,-2225.179242 2862.952746,-2225.179242"
       style="stroke:#000000;fill:none"
       id="path5274" />
    <path
       d="M 2768.464557,-1639.352470 2768.464557,-1658.250108"
       style="stroke:#000000;fill:none"
       id="path5276" />
    <path
       d="M 2768.464557,-2300.769793 2768.464557,-2319.667431"
       style="stroke:#000000;fill:none"
       id="path5278" />
    <path
       d="M 2673.976368,-1639.352470 2673.976368,-1658.250108"
       style="stroke:#000000;fill:none"
       id="path5280" />
    <path
       d="M 2673.976368,-2300.769793 2673.976368,-2319.667431"
       style="stroke:#000000;fill:none"
       id="path5282" />
    <path
       d="M 2579.488179,-1733.840659 2598.385817,-1733.840659"
       style="stroke:#000000;fill:none"
       id="path5284" />
    <path
       d="M 2598.385817,-2225.179242 2579.488179,-2225.179242"
       style="stroke:#000000;fill:none"
       id="path5286" />
    <path
       d="M 2469.881880,-2334.785541 2488.779518,-2334.785541"
       style="stroke:#000000;fill:none"
       id="path5288" />
    <path
       d="M 2488.779518,-1624.234360 2469.881880,-1624.234360"
       style="stroke:#000000;fill:none"
       id="path5290" />
    <path
       d="M 2424.527550,-2334.785541 2405.629912,-2334.785541"
       style="stroke:#000000;fill:none"
       id="path5292" />
    <path
       d="M 2405.629912,-1624.234360 2424.527550,-1624.234360"
       style="stroke:#000000;fill:none"
       id="path5294" />
    <path
       d="M 2379.173219,-2334.785541 2398.070857,-2334.785541"
       style="stroke:#000000;fill:none"
       id="path5296" />
    <path
       d="M 2398.070857,-1624.234360 2379.173219,-1624.234360"
       style="stroke:#000000;fill:none"
       id="path5298" />
    <path
       d="M 2333.818888,-2334.785541 2314.921250,-2334.785541"
       style="stroke:#000000;fill:none"
       id="path5300" />
    <path
       d="M 2314.921250,-1624.234360 2333.818888,-1624.234360"
       style="stroke:#000000;fill:none"
       id="path5302" />
    <path
       d="M 2288.464557,-2334.785541 2307.362195,-2334.785541"
       style="stroke:#000000;fill:none"
       id="path5304" />
    <path
       d="M 2307.362195,-1624.234360 2288.464557,-1624.234360"
       style="stroke:#000000;fill:none"
       id="path5306" />
    <path
       d="M 2243.110227,-2334.785541 2224.212589,-2334.785541"
       style="stroke:#000000;fill:none"
       id="path5308" />
    <path
       d="M 2224.212589,-1624.234360 2243.110227,-1624.234360"
       style="stroke:#000000;fill:none"
       id="path5310" />
    <path
       d="M 2197.755896,-2334.785541 2216.653534,-2334.785541"
       style="stroke:#000000;fill:none"
       id="path5312" />
    <path
       d="M 2216.653534,-1624.234360 2197.755896,-1624.234360"
       style="stroke:#000000;fill:none"
       id="path5314" />
    <path
       d="M 2152.401565,-2334.785541 2133.503928,-2334.785541"
       style="stroke:#000000;fill:none"
       id="path5316" />
    <path
       d="M 2133.503928,-1624.234360 2152.401565,-1624.234360"
       style="stroke:#000000;fill:none"
       id="path5318" />
    <path
       d="M 2107.047235,-2334.785541 2125.944872,-2334.785541"
       style="stroke:#000000;fill:none"
       id="path5320" />
    <path
       d="M 2125.944872,-1624.234360 2107.047235,-1624.234360"
       style="stroke:#000000;fill:none"
       id="path5322" />
    <path
       d="M 2061.692904,-2334.785541 2042.795266,-2334.785541"
       style="stroke:#000000;fill:none"
       id="path5324" />
    <path
       d="M 2042.795266,-1624.234360 2061.692904,-1624.234360"
       style="stroke:#000000;fill:none"
       id="path5326" />
    <path
       d="M 2016.338573,-2334.785541 2035.236211,-2334.785541"
       style="stroke:#000000;fill:none"
       id="path5328" />
    <path
       d="M 2035.236211,-1624.234360 2016.338573,-1624.234360"
       style="stroke:#000000;fill:none"
       id="path5330" />
    <path
       d="M 1970.984242,-2334.785541 1952.086605,-2334.785541"
       style="stroke:#000000;fill:none"
       id="path5332" />
    <path
       d="M 1952.086605,-1624.234360 1970.984242,-1624.234360"
       style="stroke:#000000;fill:none"
       id="path5334" />
    <path
       d="M 1925.629912,-2334.785541 1944.527550,-2334.785541"
       style="stroke:#000000;fill:none"
       id="path5336" />
    <path
       d="M 1944.527550,-1624.234360 1925.629912,-1624.234360"
       style="stroke:#000000;fill:none"
       id="path5338" />
    <path
       d="M 1880.275581,-2334.785541 1861.377943,-2334.785541"
       style="stroke:#000000;fill:none"
       id="path5340" />
    <path
       d="M 1861.377943,-1624.234360 1880.275581,-1624.234360"
       style="stroke:#000000;fill:none"
       id="path5342" />
    <path
       d="M 1834.921250,-2334.785541 1853.818888,-2334.785541"
       style="stroke:#000000;fill:none"
       id="path5344" />
    <path
       d="M 1853.818888,-1624.234360 1834.921250,-1624.234360"
       style="stroke:#000000;fill:none"
       id="path5346" />
    <path
       d="M 1789.566920,-2334.785541 1770.669282,-2334.785541"
       style="stroke:#000000;fill:none"
       id="path5348" />
    <path
       d="M 1770.669282,-1624.234360 1789.566920,-1624.234360"
       style="stroke:#000000;fill:none"
       id="path5350" />
    <path
       d="M 1744.212589,-2334.785541 1763.110227,-2334.785541"
       style="stroke:#000000;fill:none"
       id="path5352" />
    <path
       d="M 1763.110227,-1624.234360 1744.212589,-1624.234360"
       style="stroke:#000000;fill:none"
       id="path5354" />
    <path
       d="M 1698.858258,-2334.785541 1679.960620,-2334.785541"
       style="stroke:#000000;fill:none"
       id="path5356" />
    <path
       d="M 1679.960620,-1624.234360 1698.858258,-1624.234360"
       style="stroke:#000000;fill:none"
       id="path5358" />
    <path
       d="M 1653.503928,-2334.785541 1672.401565,-2334.785541"
       style="stroke:#000000;fill:none"
       id="path5360" />
    <path
       d="M 1672.401565,-1624.234360 1653.503928,-1624.234360"
       style="stroke:#000000;fill:none"
       id="path5362" />
    <path
       d="M 1608.149597,-2334.785541 1589.251959,-2334.785541"
       style="stroke:#000000;fill:none"
       id="path5364" />
    <path
       d="M 1589.251959,-1624.234360 1608.149597,-1624.234360"
       style="stroke:#000000;fill:none"
       id="path5366" />
    <path
       d="M 1562.795266,-2334.785541 1581.692904,-2334.785541"
       style="stroke:#000000;fill:none"
       id="path5368" />
    <path
       d="M 1581.692904,-1624.234360 1562.795266,-1624.234360"
       style="stroke:#000000;fill:none"
       id="path5370" />
    <path
       d="M 1517.440935,-2334.785541 1498.543298,-2334.785541"
       style="stroke:#000000;fill:none"
       id="path5372" />
    <path
       d="M 1498.543298,-1624.234360 1517.440935,-1624.234360"
       style="stroke:#000000;fill:none"
       id="path5374" />
    <path
       d="M 1472.086605,-2334.785541 1490.984242,-2334.785541"
       style="stroke:#000000;fill:none"
       id="path5376" />
    <path
       d="M 1490.984242,-1624.234360 1472.086605,-1624.234360"
       style="stroke:#000000;fill:none"
       id="path5378" />
    <path
       d="M 1426.732274,-2334.785541 1407.834636,-2334.785541"
       style="stroke:#000000;fill:none"
       id="path5380" />
    <path
       d="M 1407.834636,-1624.234360 1426.732274,-1624.234360"
       style="stroke:#000000;fill:none"
       id="path5382" />
    <path
       d="M 1381.377943,-2334.785541 1400.275581,-2334.785541"
       style="stroke:#000000;fill:none"
       id="path5384" />
    <path
       d="M 1400.275581,-1624.234360 1381.377943,-1624.234360"
       style="stroke:#000000;fill:none"
       id="path5386" />
    <path
       d="M 1336.023613,-2334.785541 1317.125975,-2334.785541"
       style="stroke:#000000;fill:none"
       id="path5388" />
    <path
       d="M 1317.125975,-1624.234360 1336.023613,-1624.234360"
       style="stroke:#000000;fill:none"
       id="path5390" />
    <path
       d="M 1290.669282,-2334.785541 1309.566920,-2334.785541"
       style="stroke:#000000;fill:none"
       id="path5392" />
    <path
       d="M 1309.566920,-1624.234360 1290.669282,-1624.234360"
       style="stroke:#000000;fill:none"
       id="path5394" />
    <path
       d="M 1245.314951,-2334.785541 1226.417313,-2334.785541"
       style="stroke:#000000;fill:none"
       id="path5396" />
    <path
       d="M 1226.417313,-1624.234360 1245.314951,-1624.234360"
       style="stroke:#000000;fill:none"
       id="path5398" />
    <path
       d="M 1199.960620,-2334.785541 1218.858258,-2334.785541"
       style="stroke:#000000;fill:none"
       id="path5400" />
    <path
       d="M 1218.858258,-1624.234360 1199.960620,-1624.234360"
       style="stroke:#000000;fill:none"
       id="path5402" />
    <path
       d="M 1154.606290,-2334.785541 1135.708652,-2334.785541"
       style="stroke:#000000;fill:none"
       id="path5404" />
    <path
       d="M 1135.708652,-1624.234360 1154.606290,-1624.234360"
       style="stroke:#000000;fill:none"
       id="path5406" />
    <path
       d="M 1109.251959,-2334.785541 1128.149597,-2334.785541"
       style="stroke:#000000;fill:none"
       id="path5408" />
    <path
       d="M 1128.149597,-1624.234360 1109.251959,-1624.234360"
       style="stroke:#000000;fill:none"
       id="path5410" />
    <path
       d="M 1063.897628,-2334.785541 1044.999990,-2334.785541"
       style="stroke:#000000;fill:none"
       id="path5412" />
    <path
       d="M 1044.999990,-1624.234360 1063.897628,-1624.234360"
       style="stroke:#000000;fill:none"
       id="path5414" />
    <path
       d="M 1018.543298,-2334.785541 1037.440935,-2334.785541"
       style="stroke:#000000;fill:none"
       id="path5416" />
    <path
       d="M 1037.440935,-1624.234360 1018.543298,-1624.234360"
       style="stroke:#000000;fill:none"
       id="path5418" />
    <path
       d="M 973.188967,-2334.785541 954.291329,-2334.785541"
       style="stroke:#000000;fill:none"
       id="path5420" />
    <path
       d="M 954.291329,-1624.234360 973.188967,-1624.234360"
       style="stroke:#000000;fill:none"
       id="path5422" />
    <path
       d="M 863.582668,-2334.785541 882.480305,-2334.785541"
       style="stroke:#000000;fill:none"
       id="path5424" />
    <path
       d="M 882.480305,-1624.234360 863.582668,-1624.234360"
       style="stroke:#000000;fill:none"
       id="path5426" />
    <path
       d="M 946.732274,-2334.785541 927.834636,-2334.785541"
       style="stroke:#000000;fill:none"
       id="path5428" />
    <path
       d="M 927.834636,-1624.234360 946.732274,-1624.234360"
       style="stroke:#000000;fill:none"
       id="path5430" />
    <path
       d="M 3445.145580,-1774.092628 3445.145580,-1792.990266"
       style="stroke:#000000;fill:none"
       id="path5432" />
    <path
       d="M 3445.145580,-1730.628061 3445.145580,-1749.525699"
       style="stroke:#000000;fill:none"
       id="path5434" />
    <path
       d="M 3286.405422,-1774.092628 3286.405422,-1792.990266"
       style="stroke:#000000;fill:none"
       id="path5436" />
    <path
       d="M 3286.405422,-1730.628061 3286.405422,-1749.525699"
       style="stroke:#000000;fill:none"
       id="path5438" />
    <path
       d="M 663.413296,-1749.525699 663.413296,-1730.628061"
       style="stroke:#000000;fill:none"
       id="path5440" />
    <path
       d="M 663.413296,-1792.990266 663.413296,-1774.092628"
       style="stroke:#000000;fill:none"
       id="path5442" />
    <path
       d="M 822.153454,-1749.525699 822.153454,-1730.628061"
       style="stroke:#000000;fill:none"
       id="path5444" />
    <path
       d="M 822.153454,-1792.990266 822.153454,-1774.092628"
       style="stroke:#000000;fill:none"
       id="path5446" />
    <path
       d="M 3584.842510,-2346.124124 3603.740148,-2346.124124"
       style="stroke:#000000;fill:none"
       id="path5448" />
    <path
       d="M 3603.740148,-1612.895777 3584.842510,-1612.895777"
       style="stroke:#000000;fill:none"
       id="path5450" />
    <path
       d="M 3535.708652,-2395.257982 3535.708652,-2414.155620"
       style="stroke:#000000;fill:none"
       id="path5452" />
    <path
       d="M 3535.708652,-1544.864281 3535.708652,-1563.761919"
       style="stroke:#000000;fill:none"
       id="path5454" />
    <path
       d="M 572.559046,-2395.257982 572.559046,-2414.155620"
       style="stroke:#000000;fill:none"
       id="path5456" />
    <path
       d="M 572.559046,-1544.864281 572.559046,-1563.761919"
       style="stroke:#000000;fill:none"
       id="path5458" />
    <path
       d="M 523.425187,-2346.124124 504.527550,-2346.124124"
       style="stroke:#000000;fill:none"
       id="path5460" />
    <path
       d="M 504.527550,-1612.895777 523.425187,-1612.895777"
       style="stroke:#000000;fill:none"
       id="path5462" />
  </g>
</svg>
